<svg xmlns="http://www.w3.org/2000/svg" viewBox="0 0 100 100">
    <path  class="service-icon" d="M65.9 81.2c-8.8 7.4-15.9 12.2-15.9 12.2S1.5 62.2 1.5 34.6c0-15.4 12-27.9 26.8-27.9 8.9 0 16.8 4.5 21.7 11.5 4.9-6.9 12.8-11.5 21.7-11.5 14.8 0 26.8 12.5 26.8 27.9 0 14-14 29.9-26.9 41.6"/>
      <path  class="service-icon" d="M54.8 57.7c-2.3-5.9-4-11.5-4.1-15.6 -0.3-6.9 2.6-13.4 7.6-17.4 4.4-3.5 10-4.6 14.9-2.9 4.9 1.6 8.7 5.7 10.4 11.2 1.9 6.3 0.6 13.3-3.4 18.9 -2.7 3.8-8.4 8.1-14.5 12.2 -4.1 2.8-19.5 11.6-24.7 14.2l-3.2-6.8c8.1-4.2 23.2-13 26.7-15.6 4.4-3.2 8.1-6.1 9.9-8.5 2.6-3.6 3.5-8.1 2.3-12.1 -0.9-3.1-3-5.4-5.6-6.2 -0.8-0.3-1.6-0.4-2.5-0.4 -2 0-4 0.7-5.8 2.1 -3.2 2.5-4.9 6.6-4.8 11.1 0.1 2.7 1.5 7.3 3.1 11.7M67.5 68.1c3.1 6.4 6.5 12.6 8.4 16l-6.3 3.9c-0.8-1.5-4.6-7.9-8.5-16"/>
</svg>
