<svg xmlns="http://www.w3.org/2000/svg" viewBox="0 0 100 100"><path  d="M53.7 24.8c0 7.5 6.1 13.7 13.7 13.7 7.5 0 13.7-6.1 13.7-13.6 0-7.5-6.1-13.6-13.6-13.6C59.8 11.1 53.7 17.2 53.7 24.8z"/><path d="M16.8 15.7c0-8 6.5-14.4 14.4-14.4 8 0 14.4 6.5 14.4 14.4 0 8-6.4 14.4-14.4 14.4C23.3 30.2 16.8 23.7 16.8 15.7z"/><path class="st2" d="M26.9 59.9l1.1-1.1v-6.1c0-3.9-3.1-7-7-7 -3.9 0-7 3.1-7 7v6.1l1.3 1.3"/><path class="st1" d="M21 45.7v-4.9c0 0 0-3.1 0.7-4.8"/><path class="st1" d="M44.3 50.1v-9.2c0 0 0-3.1-0.7-4.8"/><path class="st0" d="M58.8 44.9c-5.1-4-11.4-8.6-18.8-9.1l-8.8 6.7 -8.8-6.7C11.5 36.5 5.6 42 5.6 55.5v26.2c0 0-0.4 7.6 8.6 7.6v9.3"/><path class="st0" d="M82.1 39.7c1.8 0 3.8 1.6 5.9 3.4 3.3 2.8 5.6 4.5 3.1 8.5 -0.3 0.5-0.8 1.6-1.8 2.3 -1.2 1-2.9 1.6-4.7 1.6 -1.7 0-3.6-0.6-5.2-1.9 -3.3-2.7-3.2-7.4-1-11C79.9 40.4 80.8 39.7 82.1 39.7z"/><path class="st0" d="M77.3 45c-1.4-0.2-2.9-0.3-4.5-0.3h-11c-8.7 0-14.3 2.9-16.5 10.3l-4.8 19.6c-0.8 4 0.8 7 4.8 7.7l6.8 1.2 0 15.2"/><path class="st0" d="M82.7 98.7v-15.2l6.8-1.2c4-0.7 5.6-3.7 4.8-7.7l-4.9-19.8c-0.1-0.2-0.1-0.4-0.2-0.6"/><path class="st1" d="M47.1 51.1c-0.7-0.6-1.7-1-2.8-1 -2.3 0-4.2 1.9-4.2 4.2 0 2.3 1.9 4.2 4.2 4.2"/></svg>