 <svg xmlns="http://www.w3.org/2000/svg" viewBox="0 0 100 100"><polyline class="st0" points="45 96.8 78 78.3 97.8 55.9 "/><path class="st1" d="M39.6 92.3l33.4-19.4c0.4-0.2 0.8-0.6 1.2-0.9l16.4-18.5c2.3-2.3 4.3-6.5 1.6-8.6 -11.1-6.4-21.4-12.5-32.5-18.9 -2.5-1.4-4.1 0-5.3 1.3L39.1 44.6 6.4 63.7c-4.9 3.1-4.9 8.3-2.8 9.5 11.1 6.5 22.2 12.9 33.3 19.3C37.4 92.7 38.2 93.1 39.6 92.3z"/><path class="st1" d="M61.3 36.2c3.2-2 7.5-1 9.5 2.2 2 3.2 1.1 7.5-2.2 9.5 -3.2 2-7.5 1.1-9.5-2.2C57.1 42.5 58 38.3 61.3 36.2z"/><path class="st1" d="M43.2 70c6.5-2.9 9.6-5.9 11-7.7 -5.6-6.1-9.2-7.3-10.9-7.5 4.5-5.5 12-6.3 16.6-3.2 6 3.9 4.9 10.7-1.3 16 -1.6 1.4-6.8 5.3-12.3 7.1 -1.4 0.5-2.9 0.2-3.9-0.8C41.5 73.1 41.5 70.7 43.2 70z"/><path class="st1" d="M31.5 10.4c0-4-3.2-7.2-7.2-7.2 -4 0-7.2 3.2-7.2 7.2 0 4 3.2 7.2 7.2 7.2C28.3 17.6 31.5 14.3 31.5 10.4z"/><path  d="M37.1 45.9l0-14.1c0-6.5-2.7-9.3-7.9-9.8l-4.9 4 -4.9-4c-5.1 0.5-7.9 3.3-7.9 9.8l0 13.1c0 2.1 1.5 3.8 4.3 3.8v9.7"/></svg>