  <svg xmlns="http://www.w3.org/2000/svg" viewBox="0 0 100 100"><path  d="M85.6 18.3c0-8.2-6.6-14.8-14.8-14.8 -8.2 0-14.8 6.6-14.8 14.8 0 8.2 6.6 14.8 14.8 14.8C79 33.1 85.6 26.4 85.6 18.3z"/><path  d="M49.6 96.5V86l7.5-1.3c4.4-0.8 6.2-4.1 5.3-8.5l-5.5-21.9c-2.4-8.2-8.5-11.1-18.1-11.1H26.6c-9.6 0-15.8 3.2-18.2 11.4L3.1 76.2c-0.9 4.5 0.9 7.8 5.3 8.5L15.8 86l0 10.5"/><path d="M17.6 21.1c0 8.3 6.8 15.1 15.1 15.1 8.3 0 15.1-6.8 15.1-15.1S41.1 6 32.7 6C24.4 6 17.6 12.8 17.6 21.1z"/><path d="M48 44.3c0 0 4.1-4.3 16.6-4.3h12.6c13.1 0 20 5.4 20 20.4l-0.1 36.1"/></svg>
