<svg xmlns="http://www.w3.org/2000/svg" viewBox="0 0 100 100"><path d="M37.6 59.8c0.6-2 1.6-5.3 1.2-8.1 -6.5-8.5-7-20.5-4.3-27.1 4.9 3 11.8 7 25.1 3.7 0 0-4.4-2.8-6.5-6.8 0 0 5.5-1.1 10.4 2.1 2.3 6.9 3.7 16.9-3.9 28.3 -0.3 2.8 0.2 5.8 1.1 8"/><path d="M74 63.2c-3.8-7.8 1.8-20.4 1.5-34.2 0-14.5-11.8-26.3-26.3-26.3 -14.6 0-26.4 11.8-26.4 26.4 -0.3 13.9 5 27 1.4 34.8"/><path  d="M88.9 98.4V84.7c0-14-11.7-23.4-28.2-24.9"/><path d="M37.6 59.8c-15.5 2.5-28.2 10.2-28.2 24.9V98.4"/><line x1="60.8" y1="59.8" x2="41.8" y2="97.2"/><line  x1="37.6" y1="59.8" x2="49.2" y2="82.7"/><polyline points="30.2 61.7 28.4 80.2 36.9 80.2 40.2 88.4 "/><polyline  points="68.2 61.7 69.9 80.2 61.4 80.2 55.3 95.6 "/></svg>