<?xml version="1.0" standalone="no"?>
<!DOCTYPE svg PUBLIC "-//W3C//DTD SVG 1.1//EN" "http://www.w3.org/Graphics/SVG/1.1/DTD/svg11.dtd" >
<svg xmlns="http://www.w3.org/2000/svg" xmlns:xlink="http://www.w3.org/1999/xlink" version="1.1">
<metadata>
Created by FontForge 20170924 at Mon Jun 22 23:56:11 2020
 By www-data
Copyright (c) 2020 by Letterhend Studio. All rights reserved.
</metadata>
<defs>
<font id="AnnetteBradfordDEMO" horiz-adv-x="319" >
  <font-face 
    font-family="Annette Bradford DEMO"
    font-weight="400"
    font-stretch="normal"
    units-per-em="1000"
    panose-1="0 0 0 0 0 0 0 0 0 0"
    ascent="800"
    descent="-200"
    x-height="361"
    cap-height="850"
    bbox="-462.842 -579.28 6888 1047.5"
    underline-thickness="0"
    underline-position="0"
    unicode-range="U+000D-F03E"
  />
<missing-glyph 
 />
    <glyph glyph-name=".notdef" 
 />
    <glyph glyph-name="NULL" horiz-adv-x="0" 
 />
    <glyph glyph-name="NULL" horiz-adv-x="0" 
 />
    <glyph glyph-name="nonmarkingreturn" unicode="&#xd;" 
 />
    <glyph glyph-name="space" unicode=" " 
 />
    <glyph glyph-name="quotedbl" unicode="&#x22;" horiz-adv-x="345" 
d="M144 708q28 0 31 -32v-19q-2 -5 -3 -14.5t-6 -18.5q-20 -40 -40 -79.5t-40 -79.5q0 -1 -0.5 -1.5t-0.5 -1.5q-5 -6 -10.5 -11.5t-15.5 0.5q-9 5 -9 12.5t4 15.5l45 93q5 10 8 19.5t7 19.5q4 11 5 21t-4 21q-6 10 -4 24t11 22.5t22 8.5zM279 680q16 -4 16 -29v-4.5
t-1 -4.5q-11 -31 -27 -58t-36 -53q-10 -14 -25 -4q-8 4 -9 10.5t2 13.5q3 6 6 11.5t5 10.5q8 20 15 38.5t15 37.5q2 4 2 7t2 7q11 23 35 17z" />
    <glyph glyph-name="numbersign" unicode="#" horiz-adv-x="855" 
d="M843 804q13 -14 2 -30q-3 -4 -6.5 -7.5l-7.5 -7.5q-14 -12 -28 -23t-25 -25q-48 -58 -86 -122t-76 -133q23 -2 42 -4.5t37 -4.5q11 -2 20 -6q7 -3 6.5 -10.5t-7.5 -9.5q-11 -3 -24 -3q-18 1 -35.5 1t-35.5 1q-23 2 -32 -16q-15 -29 -30.5 -56.5t-30.5 -56.5
q-2 -2 -1.5 -5t0.5 -8h32q20 1 40.5 2t40.5 1q16 0 35 -7q4 -2 7.5 -7t3.5 -9q0 -15 -17 -13q-8 1 -14.5 2t-14.5 1q-31 -2 -61.5 -3t-62.5 -3q-11 -1 -16 -7t-10 -14q-21 -42 -42 -82.5t-41 -82.5q-13 -26 -24 -53.5t-22 -54.5q-4 -9 -8 -15q-5 -5 -13 -3q-2 0 -3.5 3
t-1.5 5l6 22t8 22l50 108l50 108l18 36q-13 0 -21 0.5t-16 -1.5q-32 -5 -65 -9.5t-65 -9.5q-26 -3 -39 -26q-36 -63 -71.5 -125t-61.5 -130q-1 -3 -1.5 -5.5t-2.5 -4.5l-7.5 -5t-6.5 -1q-3 2 -5.5 6.5t-1.5 7.5q5 15 9.5 30.5t12.5 29.5q23 45 46.5 89.5t47.5 89.5l15 30
q-12 -2 -21.5 -2.5t-17.5 -2.5q-26 -8 -53 -15t-53 -15q-5 -2 -8.5 -3t-8.5 -2q-11 -3 -21.5 2t-13.5 14q-3 10 1 20.5t15 15.5q18 8 37 11q32 5 65 9.5t65 6.5q23 2 38.5 11.5t26.5 30.5q14 26 30 52t33 55q-8 0 -13 1t-10 -1q-15 -5 -30.5 -9.5t-30.5 -9.5
q-11 -4 -20.5 -10t-15.5 -17q-8 -19 -33 -14q-11 3 -18.5 10t-9.5 19q-2 11 2.5 19.5t13.5 13.5q14 8 33 13q34 8 67.5 15t67.5 14q13 2 22 7.5t15 16.5q26 45 51.5 89.5t44.5 93.5q3 9 5.5 18.5t5.5 18.5q9 24 30 19q11 -2 18 -10.5t5 -20.5q-3 -18 -12 -33
q-17 -30 -35.5 -59.5t-37.5 -58.5l-18 -30t-19 -31q13 -8 24.5 -6.5t22.5 2.5q20 1 40.5 3t41.5 2q17 0 26 7t17 21q36 65 72.5 129t73.5 128q16 29 38 51q7 8 16 13t19 10q8 5 15.5 2t12.5 -10zM543 381q4 8 8 17t9 20q-37 5 -70.5 -0.5t-67.5 -8.5q-30 -3 -47 -33
q-15 -26 -31 -51t-32 -51l-4 -8t-4 -9q10 -3 16 -3l74 8l74 8q19 3 30 23q11 23 22.5 44.5t22.5 43.5z" />
    <glyph glyph-name="dollar" unicode="$" horiz-adv-x="655" 
d="M453 253q37 -17 41 -45.5t-26 -55.5q-18 -16 -40 -29q-42 -26 -85.5 -47.5t-90.5 -36.5q-23 -8 -34.5 -21t-14.5 -36q-5 -35 -12 -70t-13 -70q-6 -39 -19 -33q-11 7 -9.5 17t3.5 18q5 36 11.5 72t12.5 72q1 5 1.5 10.5t1.5 13.5q-17 -4 -31.5 -7.5t-29.5 -5.5
q-28 -4 -60 -6q-4 0 -8.5 0.5t-8.5 2.5q-3 1 -6 4t-3 5q4 9 11 12q5 2 10 2.5t10 0.5q27 -2 51.5 4.5t50.5 12.5q10 2 17.5 7.5t9.5 16.5q11 49 21 97t21 96q-6 9 -14 9t-16 2q-21 3 -42 6.5t-42 7.5q-13 3 -26 11q-16 11 -20 26.5t6 32.5q5 8 11.5 15.5t13.5 14.5
q38 38 81 69t89 59q36 21 47 59q14 46 28.5 91.5t29.5 91.5q4 12 10 24t14 23q15 24 40 14q9 -3 16.5 -14t8.5 -22q0 -11 -6.5 -20t-20.5 -13q-17 -5 -24 -18q-20 -39 -34 -80.5t-29 -86.5q10 3 16 5t11 4q17 8 34 15.5t35 13.5q18 7 32 2t20 -19q3 -6 2.5 -16.5t-3.5 -20.5
t-8.5 -18t-12.5 -11q-22 -9 -34 9q-4 5 -6 10.5t-6 13.5q-21 -8 -41 -15.5t-39 -16.5q-7 -4 -13.5 -11t-8.5 -15q-14 -47 -27.5 -93.5t-26.5 -94.5q-1 -2 2 -10q30 -5 58.5 -9t57.5 -9q14 -3 27.5 -7t27.5 -10zM229 292q16 -3 21 14q11 42 22 83.5t23 87.5q-8 -4 -13 -5.5
t-9 -3.5q-39 -24 -74.5 -51.5t-69.5 -58.5q-7 -6 -14 -16q-15 -23 10 -30q26 -6 52 -10.5t52 -9.5zM457 181q18 24 -7 41q-9 6 -20 9q-35 14 -72 17.5t-74 8.5q-15 3 -20 -15q-4 -18 -8.5 -36t-9.5 -37q-6 -26 -12 -53.5t-13 -57.5q7 1 10.5 1t5.5 1q52 20 101.5 43.5
t94.5 55.5q7 5 13 10.5t11 11.5z" />
    <glyph glyph-name="percent" unicode="%" horiz-adv-x="610" 
d="M526 199q7 -15 5 -31.5t-10 -31.5t-21 -25.5t-29 -13.5q-31 -5 -50.5 14.5t-13.5 51.5q2 16 7.5 31.5t11.5 34.5q-8 -5 -14.5 -7.5t-11.5 -6.5l-62 -50t-62 -51q-36 -31 -71 -62.5t-70 -62.5q-9 -8 -19 -15t-21 -14q-8 -5 -15 -5.5t-15 5.5q-8 7 -9 15.5t4 16.5l12 24
t14 23q34 47 68 93t69 93q33 43 59 77.5t48.5 69t43.5 72.5t44 88q12 26 21.5 52.5t13.5 54.5q3 12 3 25q-1 27 -13 39t-39 14q-31 2 -61 -1.5t-59 -8.5q-5 -1 -9 -3.5t-9 -4.5q2 -6 2.5 -10t2.5 -7q7 -24 3 -47.5t-16.5 -43.5t-32.5 -34t-44 -18q-15 -3 -26.5 1.5t-18 13
t-7 19.5t5.5 22q9 16 19 31.5t21 30.5q3 5 7 9.5t8 8.5v8q-11 21 -8.5 29.5t24.5 12.5q46 8 92 16.5t94 7.5h12.5t12.5 -1q64 -12 67 -78q1 -32 -8.5 -61.5t-21.5 -58.5q-11 -26 -18 -41.5t-14 -29t-16 -28.5t-24 -38q-54 -85 -113 -164t-119 -160q-16 -21 -31 -43t-27 -49
q12 0 19 5.5t13 10.5q29 24 56.5 49t56.5 49q48 39 95 77.5t95 76.5q18 15 34 20q5 2 11 0t11 -6q2 -2 2 -8t-2 -11q-5 -12 -12.5 -23t-12.5 -24q-12 -24 -18 -50q-2 -9 1 -17t12 -13q8 -5 16.5 -1t16.5 14q10 14 10 24t-10 25l-4 4t-2 4q0 5 0.5 10t3.5 9q3 5 8 5.5
t10 -3.5q7 -5 13.5 -11t10.5 -14zM178 578q27 10 42.5 24.5t21.5 43.5q-19 -17 -35.5 -30.5t-28.5 -37.5z" />
    <glyph glyph-name="ampersand" unicode="&#x26;" horiz-adv-x="917" 
d="M789 372q28 -17 35 -43t-6 -56q-12 -29 -31 -52t-42 -43q-33 -30 -69 -56t-74 -50q-8 -5 -16.5 -10.5t-19.5 -13.5q37 -23 71.5 -42.5t76.5 -25.5h6.5t7.5 -2q19 -8 19 -27q0 -10 -6.5 -17.5t-17.5 -8.5q-8 -1 -16 -0.5t-16 3.5l-26 10t-25 13q-23 14 -45.5 28.5
t-43.5 31.5q-14 11 -25.5 11t-25.5 -8q-46 -22 -91.5 -43t-92.5 -40t-95.5 -28.5t-99.5 -6.5q-26 2 -48 9q-29 11 -41 34.5t-6 54.5q6 29 18.5 55t28.5 51q34 53 73.5 100.5t79.5 95.5q14 16 27.5 31.5t27.5 29.5q9 10 11 20t-1 23q-5 24 -10.5 48.5t-7.5 48.5q-5 73 18 135
t79 110q34 29 72.5 49t80.5 31q15 4 30 5t30 0q21 -1 31.5 -13t12.5 -33q0 -30 -13 -55q-19 -38 -43.5 -71t-52.5 -65q-38 -43 -76.5 -85t-76.5 -84q-14 -16 -21.5 -25t-9 -18t2 -20t11.5 -30q29 -66 66.5 -125.5t92.5 -107.5q5 -5 11 -9.5t11 -9.5q16 -15 35 -3
q55 34 106.5 71t94.5 87q21 24 31 50q22 50 -25 76q-10 6 -21 9.5t-22 7.5q-15 7 -28 11q0 2 0.5 5t0.5 5q6 1 12 3t11 0q17 -5 33.5 -11t31.5 -15zM378 711q-51 -51 -66 -112t-4 -130q2 -15 6 -29.5t8 -31.5q6 5 9.5 8t6.5 6q36 40 71.5 79.5t70.5 79.5q20 23 38 46t35 47
q12 17 22 34t18 36q14 32 2 47t-45 8q-49 -10 -92.5 -31.5t-79.5 -56.5zM496 36q2 1 4.5 4t5.5 7q-73 61 -120.5 138t-80.5 166q-6 -5 -9.5 -8t-6.5 -6q-31 -36 -61.5 -71.5t-60.5 -72.5q-29 -35 -54.5 -71.5t-45.5 -78.5q-7 -14 -11.5 -28t-6.5 -29q-5 -28 6.5 -42
t38.5 -22q33 -9 65.5 -6.5t64.5 10.5q73 15 139.5 45t132.5 65z" />
    <glyph glyph-name="quotesingle" unicode="'" horiz-adv-x="174" 
d="M118 658q5 -12 7.5 -24.5t5.5 -22.5q-7 -59 -39 -106q-4 -7 -10.5 -11t-16.5 3q-13 9 -5 28q4 8 7.5 17t6.5 19q5 17 5.5 33t-10.5 31q-4 5 -6 13q-3 11 1.5 21t14.5 14q12 5 23 1t16 -16z" />
    <glyph glyph-name="parenleft" unicode="(" horiz-adv-x="401" 
d="M468 826q5 -11 0.5 -22t-18.5 -15q-26 -8 -42 -27t-32 -37q-38 -43 -69 -90.5t-58 -98.5q-40 -72 -76 -146.5t-65 -152.5q-24 -66 -40.5 -134t-20.5 -139q-2 -26 2 -52.5t18 -50.5q5 -8 8 -16q3 -6 4 -12t-7 -9q-5 -2 -12 0t-10 6q-14 20 -22 42.5t-11 46.5q-2 11 -1 23
t1 23q0 63 13 123.5t33 120.5q38 117 91 225.5t116 214.5q26 43 54.5 83.5t60.5 78.5q9 11 19 19t23 13t24.5 0t16.5 -17z" />
    <glyph glyph-name="parenright" unicode=")" horiz-adv-x="508" 
d="M412 667q8 -25 11.5 -50t8.5 -51q-6 -72 -30 -140q-27 -74 -64.5 -142.5t-79.5 -134.5q-35 -55 -72.5 -107.5t-82.5 -100.5q-11 -11 -23 -21.5t-24 -21.5q-5 -5 -16 -7q-8 -2 -13 3.5t-2 13.5q2 4 4.5 8t6.5 6q42 33 74 74.5t62 83.5q46 66 87 133.5t74 139.5
q13 27 23.5 55.5t19.5 57.5q24 78 5 157q-16 71 -74 108q-29 19 -11 45q8 11 22 11.5t25 -10.5q49 -46 69 -110z" />
    <glyph glyph-name="asterisk" unicode="*" horiz-adv-x="273" 
d="M206 577q11 -1 13 -14q0 -11 -11 -13q-12 -2 -24 -3.5t-25 -3.5q1 -9 6.5 -12.5t10.5 -8.5q2 -4 5.5 -6.5t6.5 -5.5q5 -5 6 -10t-4 -10q-5 -6 -10 -5.5t-10 3.5q-11 8 -22.5 15.5t-23.5 15.5q-3 -4 -5.5 -7.5t-4.5 -7.5q-5 -14 -9.5 -27t-9.5 -27q-2 -4 -3 -8.5t-4 -6.5
q-5 -5 -15 -3q-2 0 -4.5 3.5t-2.5 6.5q0 13 5 28q4 15 8 29.5t9 29.5q-8 6 -15.5 4.5t-15.5 -0.5q-7 0 -13.5 -1t-12.5 0q-20 2 -22 19q-2 16 18 23q3 1 6.5 1t7.5 1q3 1 6.5 1t7.5 1q0 11 -0.5 21.5t13.5 15.5q15 4 23 -5.5t16 -19.5q7 7 9 10q4 11 6.5 21.5t6.5 21.5
q2 6 4 11t5 10q9 14 25 8q17 -5 15 -21q-2 -14 -7 -25t-10.5 -22l-13.5 -27q13 0 22 0.5t18 -0.5h19v0z" />
    <glyph glyph-name="plus" unicode="+" horiz-adv-x="562" 
d="M452 298q15 -8 9 -24q-2 -8 -8.5 -9t-11.5 1q-36 10 -72.5 8t-73.5 0q-23 2 -37 -7.5t-24 -29.5q-13 -30 -28 -59.5t-29 -59.5q-4 -8 -8 -15t-16 -5q-8 1 -10 11t3 23q10 24 20 47.5t21 46.5q5 9 9.5 18t9.5 20q-20 2 -37 1.5t-34 -3.5q-12 -2 -24.5 -3t-24.5 -1
q-13 0 -20.5 7.5t-8.5 18.5q0 12 7.5 20.5t21.5 9.5q23 1 46.5 0.5t46.5 -1.5q7 0 14 0.5t14 -0.5q27 -3 39 23q12 24 24.5 47.5t26.5 46.5q10 18 23 31q22 20 42 2q16 -18 -2 -41q-17 -22 -33.5 -44t-33.5 -44q-2 -3 -4 -7.5t-5 -11.5q14 -1 24.5 -1t20.5 -1q24 -2 48 -3
t48 -3q7 -1 13.5 -3.5t13.5 -5.5z" />
    <glyph glyph-name="comma" unicode="," horiz-adv-x="55" 
d="M-53 80q23 -3 23 -36q-1 -3 -2.5 -9.5t-4.5 -12.5q-17 -38 -44 -69.5t-56 -62.5q-6 -6 -13 -8.5t-15 4.5t-7 14.5t6 14.5l26 36l26 36q11 15 19 31.5t10 36.5q0 2 1 3q4 12 12 18t19 4z" />
    <glyph glyph-name="hyphen" unicode="-" horiz-adv-x="501" 
d="M369 267q8 -2 12.5 -6.5t2.5 -13.5t-7.5 -12t-13.5 -3q-20 5 -40.5 5.5t-40.5 -1t-40.5 -4t-40.5 -2.5q-22 -1 -43.5 -4.5t-44.5 -5.5q-8 -2 -15.5 -3t-15.5 0q-14 0 -22.5 7.5t-9.5 18.5t7 19t22 10q2 1 7 1q64 -1 127.5 -1t127.5 -1q7 0 14 -1t14 -3z" />
    <glyph glyph-name="period" unicode="." horiz-adv-x="48" 
d="M-61 94q26 0 28 -37q-2 -4 -5 -11.5t-8 -14.5t-13 -8.5t-16 2.5q-5 3 -8.5 8.5t-5.5 10.5t-1.5 11.5t1.5 12.5q2 12 9.5 19t18.5 7z" />
    <glyph glyph-name="slash" unicode="/" horiz-adv-x="593" 
d="M684 750q12 -14 4 -27q-4 -5 -8 -11t-9 -11q-93 -88 -178.5 -180.5t-173.5 -186.5q-56 -59 -108.5 -119.5t-106.5 -121.5q-16 -18 -29.5 -37.5t-28.5 -39.5q-3 -5 -8.5 -8.5t-11.5 -8.5q-4 6 -7.5 11t-2.5 7q3 8 7.5 15.5t9.5 15.5q38 54 80 104t87 99q71 79 142 157
t141 157q35 39 67.5 78.5t65.5 79.5q7 8 13 15t14 13q10 8 22 7.5t19 -8.5z" />
    <glyph glyph-name="zero" unicode="0" horiz-adv-x="397" 
d="M427 638q2 -12 1 -24.5t-1 -24.5q-5 -142 -48 -268.5t-134 -236.5q-20 -24 -41 -47t-47 -41q-13 -10 -30 -17q-29 -12 -54 -3t-39 38q-20 47 -16 94q5 46 16.5 90.5t28.5 87.5q44 114 97.5 221t119.5 210q5 8 7.5 14.5t-6.5 16.5q-6 8 -2 14t15 8q14 4 28.5 7t29.5 8
q20 6 34 -4t13 -31q0 -11 3 -20t7 -20q12 -35 18 -72zM232 112q85 102 124.5 218t43.5 247q0 14 0.5 27t-0.5 26q-2 20 -6 39t-15 36q-19 29 -43 6q-12 -12 -23 -24.5t-21 -26.5q-57 -80 -101.5 -165t-82.5 -175q-18 -44 -32.5 -88t-22.5 -92q-4 -25 -4 -49.5t8 -48.5
q8 -25 25.5 -33t41.5 3q11 5 21.5 12t18.5 15q18 18 35 36t33 37z" />
    <glyph glyph-name="one" unicode="1" horiz-adv-x="255" 
d="M259 707q-2 1 -2.5 1.5t-2.5 1.5l-42 -34l-42 -34q-6 -5 -11.5 -9.5t-11.5 -6.5q-6 -3 -13.5 -5.5t-13.5 -0.5q-14 3 -21 16q-5 7 -2.5 14t8.5 12q5 4 9.5 8t9.5 6q50 25 94 56t83 69q3 2 5.5 4t5.5 4q7 4 14 4t12 -8q2 -4 2 -11t-3 -11q-20 -26 -33.5 -55t-26.5 -58
q-32 -78 -64.5 -155.5t-63.5 -156.5q-28 -74 -52 -147.5t-41 -150.5q-5 -20 -7 -39t-6 -38q-1 -5 -1.5 -9.5t-2.5 -7.5q-2 -2 -7.5 -2t-6.5 1q-2 6 -3 13t0 13q3 42 13.5 82.5t22.5 80.5q32 106 70 208.5t80 205.5q11 29 22 56.5t22 56.5q2 6 3.5 12.5t3.5 13.5z" />
    <glyph glyph-name="two" unicode="2" horiz-adv-x="435" 
d="M111 66q1 2 3 4q8 3 16 5.5t16 6.5l108 50l108 50q7 3 11.5 5t8 2t8.5 -1t13 -2q0 -12 -7.5 -16t-15.5 -7q-40 -18 -80 -35t-78 -37q-45 -23 -87 -49.5t-84 -52.5l-6 -4l-6 -4q-5 -4 -11.5 -4.5t-10.5 5.5q-2 4 -2 9.5t2 10.5q1 3 3.5 6t4.5 5q42 47 83.5 92.5t81.5 93.5
q63 75 118.5 155.5t99.5 168.5q16 31 28.5 63.5t15.5 67.5q3 24 -5 48q-9 31 -43 31q-31 1 -55 -12t-47 -32q-5 -5 -10 -9.5t-10 -9.5q-11 -10 -27 -2q-13 7 -13 23q-2 24 18 37q33 22 69 35.5t77 10.5q49 -3 68 -44q9 -18 12.5 -36.5t0.5 -39.5q-8 -48 -27.5 -90t-42.5 -84
q-41 -72 -88.5 -139t-100.5 -131q-26 -32 -52 -63t-52 -63q-3 -3 -5.5 -7t-4.5 -8q-1 0 -2 -1q-1 0 -1 -2z" />
    <glyph glyph-name="three" unicode="3" horiz-adv-x="455" 
d="M28 -26q-6 0 -8.5 3t-13.5 17q6 2 9.5 3.5t6.5 2.5q103 14 182 64.5t140 131.5q8 11 14 23t11 24q13 28 9.5 55.5t-17.5 53.5q-7 14 -15 26.5t-16 25.5q-18 31 -19 62.5t18 62.5q22 34 45 66.5t45 65.5q12 17 23 34l22 34q2 2 4 7q5 11 8 21.5t-4 21.5q-8 11 -18.5 9.5
t-21.5 -3.5q-57 -13 -106 -38t-84 -76q-4 -6 -9 -11.5t-11 -7.5q-7 -2 -15.5 -1.5t-14.5 2.5q-8 4 -9.5 12.5t0.5 16.5q4 11 16 23q48 52 108.5 79.5t128.5 39.5q23 4 40.5 -1.5t26.5 -18t9 -31t-10 -39.5q-15 -30 -34.5 -57.5t-38.5 -55.5l-26 -36l-26 -36q-6 -8 -10.5 -17
t-9.5 -17q-27 -47 0 -95q6 -11 12 -21.5t13 -21.5q55 -93 -5 -180t-140 -142t-184 -78q-6 -1 -12.5 -1.5t-12.5 -1.5z" />
    <glyph glyph-name="four" unicode="4" horiz-adv-x="364" 
d="M312 525q2 5 3.5 10.5t5.5 16.5q-29 -23 -52.5 -43t-48.5 -38q-16 -11 -33.5 -20t-34.5 -18q-5 -2 -10 -3.5t-10 -3.5q-41 -10 -64 11.5t-17 63.5q6 41 18 80t26 77q5 14 10 26.5t10 26.5q3 12 5 24t6 24q3 10 7 20t10 18q6 9 18 11t20 -3q17 -10 9 -35q-2 -8 -5.5 -15
t-7.5 -14q-67 -110 -91 -234q-12 -67 54 -47q9 3 18 7t17 9q51 31 96.5 67.5t78.5 86.5q17 26 29.5 54.5t26.5 56.5q2 5 4.5 11t5.5 11q3 6 9 8.5t12 -0.5q4 -2 7 -7.5t2 -9.5q-3 -23 -13 -40q-57 -102 -103.5 -207t-95.5 -210q-40 -87 -78 -174t-67 -178q-5 -12 -10 -17.5
t-10 -1.5q-8 7 -5 13.5t5 12.5q23 58 44.5 115t45.5 114q37 87 76 172t77 172z" />
    <glyph glyph-name="five" unicode="5" horiz-adv-x="362" 
d="M328 730h110q29 0 29 -18q-1 -16 -27 -17q-29 -2 -57 -3t-57 -3q-16 -1 -31.5 -3t-31.5 -5q-21 -3 -33.5 -17t-22.5 -29q-20 -32 -36.5 -65t-26.5 -69q-9 -33 -4.5 -63t29.5 -56q16 -16 29.5 -33.5t26.5 -35.5q22 -29 23 -64t-26 -70q-28 -37 -60 -68t-73 -53
q-7 -4 -14.5 -6t-15.5 -4q-7 0 -9 5v7t2 6q4 4 8.5 6.5t9.5 4.5q39 22 70 52t57 66q21 29 21 50t-20 50q-25 36 -52 63q-32 32 -40 69t3 79q7 26 16.5 50.5t20.5 48.5q10 23 18 45t11 46q3 21 12.5 28.5t29.5 7.5h111v-2z" />
    <glyph glyph-name="six" unicode="6" horiz-adv-x="367" 
d="M184 407q-3 -5 -5.5 -11.5t-7.5 -17.5q17 6 29.5 10.5t24.5 7.5q34 8 57 -8.5t25 -51.5q1 -20 -2 -40t-8 -40q-18 -72 -51.5 -134.5t-78.5 -120.5q-11 -14 -24.5 -26t-28.5 -21q-29 -17 -53.5 -6t-35.5 43q-9 29 -6 57t11 55q13 42 27.5 82.5t29.5 81.5q3 9 6.5 17.5
t-1.5 19.5q-2 4 1 11t7 10q15 11 24 26t17 32q51 105 109.5 205t124.5 197q11 17 23 32t26 29q23 23 41 8q19 -17 1 -45q-10 -15 -21 -28t-31 -18q-7 -2 -12.5 -8t-10.5 -12q-44 -58 -82.5 -118.5t-73.5 -123.5q-14 -23 -26 -47t-25 -47zM250 188q13 30 22 62t11 69
q-1 4 -1 10.5t-2 13.5q-8 33 -38 29q-34 -6 -63.5 -20.5t-46.5 -48.5q-11 -22 -20.5 -43.5t-18.5 -44.5q-15 -37 -26.5 -75t-18.5 -78q-3 -17 -2.5 -33.5t7.5 -32.5q7 -18 20.5 -23.5t30.5 5.5q27 18 47 42q32 38 55.5 80.5t43.5 87.5z" />
    <glyph glyph-name="seven" unicode="7" horiz-adv-x="472" 
d="M555 703q5 14 0 19.5t-22 4.5q-31 -5 -64.5 -11.5t-67.5 -11.5q-29 -5 -58 -9l-58 -8q-15 -1 -31 4q-24 10 -17 35q2 8 10.5 15t18.5 6q5 0 10.5 -2t10.5 -3q13 -2 26 -4.5t26 -0.5q43 5 85 11.5t84 11.5q24 3 50 3q22 -2 32.5 -16.5t2.5 -35.5q-14 -42 -36 -77
q-54 -87 -113.5 -168t-122.5 -161q-61 -78 -122 -155t-116 -161q-11 -16 -20.5 -32.5t-20.5 -33.5q-3 -5 -6 -9t-5 -9q-4 -5 -8 -8.5t-9 1.5q-3 2 -3 8t2 11q4 9 9 17.5t10 16.5q42 70 89.5 134.5t96.5 129.5q70 92 140 182.5t131 187.5q14 23 27 44.5t26 44.5q4 7 7.5 14
t5.5 15z" />
    <glyph glyph-name="eight" unicode="8" horiz-adv-x="492" 
d="M437 508q-9 -15 -16 -31.5t-15.5 -32t-20 -29t-29.5 -22.5q7 -9 11 -16t9 -14q45 -58 28 -134q-9 -39 -28.5 -72.5t-45.5 -62.5q-38 -44 -81.5 -80t-94.5 -64q-18 -10 -37 -17t-40 -9q-25 -4 -41.5 10t-16.5 40q2 26 9 48q11 35 30 66.5t40 60.5q42 58 85.5 113.5
t87.5 112.5q7 8 13.5 16.5t14.5 18.5q-14 16 -27 30t-24 30q-11 15 -20 31.5t-15 33.5q-15 44 -2 81.5t40 70.5q61 73 155 104q14 5 29.5 5t29.5 -2q21 -2 35 -19.5t16 -40.5q2 -20 -1 -39t-11 -38q-8 -22 -17 -43l-18 -42q-8 -17 -15.5 -32.5t-16.5 -31.5zM361 180
q13 24 19.5 50t3.5 51.5t-15.5 49.5t-36.5 45q-6 -5 -11 -8.5t-9 -8.5q-35 -39 -69.5 -77t-67.5 -78q-31 -38 -58 -78t-48 -85q-14 -27 -20 -53q-9 -38 29 -35q12 2 24.5 5t23.5 8q20 10 39 20.5t37 24.5q48 34 89.5 75t69.5 94zM313 434q13 11 20.5 17t14 8t14.5 1t22 -4
q17 33 33 65t31 64q11 23 20 47.5t17 48.5q3 9 4 19t1 19q0 30 -15 43.5t-44 6.5q-61 -14 -108 -48t-78 -89q-1 -2 -2 -5t-2 -5q-20 -50 1 -97q13 -27 32 -48.5t39 -42.5z" />
    <glyph glyph-name="nine" unicode="9" horiz-adv-x="324" 
d="M304 608q-1 -2 -3 -4q-7 -6 -13.5 -11.5t-13.5 -11.5q-27 -25 -54 -50.5t-56 -50.5q-11 -9 -25 -15.5t-28 -11.5q-31 -11 -50 6t-14 50q1 8 3.5 17t5.5 17q23 63 62 113t93 90q14 11 31 17q50 20 82 -23q5 -5 9 -11t9 -14q6 8 11 14.5t10 12.5t8.5 12t8.5 11q5 6 11 9
t13 -2q8 -5 7.5 -11.5t-4.5 -13.5q-11 -23 -23 -46t-23 -46q-69 -140 -131 -280.5t-116 -286.5q-39 -105 -57 -216q-2 -8 -3.5 -16.5t-12.5 -11.5q-7 -2 -10 7t1 26q8 40 17.5 79.5t20.5 78.5q25 82 57 161t66 157q24 55 48.5 109t48.5 109q4 8 6 16.5t4 16.5h2q1 0 1 1
q1 1 1 3zM112 581q-10 -18 -17 -37t-15 -37q3 -30 26 -21q9 3 17 6.5t16 8.5q45 27 80 64t69 75q7 8 5 20q-2 10 -4.5 20t-5.5 21q-8 26 -32 17q-11 -5 -21 -10t-19 -12q-29 -25 -54.5 -53.5t-44.5 -61.5z" />
    <glyph glyph-name="colon" unicode=":" horiz-adv-x="282" 
d="M163 428q8 -4 10.5 -11.5t0.5 -15.5q-2 -6 -4.5 -11.5t-4.5 -11.5q-6 -11 -6.5 -15.5t-0.5 -17.5q0 -19 -6 -26.5t-19 -7.5q-29 0 -31 36v11q2 21 10.5 33t21.5 31q11 16 29 6zM82 180q8 -5 10.5 -13t0.5 -17q-2 -8 -3.5 -14.5t-3.5 -13.5q-3 -11 -12 -17.5t-19 -5.5
q-8 1 -14.5 8.5t-8.5 18.5q-1 3 -1 10q-1 25 18 40q17 14 33 4z" />
    <glyph glyph-name="semicolon" unicode=";" horiz-adv-x="289" 
d="M74 124q14 0 22 -8.5t8 -26.5q-2 -5 -5.5 -13t-9.5 -15q-51 -56 -103 -109l-4 -4t-4 -3q-5 -1 -10 -1t-9 2q-6 3 -8 9t3 13q4 5 8 11l8 12q11 12 21 24.5t20 24.5q11 14 19.5 28t13.5 31q3 11 10 18t20 7zM164 318q8 -16 -9 -30q-17 -13 -36 3q-10 9 -14.5 20.5t-4.5 24
t5 25t15 21.5q6 5 13 8.5t16 -1.5q15 -9 11 -30q-6 -10 -3.5 -20t7.5 -21z" />
    <glyph glyph-name="less" unicode="&#x3c;" horiz-adv-x="436" 
d="M375 486q7 -11 5.5 -22.5t-12.5 -22.5q-12 -12 -25 -22.5t-27 -19.5q-48 -34 -96.5 -67.5t-96.5 -66.5l-16 -12t-19 -14q20 -6 35.5 -10.5t29.5 -9.5q36 -15 55.5 -43.5t28.5 -64.5q2 -3 0 -8.5t-4 -6.5q-5 -1 -10.5 -0.5t-8.5 3.5q-10 11 -16 27q-14 31 -36.5 48
t-54.5 25q-11 2 -21 4t-20 6q-17 6 -20.5 21t9.5 27q8 8 17.5 14.5t19.5 13.5q47 32 93 64.5t90 70.5q5 4 9.5 7.5t9.5 8.5q11 11 7 25q-7 31 17 40q15 7 32 2.5t25 -17.5z" />
    <glyph glyph-name="greater" unicode="&#x3e;" horiz-adv-x="463" 
d="M351 413q13 -7 21.5 -18.5t9.5 -28.5q-5 -9 -8.5 -18t-8.5 -17q-13 -22 -32 -37.5t-39 -30.5q-50 -35 -95.5 -74t-87.5 -84l-42 -48l-7.5 -7.5t-8.5 -6.5q-7 -6 -14 -7.5t-14 5.5q-8 8 -5.5 15t7.5 13q35 36 69 72t70 71q23 22 49 40.5t51 38.5q32 27 59 56
q11 11 9.5 17.5t-14.5 13.5q-17 8 -34 14.5t-34 14.5q-8 4 -16.5 7t-15.5 8q-11 7 -15 17t1 19q5 11 16 15t23 -2q27 -14 53.5 -28t52.5 -30z" />
    <glyph glyph-name="question" unicode="?" horiz-adv-x="572" 
d="M108 257q-4 3 -6 9.5t0 11.5q3 15 17 35t31.5 40t35.5 37.5t29 26.5q39 33 78.5 64.5t79.5 63.5q35 29 69.5 60t61.5 69q8 11 15 23.5t12 26.5q8 20 2.5 35.5t-22.5 29.5q-18 14 -42 21t-50 7q-16 0 -35.5 -3.5t-36.5 -12t-29 -22t-13 -33.5q-3 -29 -27 -32
q-27 -3 -29 23q-3 40 23 69q23 23 51 34t60 15q8 2 14.5 1.5t14.5 -0.5q67 3 123 -38q26 -20 34 -47t-3 -57q-10 -28 -31.5 -56t-47.5 -54t-53.5 -49t-49.5 -41q-32 -24 -68.5 -52.5t-71.5 -60.5t-65.5 -66t-50.5 -70q-3 -5 -8 -9t-12 1zM19 90q-2 17 12 33.5t31 17.5
q12 0 22.5 -10t11.5 -25q-2 -3 -3.5 -8.5t-6.5 -8.5q-8 -7 -17.5 -11.5t-19.5 -8.5q-11 -4 -19.5 3t-10.5 18z" />
    <glyph glyph-name="at" unicode="@" horiz-adv-x="716" 
d="M618 509q17 -46 16 -94.5t-16.5 -93t-44 -82t-66.5 -62.5q-10 -6 -21 -10.5t-22 -6.5q-24 -4 -38 11.5t-6 38.5t20 45t23 45q6 12 12.5 23.5t13.5 22.5q2 4 3 9t3 14q-12 -7 -20 -11.5t-15 -9.5q-38 -26 -75.5 -53t-75.5 -53q-20 -14 -39.5 -25.5t-40.5 -22.5
q-11 -6 -24.5 -9t-24.5 10q-6 6 -6 12t3 12t7.5 11.5t7.5 11.5q2 3 4.5 5.5t4.5 5.5q47 45 93 90t94 90q10 10 24 15q9 4 18.5 3.5t17.5 -8.5q13 -14 7 -33q-2 -8 -5 -16t-8 -21q8 5 13.5 8t10.5 5q6 3 11.5 6.5t10.5 5.5q10 5 19.5 8t19.5 -7q9 -9 7 -18t-6 -18
q-5 -10 -9.5 -19.5t-9.5 -19.5q-12 -22 -24.5 -43t-23.5 -44q-5 -8 -7 -16.5t-4 -16.5q-2 -9 3.5 -13t13.5 -2q8 3 15.5 6t13.5 8q31 22 54.5 52.5t37.5 65t18.5 71.5t-2.5 73q-13 64 -58 90.5t-105 21.5q-56 -5 -102.5 -29t-87.5 -59q-102 -88 -154 -211q-25 -58 -26 -117
q-2 -55 29 -93t79 -52q37 -11 73.5 -14t74.5 4q12 2 24 2h25q0 -2 2 -10q-5 -2 -9.5 -5.5t-9.5 -4.5q-46 -8 -92 -9t-91 12q-79 23 -110.5 80t-15.5 138q9 48 29 91t48 84q35 52 78.5 95.5t98.5 77.5q47 28 96.5 39.5t103.5 2.5q41 -6 70 -28t44 -62zM237 232q17 9 41 24
t48.5 32t46 33.5t33.5 28.5q-8 5 -14.5 10t-13.5 10q-20 -14 -43 -34t-43.5 -40t-35.5 -37.5t-19 -26.5z" />
    <glyph glyph-name="A" unicode="A" horiz-adv-x="827" 
d="M7 167q-4 11 2 21t19 15q15 6 31 9q49 11 97 21.5t98 19.5q17 4 28 12t19 25q36 79 81 152t100 140q29 35 60 68t63 66q11 12 20 24.5t13 28.5q8 31 16.5 61.5t16.5 62.5q2 8 2.5 16t1.5 16q0 6 -0.5 12.5t-1.5 15.5q-8 -6 -13 -11t-11 -9q-9 -6 -17 -6q-10 0 -18 8
q-15 15 -5 32q11 19 30.5 35t43.5 16q17 0 27 -10.5t11 -30.5q1 -17 -2 -33.5t-7 -33.5q-5 -25 -12 -49.5t-14 -50.5q-2 -5 -3 -12t-4 -18q15 8 26 13.5t22 10.5q27 12 48 12q57 0 62 -79q2 -42 -6.5 -82t-21.5 -78q-17 -52 -36 -103t-37 -102q-4 -10 -8.5 -19.5t-3.5 -23.5
q10 -1 19.5 -1.5t18.5 -1.5q12 -2 20 -7q2 -1 3 -5t1 -7q-1 -2 -3.5 -4t-4.5 -2h-17t-18 2q-11 1 -18.5 1t-13 -3t-9.5 -9.5t-8 -16.5q-32 -74 -63 -147.5t-54 -150.5q-3 -8 -6 -15t-7 -15q-1 -2 -5 -2.5t-7 0.5q-2 0 -3.5 3t-0.5 5q2 8 3.5 15.5t4.5 15.5q25 63 50 125.5
t51 125.5q12 31 25 59q-12 7 -22.5 6t-21.5 -3q-41 -6 -80.5 -13t-80.5 -12q-16 -2 -24.5 -9.5t-15.5 -20.5q-30 -62 -60 -123t-61 -123q-9 -17 -18 -34.5t-19 -34.5q-7 -12 -16.5 -21t-25.5 -5q-17 4 -20 16.5t-5 25.5q-5 40 0.5 78.5t16.5 76.5q7 23 14.5 45.5t15.5 45.5
l4 14t5 16q-8 -1 -13 -1t-10 -2q-45 -14 -89.5 -28.5t-89.5 -29.5l-10 -4t-10 -3q-14 -4 -24 0.5t-15 15.5zM468 302q10 -3 11 -3q50 7 98.5 14t98.5 12q13 2 19.5 8t11.5 17q10 26 20.5 52.5t20.5 52.5q21 57 39.5 114.5t26.5 117.5q2 19 1.5 37.5t-5.5 36.5
q-5 19 -14.5 25.5t-29.5 4.5q-12 0 -24 -5l-30 -16t-29 -16q-22 -13 -31 -38q-35 -100 -79 -194.5t-92 -188.5q-3 -7 -6 -14.5t-7 -16.5zM609 683q-27 -19 -58 -51.5t-62.5 -72t-60.5 -82.5t-52.5 -83t-38.5 -72.5t-17 -51.5q52 6 104 21q7 2 12.5 8.5t8.5 13.5
q24 51 48 101.5t47 101.5q18 42 35 83.5t34 83.5zM234 2q-2 -18 -1.5 -37t13.5 -39q8 11 14 20t11 18q38 72 73.5 144t72.5 147q-26 -1 -48 -7t-43 -10q-17 -2 -27 -11.5t-15 -25.5q-18 -49 -31.5 -98.5t-18.5 -100.5z" />
    <glyph glyph-name="B" unicode="B" horiz-adv-x="744" 
d="M31 328q-14 3 -21 17t1 28q7 13 15 24.5t19 20.5q38 35 77 68.5t80 65.5q29 23 60.5 43.5t62.5 40.5q15 10 25.5 21.5t15.5 29.5q5 20 12.5 39t12.5 39q5 17 8.5 34.5t6.5 34.5q7 35 33 35q11 -1 17.5 -6t5.5 -16q0 -9 -2.5 -18.5t-5.5 -18.5q-11 -29 -23.5 -58
t-26.5 -64q13 6 21.5 9.5t16.5 7.5q61 32 124 58t129 44q9 2 17.5 4.5t17.5 3.5q11 1 21.5 0.5t20.5 -2.5q19 -5 27 -18t1 -30q-11 -30 -33.5 -62t-50 -62t-56.5 -57t-53 -48q-74 -63 -147.5 -125.5t-148.5 -125.5q-8 -7 -16.5 -16t-21.5 -20q32 0 62 1t62 7q12 2 24 3t24 1
q11 0 22 -1t22 -4q11 -2 20.5 1.5t19.5 8.5q30 18 57.5 32t55 25.5t57 20.5t63.5 15q8 2 15.5 0t15.5 -4q2 -1 4 -4t4 -5l-5 -5t-5 -3q-14 -2 -27 -1.5t-26 -1.5q-57 -10 -106.5 -33.5t-100.5 -54.5q23 -19 29.5 -41t-0.5 -48q-8 -24 -26.5 -50t-42 -50t-48.5 -44.5
t-45 -34.5q-20 -15 -37.5 -26t-35 -20t-36.5 -15.5t-43 -12.5q-8 -2 -16 -1t-16 3q-17 4 -24.5 12t-4.5 25q4 21 1 40.5t-6 39.5q-4 27 0 53.5t9 52.5q11 59 28 115.5t37 113.5q18 54 36.5 107.5t37.5 107.5q2 7 3 13.5t3 13.5l-7 4q-23 -17 -47 -33.5t-46 -36.5
q-35 -30 -68.5 -62t-66.5 -64q-11 -11 -19.5 -24t-10.5 -31q-2 -17 -12.5 -23.5t-25.5 -2.5zM249 262q1 0 5 -2q14 13 27.5 26t27.5 25q52 43 104.5 85t103.5 86q57 48 110.5 98.5t100.5 108.5q25 32 43 69q8 17 2 25t-26 6q-38 -5 -81 -18t-85.5 -30t-83 -37t-73.5 -38
q-22 -12 -34.5 -28t-20.5 -38q-17 -46 -34 -91.5t-34 -91.5q-14 -38 -26.5 -77t-25.5 -78zM208 -52q-1 -13 5.5 -16.5t14.5 -4.5q20 -2 37.5 2.5t34.5 12.5q49 23 91.5 54t80.5 69q17 17 30.5 37t27.5 40q15 20 12 47q-2 17 -11.5 26.5t-23.5 9.5q-15 0 -47 -21.5t-67 -50
t-66 -55.5t-43 -39q-12 -13 -23.5 -26.5t-22.5 -27.5q-20 -25 -7 -30q10 -4 14.5 2.5t9.5 12.5q4 4 7 7.5t8 8.5q9 -10 8 -18t-5 -16q-5 -11 -12.5 -15.5t-16.5 -6t-18 -1.5t-18 -1zM222 166q-7 -32 -13 -64t-4 -65q1 -6 2.5 -12t4.5 -17q57 68 121 120.5t133 103.5
q-23 4 -50 4q-26 0 -49 -4q-17 -2 -35 -5t-35 -5q-16 -2 -30 2t-22 27q-7 -25 -12.5 -45t-10.5 -40z" />
    <glyph glyph-name="C" unicode="C" horiz-adv-x="749" 
d="M735 272l11 11t21 2q-8 -10 -13 -17.5t-11 -13.5q-57 -62 -119 -117t-133 -102q-75 -49 -158 -80q-80 -30 -164 -18q-39 5 -66.5 26.5t-41.5 60.5q-10 27 -12.5 55t1.5 57q8 65 25.5 127t43.5 122q37 88 84.5 170t108.5 157q38 46 80 87.5t93 74.5q20 13 40.5 22.5
t43.5 15.5q36 10 65.5 -4.5t43.5 -49.5q8 -24 10 -52q4 -60 -10.5 -115t-42.5 -107q-35 -68 -77 -130t-85 -125q-11 -14 -27 -22q-8 -4 -15.5 -1t-12.5 10q-12 14 -3 26q8 13 21 28q27 33 55 65t53 67q36 48 64.5 100t40.5 112q4 19 6 38t4 39q1 5 0.5 10.5t-1.5 10.5
q-6 50 -35 67t-76 -3q-41 -18 -79 -46q-66 -48 -118 -108t-96 -128q-51 -76 -90 -157t-66 -169q-11 -39 -18.5 -78t-9.5 -79q-1 -17 1.5 -33.5t7.5 -33.5q11 -41 40.5 -63.5t74.5 -24.5q47 -3 90.5 8t85.5 29q66 29 124 68.5t112 87.5q34 30 65.5 61t63.5 62z" />
    <glyph glyph-name="D" unicode="D" horiz-adv-x="965" 
d="M973 841q35 -5 58 -20.5t35 -36.5t15.5 -45.5t-0.5 -47.5q-7 -45 -24.5 -85.5t-41.5 -78.5q-46 -74 -101.5 -139t-121.5 -123q-47 -41 -94.5 -81t-95.5 -79q-23 -17 -46.5 -33t-47.5 -30q-17 -10 -35.5 -17t-36.5 -14q-11 -4 -18 0.5t-9 16.5q-6 -9 -11.5 -17.5
t-10.5 -17.5q-11 -20 -23.5 -38t-30.5 -32q-8 -8 -17.5 -12t-20.5 2q-11 5 -15.5 15t-3.5 21q2 16 3.5 31.5t6.5 30.5q27 93 57 183q32 93 63 184t62 183q2 6 3.5 12t3.5 12q4 16 0.5 20.5t-18.5 8.5q-22 6 -43 3.5t-41 -7.5q-54 -13 -103.5 -34t-97.5 -47
q-35 -19 -68.5 -38.5t-67.5 -38.5q-8 -5 -17 -8.5t-21 6.5q5 5 8 9.5t8 7.5q115 68 230 131.5t238 114.5q18 8 28.5 19.5t14.5 31.5q10 47 22 93t23 93q3 13 2 24.5t-9 22.5q-18 25 8 42q13 8 26 6.5t21 -13.5q15 -19 7 -43q-8 -30 -17 -60l-18 -60q-8 -23 -15 -47l-14 -48
q-2 -5 -2 -11.5t-1 -14.5q9 2 15 4l12 4q66 24 131 46t134 34q30 5 60.5 7.5t62.5 -2.5zM441 632q11 1 21 -1.5t21 -4.5q11 18 15.5 37.5t8.5 42.5q-8 -2 -13 -3.5t-10 -3.5l-153 -72q-5 -2 -8 -6t-7 -8q-2 -1 -2.5 -1.5t-2.5 -1.5q4 2 5 3q12 2 24 4.5t24 4.5
q20 3 38.5 5.5t38.5 4.5zM344 -37q11 19 23 38t21 39q47 104 72 213t41 221q3 20 3 40t-4 44q-7 -13 -8 -19q-35 -99 -70.5 -197t-69.5 -198q-14 -39 -25 -79l-22 -80q-4 -12 -5 -24t7 -25q24 6 37 27zM1063 684q12 61 -17.5 99.5t-92.5 43.5q-4 0 -7.5 0.5t-6.5 0.5
q-27 -3 -53.5 -4.5t-52.5 -6.5q-68 -13 -132.5 -35t-128.5 -46q-27 -10 -34 -38q-5 -18 -9.5 -36t-10.5 -35q-5 -14 -5 -28t2 -28q2 -18 4 -37t0 -37q-3 -32 -8 -63t-11 -63q-16 -82 -36 -161.5t-50 -157.5q-2 -5 -2.5 -11t-2.5 -12q22 8 43.5 15t41.5 18q21 10 40 22.5
t39 25.5q54 37 103.5 78t98.5 85q63 58 118.5 120.5t101.5 134.5q23 36 41.5 74.5t26.5 81.5z" />
    <glyph glyph-name="E" unicode="E" horiz-adv-x="943" 
d="M9 193q-5 8 -5.5 20t7.5 20q12 13 26 19q29 11 57.5 22.5t58.5 20.5q48 14 96 26l96 24q17 4 26.5 12t15.5 25q27 79 64 152.5t79 145.5q2 4 3.5 8t3.5 8q0 1 -0.5 1.5t-0.5 1.5l-2 2q-49 -8 -92 -27t-80 -51l-4 -4l-4 -4q-12 -12 -27 -12q-10 0 -17 6q-8 8 -7.5 22.5
t9.5 23.5q20 18 41 28q37 20 76.5 32.5t81.5 21.5q24 5 37.5 8.5t23 9.5t17.5 17t20 32q14 23 26.5 46t26.5 46q6 10 13.5 19t16.5 16q8 5 14 5q10 0 17 -8t8 -21q0 -15 -8 -25t-17 -20q-20 -23 -39.5 -45.5t-39.5 -45.5q-1 -2 -0.5 -4t-0.5 -5l8 -2t8 -1q49 5 97.5 10.5
t97.5 7.5q32 2 65 -1t66 -5q8 -1 15 -4t8 -14q1 -13 -29 -10q-24 2 -48 3t-48 1q-52 0 -103 -6q-33 -5 -66.5 -8.5t-67.5 -8.5q-20 -2 -35.5 -11t-26.5 -29q-43 -71 -81 -143.5t-69 -150.5q-2 -5 -3 -8.5t-2 -7.5q6 -8 12.5 -7t13.5 3q171 46 342 96q13 4 23 4q12 0 13 -10
q2 -8 -3.5 -13t-22.5 -10q-52 -16 -103.5 -31t-104.5 -30q-43 -13 -85 -25.5t-85 -24.5q-18 -6 -25 -23q-13 -40 -21 -80.5t-10 -82.5q-1 -18 2.5 -37t9.5 -36q10 -27 30 -40.5t49 -16.5q52 -4 105 16q91 35 161 93.5t124 138.5q6 9 10 18.5t0 21.5q-1 2 3 7t6 5q4 0 8.5 -3
t5.5 -5q2 -8 2 -16t-2 -15q-3 -10 -8 -18.5t-10 -16.5q-58 -79 -130 -138t-165 -94q-24 -9 -49 -14.5t-51 -4.5q-54 2 -86.5 32.5t-37.5 83.5q-4 44 1.5 85.5t17.5 83.5q2 8 4.5 17t5.5 20h-12t-10 -2q-52 -16 -103.5 -31.5t-102.5 -33.5q-20 -7 -38 -18.5t-37 -22.5
q-3 -2 -5.5 -4t-5.5 -4q-11 -6 -21 -6t-18 8z" />
    <glyph glyph-name="F" unicode="F" horiz-adv-x="695" 
d="M46 425q-11 2 -14.5 10t4.5 16q11 11 29 21q89 44 178.5 83.5t184.5 68.5q25 8 30 31q11 50 24.5 98.5t18.5 99.5q0 4 2 10q4 12 16 18t24 1q26 -8 16 -37q-18 -48 -35 -96.5t-33 -97.5q8 0 13 -0.5t10 0.5q57 14 113.5 28.5t113.5 28.5q35 8 71.5 13t72.5 3q17 -1 35 -4
t33.5 -10t26.5 -19t16 -31q1 -4 -1.5 -8.5t-4.5 -9.5q-3 3 -7 5t-5 6q-7 23 -22.5 34t-37.5 13q-19 2 -37.5 4t-36.5 0q-88 -8 -171.5 -28.5t-168.5 -46.5q-13 -4 -19 -12.5t-9 -20.5q-15 -53 -30.5 -105.5t-31.5 -105.5q-5 -14 -9 -29t-8 -29q-2 -10 -4 -27q12 2 21.5 4.5
t18.5 4.5q42 8 82 15.5t82 15.5q11 2 23 1.5t23 -0.5q7 0 12.5 -3t4.5 -11q-1 -6 -6.5 -9.5t-13 -5.5t-14.5 -3t-11 -1q-54 -5 -105.5 -15.5t-102.5 -26.5q-18 -6 -20.5 -10.5t4.5 -21.5q37 -96 36 -198q-2 -42 -9 -83t-27 -79q-4 -9 -10.5 -19t-14.5 -18.5t-18 -14.5
t-21 -6q-15 0 -24 8t-14 20t-7 25.5t-3 24.5q-3 43 3.5 85t16.5 84q10 40 19.5 79t20.5 79q1 5 1.5 9t2.5 12q-8 -2 -14.5 -3.5t-11.5 -3.5q-66 -32 -131 -64q-7 -4 -12.5 -9.5t-12.5 -10.5q-9 -8 -23 -8q-12 0 -18 7q-9 10 -8.5 22t11.5 23q7 5 14.5 9.5t15.5 8.5
q42 16 82 31t81 31q7 2 13.5 5t14.5 6q-32 61 -77.5 98.5t-114.5 43.5q-22 2 -44 0.5t-45 -2.5q-10 -2 -17 -1zM437 607q-89 -28 -174 -65t-173 -83q9 -2 14 -3t9 -2q19 -2 37.5 -4t36.5 -6q49 -11 86 -39.5t65 -70.5q5 -7 10.5 -14t11.5 -15q7 17 15.5 44t17.5 58.5
t17.5 64.5t14.5 60.5t9.5 48t2.5 26.5zM303 -62q-5 -40 5 -74q7 -21 22 -21q9 0 17 8t14.5 18.5t11.5 21.5t7 17q29 75 27.5 150.5t-27.5 151.5q-2 4 -4.5 8t-6.5 12q-21 -72 -39.5 -144.5t-26.5 -147.5z" />
    <glyph glyph-name="G" unicode="G" horiz-adv-x="717" 
d="M543 400q8 -5 8 -13t-3 -16q-5 -14 -11.5 -28t-12.5 -28q-17 -39 -33.5 -78t-32.5 -79q-35 -87 -47 -178q-5 -35 -2 -69t23 -65q2 -3 2 -6.5t2 -8.5q-14 -5 -20.5 0t-11.5 13q-11 19 -16 39.5t-6 42.5q-2 42 5.5 83t21.5 81q16 47 34 93t35 93q2 6 4.5 12t6.5 16
q-13 -7 -19 -14.5t-12 -14.5q-31 -35 -61.5 -71t-63.5 -70q-51 -54 -118 -84q-21 -9 -42 -13.5t-44 -2.5q-38 3 -65 26.5t-38 58.5q-8 26 -5.5 51t8.5 51q12 49 33.5 93.5t45.5 88.5q47 83 101 159.5t115 148.5q32 37 64 72t74 61q5 4 10 7.5t10 6.5q22 13 45 16t43.5 -5.5
t36 -28.5t21.5 -53q4 -20 3 -40.5t-2 -40.5q-1 -14 -10.5 -23t-21.5 -7q-24 2 -24 34l2 16t3 16q4 16 2 31.5t-8 30.5q-8 20 -22.5 27t-34.5 -1q-10 -4 -20 -8.5t-18 -11.5q-23 -18 -45.5 -36.5t-42.5 -39.5q-75 -81 -140 -168t-120 -183q-23 -42 -42.5 -84t-30.5 -89
q-5 -20 -7 -40t3 -41q8 -31 30.5 -49t54.5 -20q20 -1 38.5 3.5t36.5 12.5q29 14 54 32t48 39q37 35 69.5 72t62.5 78q14 20 29 39.5t30 39.5q3 4 5.5 7.5t5.5 6.5q5 7 12 11t15 -1zM735 433q7 -5 4.5 -12.5t-10.5 -8.5q-22 -3 -39 1q-38 8 -75 7t-74 -4q-42 -2 -82.5 -8
t-82.5 -12q-15 -2 -29 -7t-25 -18q-11 -12 -24.5 -11t-21.5 12q-9 13 -7 27.5t16 22.5q24 13 50 16q60 5 119 9.5t120 9.5q33 -3 66 -5.5t67 -6.5q8 -1 15 -4t13 -8z" />
    <glyph glyph-name="H" unicode="H" horiz-adv-x="881" 
d="M915 447q7 -3 15.5 -6t6.5 -12q-2 -11 -11 -9t-16 5q-36 13 -72 10t-72 -8q-28 -3 -54.5 -9.5t-53.5 -11.5q-15 -3 -24.5 -10t-14.5 -24q-27 -95 -55 -188.5t-55 -187.5q-13 -45 -10 -95q2 -20 1.5 -40.5t-1.5 -40.5q0 -8 -1.5 -14.5t-3.5 -13.5q-2 -8 -7.5 -14t-15.5 -5
q-19 3 -19 23v28t2 28q3 21 7.5 42t8.5 42q2 10 2 20t-2 19q-17 78 -49.5 149t-89.5 130q-20 21 -33 30.5t-25.5 11t-28.5 -3.5t-43 -12q-11 -4 -15 -13t-6 -18q-10 -35 -19.5 -70t-17.5 -71q-10 -42 -17.5 -84.5t-3.5 -87.5q1 -4 -1.5 -8t-4.5 -10q-22 6 -20 26
q0 18 -0.5 36t2.5 35q12 56 25 111t25 111q2 6 3.5 12.5t3.5 14.5q-7 0 -13 0.5t-12 -0.5q-25 -5 -49 -9.5t-49 -7.5q-9 -2 -19 0.5t-19 5.5q-9 4 -11 13t5 16q6 7 13 12t15 10q66 34 136 38q20 1 25 4.5t10 21.5q31 106 62 211.5t61 211.5q5 19 7.5 38.5t5.5 38.5v7
q2 14 11 22t20 7q11 -2 21 -12.5t9 -22.5q0 -8 -3 -14q-42 -98 -73 -198.5t-65 -201.5q-9 -26 -17.5 -53.5t-17.5 -56.5q25 -11 48 -17.5t51 1.5q69 20 136.5 39t136.5 38q24 7 31 31q36 128 72.5 254.5t62.5 257.5q2 12 2 24.5t2 24.5q2 9 4.5 18.5t6.5 17.5q5 9 13.5 12
t17.5 0q20 -8 19 -27q0 -5 -0.5 -10.5t-2.5 -10.5q-20 -39 -29 -80.5t-21 -82.5q-29 -96 -57 -190.5t-57 -191.5l-4 -14t-4 -15q42 8 80 15t76 13q28 5 56 5.5t57 -7.5q2 -1 5 -1t5 -2zM152 290q11 3 14.5 11.5t2.5 21.5q-43 2 -79.5 -10.5t-69.5 -37.5q35 -7 67.5 0.5
t64.5 14.5zM201 304q8 2 16 3t21 3q-11 6 -17.5 8.5t-10 2t-5 -4.5zM591 378v3q-2 2 -5 6q-71 -18 -141.5 -38.5t-145.5 -42.5q37 -29 65 -62.5t49.5 -70.5t38 -77t31.5 -80q3 3 5 4t3 3q25 89 50 177t50 178z" />
    <glyph glyph-name="I" unicode="I" horiz-adv-x="655" 
d="M782 846q52 -16 33 -66q-7 -16 -15 -29q-10 -14 -20 -26.5t-21 -26.5q-4 -5 -9 -9t-12 1t-4.5 10.5t6.5 10.5q7 8 14 16.5t13 17.5q12 17 20 37q7 16 3 23.5t-21 12.5q-6 2 -12.5 3t-12.5 0q-25 -2 -49.5 -3.5t-49.5 -3.5q-19 -2 -20 -20q0 -14 -7 -31q-38 -80 -76 -159
t-76 -159q-41 -87 -80.5 -174t-70.5 -178q-3 -9 -7 -18.5t0 -23.5q6 9 10.5 15.5t9.5 14.5q3 -2 6 -2.5t5 -2.5q5 -9 12 -9.5t16 1.5q21 6 42.5 11.5t43.5 10.5q11 2 22.5 2.5t23.5 2.5h7t6 -2q5 -2 7.5 -6t6.5 -8q-4 -3 -7.5 -7t-7.5 -5q-26 -5 -50.5 -10t-50.5 -10
q-8 -2 -16.5 -5t-17.5 -5q-22 -5 -38.5 -16.5t-22.5 -35.5q-2 -5 -4.5 -8.5t-4.5 -6.5q-22 -24 -42 2q-11 14 -15.5 16t-20.5 -3q-27 -8 -53.5 -15t-53.5 -13q-21 -5 -42 -4.5t-42 8.5q-33 13 -30 43q1 6 4 13.5t8 9.5q6 3 14 2t16 -3q4 -1 6 -5.5t6 -6.5q7 -4 14 -7.5
t15 -4.5q43 -4 83 5.5t80 23.5q5 2 10 8.5t7 13.5q40 126 95.5 246.5t106.5 242.5q23 52 44 104.5t42 106.5q4 10 6.5 20l5.5 22q-14 4 -24.5 1t-21.5 -5q-45 -11 -89.5 -23.5t-89.5 -24.5q-11 -2 -21 -4.5t-21 -2.5q-13 -1 -21 5.5t-10 16.5q-3 20 22 29q9 4 17 5
q75 5 147.5 20.5t146.5 25.5q35 5 70.5 7.5t71.5 4.5q8 0 17.5 -1t17.5 -3z" />
    <glyph glyph-name="J" unicode="J" horiz-adv-x="802" 
d="M795 399q3 -1 6 -5.5t3 -8.5q0 -2 -4 -4.5t-8 -4.5q-3 -2 -10 0q-30 8 -58.5 2t-57.5 -11q-21 -4 -33 -24q-38 -66 -83.5 -124.5t-97.5 -113.5q-50 -52 -101.5 -101.5t-104.5 -99.5q-11 -11 -25 -19.5t-28 -15.5q-28 -14 -48 -4t-26 41q-5 30 3 59q9 42 30 76.5t49 65.5
q79 88 174 151t204 108q6 2 11.5 4t11.5 4q29 9 36 37q6 24 14 47.5t10 48.5q2 19 -2 37.5t-15 33.5t-29.5 24t-45.5 9q-29 -1 -56.5 -7t-54.5 -15q-158 -50 -280 -157q-24 -21 -45 -45t-31 -56q-5 -14 -16.5 -19.5t-22.5 -0.5q-10 5 -15 17t0 23t12 22.5t16 21.5
q32 36 69.5 65.5t79.5 55.5q61 38 125.5 68t136.5 47q21 5 43 8.5t44 3.5q53 0 83 -30t34 -83q2 -29 -5 -55.5t-15 -52.5q-2 -5 -4 -11.5t-4 -14.5q23 2 43 5t40 4q12 0 24 -2zM567 282q9 14 18.5 28t14.5 33h-12q-109 -44 -203.5 -108t-172.5 -153q-36 -42 -57 -93
q-14 -34 -13 -66q5 -50 48 -28q16 8 31.5 19t29.5 23q90 77 168.5 163t147.5 182z" />
    <glyph glyph-name="K" unicode="K" horiz-adv-x="858" 
d="M1073 756q22 2 35.5 -9t13.5 -29q0 -9 -4.5 -17t-11.5 -12.5t-15 -4t-16 7.5q-11 11 -23.5 11t-26.5 -2q-60 -11 -117.5 -27.5t-114.5 -36.5q-79 -29 -157 -58.5t-156 -59.5q-29 -11 -57 -24t-57 -26q-8 -5 -16 -11t-13 -14q-35 -60 -68.5 -118.5t-67.5 -118.5
q-2 -2 -2 -5.5t-2 -8.5q21 -3 40 -5.5t37 -3.5q149 -5 296 -6q35 -1 69 1t69 3q8 0 17 0.5t17 -10.5l-6 -6t-6 -4q-18 -5 -32 -5q-97 0 -192 -0.5t-192 0.5q-29 0 -57 2.5t-57 5.5q-20 3 -28 -13q-22 -44 -41.5 -87t-32.5 -90q-3 -8 -3 -17.5t-2 -17.5q-1 -4 -5.5 -7
t-8.5 -6q-3 4 -6.5 7t-3.5 6q0 26 4 46q8 38 23.5 72.5t32.5 69.5q5 9 9.5 19t9.5 21q-16 6 -25 9q-15 4 -30 7t-29 8q-18 6 -34 19t-19 29t9 33q24 33 56 59q41 33 85 59.5t89 50.5q28 15 41.5 21.5t21.5 14t15 21.5t24 45q25 48 48 97t46 99q5 11 8.5 23t8.5 23
q3 9 8 15.5t16 8.5q20 3 31 -12q7 -9 5.5 -18.5t-6.5 -18.5q-14 -23 -27.5 -46t-26.5 -46q-20 -35 -39.5 -69.5t-39.5 -69.5q-3 -5 -5 -10t-7 -14q9 3 15 4.5t11 3.5q76 31 151 62.5t152 60.5q78 29 156.5 55t156.5 52q28 9 59 12zM247 348q9 18 18.5 36.5t20.5 40.5
q-8 -2 -10.5 -1.5t-4.5 -0.5q-49 -25 -95 -53t-88 -63q-11 -9 -20.5 -19t-18.5 -21q-18 -22 5 -39q11 -8 22 -11q14 -4 27.5 -7.5t27.5 -6.5q12 -3 18.5 -3.5t11 1.5t8 7.5t9.5 15.5q17 32 34.5 62.5t34.5 61.5z" />
    <glyph glyph-name="L" unicode="L" horiz-adv-x="626" 
d="M633 297q2 1 7 2.5t6 -2.5q3 -4 -2 -9l-9 -9l-70 -70t-73 -69q-86 -77 -185 -137q-29 -18 -60 -34t-65 -24q-18 -5 -36.5 -8.5t-37.5 -3.5q-46 1 -70.5 25.5t-23.5 70.5q0 42 11 84q14 57 36.5 110t46.5 105q111 233 238 458q13 21 23 43.5t21 45.5q5 8 9 15.5t9 15.5
q5 7 13 9t16 -3q5 -4 10 -11t4 -11q-4 -12 -6 -25.5t-6 -25.5t-12 -22t-23 -17q-8 -5 -16 -13t-13 -17q-45 -80 -89.5 -159t-89.5 -160q-35 -64 -65.5 -128.5t-56.5 -132.5q-14 -35 -24.5 -70.5t-12.5 -73.5q-1 -12 0 -24.5t5 -24.5q4 -15 15 -24.5t27 -14.5
q23 -8 45.5 -4.5t45.5 9.5q35 9 67.5 25t64.5 35q85 52 159.5 115.5t143.5 135.5q6 6 12 11.5t11 11.5z" />
    <glyph glyph-name="M" unicode="M" horiz-adv-x="1068" 
d="M994 697q2 -16 2 -32t-4 -31q-14 -56 -29 -110.5t-30 -109.5q-14 -50 -26 -99.5t-20 -101.5q-11 -63 4 -123q2 -8 4 -15.5t-8 -12.5q-6 -4 -12 2t-8 21q-4 23 -6.5 45.5t-0.5 45.5q2 43 10 85t19.5 83t24 82t23.5 82q20 74 36 145q2 9 3 15.5t0 11.5t-4 11t-8 15
q-8 -6 -15.5 -11.5t-15.5 -11.5q-65 -57 -111 -133q-41 -66 -80 -132.5t-78 -133.5q-35 -60 -68 -121t-75 -117q-11 -13 -22.5 -25.5t-22.5 -24.5q-11 -11 -23 -17q-22 -12 -37.5 -3.5t-16.5 33.5q-1 15 -0.5 30t5.5 29q17 59 35.5 116t37.5 115q24 75 49 148.5t40 151.5
q2 13 3 26t1 26q0 30 -28 17q-9 -5 -18.5 -10t-17.5 -11q-39 -32 -77.5 -63.5t-76.5 -63.5q-22 -18 -42.5 -37.5t-42.5 -38.5q-25 -23 -37.5 -52t-17.5 -61q-15 -105 -43.5 -204.5t-76.5 -195.5q-12 -23 -26 -42q-10 -12 -23 -15q-11 -4 -19 1.5t-9 16.5q0 11 0.5 21.5
t3.5 20.5q14 42 28 83t31 81q23 59 48 116.5t50 116.5q2 5 3.5 11t3.5 12q-11 3 -17.5 -2t-12.5 -10q-7 -5 -13.5 -10.5t-14.5 -10.5q-20 -13 -29 1q-4 8 -0.5 14t8.5 11q21 16 41 29q8 5 15.5 9.5t14.5 9.5q20 15 34.5 33t22.5 42q18 51 34.5 101t27.5 103q3 17 5.5 33.5
t4.5 33.5q-5 3 -9.5 6t-9.5 5q-11 4 -14 13t-1 19q2 12 13 22t25 12q11 2 21.5 -4t15.5 -18q3 -8 5 -18t0 -19q-5 -28 -11 -56t-14 -55q-11 -38 -24.5 -74.5t-26.5 -73.5q-1 -4 -2 -9l-3 -15q22 19 39.5 34.5t35.5 30.5l70 60t71 59q22 18 48 30q29 14 46 3t16 -43
q0 -34 -11 -70q-18 -63 -37.5 -124t-39.5 -124q-18 -56 -36.5 -111t-35.5 -112q-5 -16 -8.5 -32t-6.5 -33q-3 -15 -1 -32q2 -13 9.5 -17t18.5 3q7 5 13 10.5t12 10.5q32 29 55 64.5t45 72.5q43 72 84 145t83 145q36 62 74.5 121t86.5 113q10 11 21 21.5t24 18.5
q18 12 32.5 5t16.5 -28zM46 -87q18 20 38.5 59.5t39 87t32 97t18.5 89.5q-9 -12 -22 -38t-27 -59t-28 -69.5t-25.5 -69.5t-18.5 -59t-7 -38z" />
    <glyph glyph-name="N" unicode="N" horiz-adv-x="837" 
d="M817 894q1 -7 0 -14l-2 -14q-16 -88 -31.5 -175t-31.5 -175q-17 -93 -40.5 -183.5t-59.5 -178.5q-14 -32 -30 -63t-39 -57q-9 -10 -19.5 -18.5t-21.5 -14.5q-44 -25 -78 11q-11 11 -20 22.5t-17 25.5q-19 35 -28 72.5t-14 76.5q-10 75 -9 150.5t3 151.5q1 39 4.5 78
t5.5 78q1 13 0.5 26.5t-0.5 30.5q-5 -5 -7 -6.5t-3 -3.5q-34 -69 -68.5 -138t-65.5 -140q-19 -42 -30.5 -86.5t-25.5 -89.5q-22 -71 -46 -140t-54 -137q-8 -17 -17 -33.5t-18 -32.5q-5 -10 -14 -16q-8 -6 -17 -3.5t-12 12.5q-2 8 -2.5 15.5t1.5 15.5q7 28 14 55.5t16 54.5
q24 75 55.5 145.5t64.5 142.5q29 66 59.5 131t59.5 132q23 53 43 106.5t42 107.5q5 11 10 21t12 20q7 9 15 8.5t12 -11.5t9 -17t15 -11q17 -10 17 -26.5t-19 -22.5q-18 -7 -21 -18.5t-4 -26.5q-4 -74 -7.5 -147t-8.5 -147q-5 -70 -0.5 -138.5t17.5 -137.5q5 -27 14 -53
t25 -49q5 -8 10 -15t11 -13q36 -36 76 -4q20 16 33.5 35.5t24.5 40.5q32 60 53.5 122.5t38.5 127.5q19 73 32.5 147t25.5 149q10 60 20 119t21 119q1 2 0.5 5t1.5 5q2 4 5.5 7t7.5 7q2 -5 4 -9t2 -9zM188 307q2 5 2 11.5v11.5q-6 -6 -8 -10q-18 -39 -36.5 -78.5t-35.5 -79.5
q-20 -46 -37 -92.5t-29 -95.5q-2 -8 -3.5 -15t4.5 -17q5 8 9 15.5t8 14.5q41 81 70 165t56 170zM193 333l1 2l-2 -2h1z" />
    <glyph glyph-name="O" unicode="O" horiz-adv-x="700" 
d="M591 765q25 -56 33.5 -113.5t2.5 -119.5q-6 -54 -20.5 -104t-36.5 -97t-49 -91.5t-58 -87.5q-26 -36 -56 -69t-62 -64q-35 -32 -74 -55.5t-84 -37.5q-26 -8 -52 -7.5t-49 11t-41.5 31.5t-27.5 54q-11 37 -9 73t8 72q14 81 42 156t62 149q14 30 31.5 63t37.5 65.5t43 61.5
t48 51q8 8 18 13.5t21 10.5q8 4 16.5 2t14.5 -11q11 -18 -5 -36l-9 -6q-37 -21 -67 -52t-55 -67.5t-46 -76t-39 -77.5q-26 -54 -45 -109t-33 -112q-8 -32 -11 -64.5t1 -65.5q2 -16 5.5 -31.5t10.5 -29.5q17 -32 48 -43.5t69 -1.5q75 18 132 68q97 84 167 185t112 224
q14 42 21 84.5t5 86.5q-2 48 -13 92t-34 86q-32 60 -86.5 83t-120.5 11q-51 -8 -93 -33q-2 -2 -5 -1.5t-5 -0.5q-1 2 -5 6q5 4 8.5 8.5t8.5 6.5q48 26 98 34t104 -9q45 -14 75 -44t48 -71z" />
    <glyph glyph-name="P" unicode="P" horiz-adv-x="638" 
d="M830 814q3 -10 3 -20.5t-2 -21.5q-4 -25 -14.5 -47.5t-24.5 -43.5q-23 -37 -50.5 -70.5t-57.5 -65.5q-64 -66 -131 -127.5t-137 -121.5q-28 -24 -55.5 -48t-55.5 -47q-11 -8 -22 -15.5t-22 -15.5q-2 -1 -6 0t-6 3t-3 6t1 6q7 12 18 21q37 31 74.5 61t73.5 62
q45 39 87 78.5t87 78.5q72 66 135 146q18 23 33 46.5t30 48.5q8 14 13 30.5t4 33.5q-2 16 -7.5 24.5t-20.5 12.5q-13 3 -26 5t-26 0q-22 -3 -44 -6.5t-43 -11.5q-45 -14 -88.5 -30.5t-88.5 -32.5q-18 -7 -30 -18t-22 -28q-29 -49 -50.5 -100t-44.5 -103q-36 -84 -72 -166.5
t-71 -166.5q-27 -66 -51.5 -131t-43.5 -133q-4 -15 -7.5 -29.5t-5.5 -29.5q-2 -20 -3 -39t7 -38q1 -3 -1 -8.5t-4 -6.5q-3 -1 -8 0.5t-7 3.5q-5 8 -8.5 17.5t-4.5 18.5q-3 26 1 51t11 51q17 66 39.5 129t48.5 126q43 105 85.5 208.5t84.5 209.5q11 27 21 54.5t20 55.5
q-2 1 -6 5q-26 -14 -48.5 -32t-45.5 -37q-14 -12 -27 -25.5t-26 -26.5q-49 -47 -76 -111q-2 -6 -6.5 -12.5t-10.5 -8.5q-6 -3 -14.5 -2.5t-14.5 4.5q-8 5 -11.5 13.5t1.5 17.5q6 13 12.5 25.5t15.5 23.5q54 64 116 117.5t135 95.5q12 7 21.5 15.5t16.5 20.5q7 14 18.5 19
t25.5 -1q11 -5 19.5 -2t17.5 6q46 17 91 32.5t90 30.5q64 21 130 14q23 -2 40 -13.5t24 -34.5z" />
    <glyph glyph-name="Q" unicode="Q" horiz-adv-x="585" 
d="M723 842q3 -2 5 -6t4 -7q-4 -2 -7.5 -5t-6.5 -2q-23 3 -45.5 7t-45.5 8q-8 2 -16.5 2.5t-20.5 2.5q17 -71 7 -135t-30 -126q-41 -127 -97.5 -244t-135.5 -225q-19 -26 -39 -49t-47 -40q-10 -6 -20.5 -11.5t-21.5 -8.5q-23 -7 -41.5 3t-27.5 32q-8 20 -8 41.5t5 42.5
q12 61 33.5 118t47.5 113q49 105 99 208.5t101 208.5q11 23 22 46.5t23 48.5q-8 2 -16 3.5t-16 4.5q-4 2 -7 6t-2 8q0 3 3.5 7t6.5 6q7 3 14 2q22 -3 44.5 -5t42.5 -10q34 -15 69.5 -21.5t71.5 -13.5q13 -2 26 -4.5t26 -5.5zM575 685q5 28 7 56t-3 57q-5 32 -19 43.5
t-48 11.5q-4 -13 -6 -25t-9 -20q-26 -29 -45.5 -61.5t-38.5 -65.5q-49 -85 -92.5 -170.5t-83.5 -174.5q-20 -47 -39 -93.5t-31 -96.5q-5 -20 -8.5 -41t-0.5 -43q4 -23 18 -32t36 1q14 6 26.5 14.5t23.5 19.5q21 22 41.5 45.5t38.5 48.5q39 54 71.5 112t60.5 119
q33 72 59.5 144.5t41.5 150.5zM616 -13q32 -17 43 -40.5t3 -58.5q-2 -10 -6 -19t-9 -17q-2 -3 -7.5 -4t-10.5 -3q-2 5 -4.5 9t-1.5 9q0 5 2.5 10t4.5 10q9 26 2.5 43.5t-29.5 31.5q-17 10 -36 14t-39 6q-56 4 -110.5 1t-109.5 -11q-45 -6 -88 -14.5t-85 -24.5
q-16 -5 -31.5 -11.5t-30.5 -13.5q-5 -2 -8.5 -3.5t-8.5 -3.5q-11 -4 -21.5 0t-15.5 12q-5 9 -2 20t14 17q20 12 43 17q33 8 66 15t66 12q62 10 123 17.5t124 9.5q29 -3 57 -5t56 -7q13 -2 25.5 -7t24.5 -11z" />
    <glyph glyph-name="R" unicode="R" horiz-adv-x="941" 
d="M38 588q-11 2 -19.5 13t-6.5 24q2 40 34 60q66 43 142.5 66.5t152.5 40.5q17 4 33 7.5t29 17.5q9 9 20 9q9 0 15 -5q8 -6 16.5 -6t17.5 2q53 9 105.5 16.5t106.5 6.5q18 0 36.5 -3.5t36.5 -8.5q31 -10 42 -33t0 -54q-10 -28 -27 -50t-36 -43q-55 -60 -116.5 -110.5
t-124.5 -99.5q-55 -42 -109.5 -83.5t-108.5 -83.5q-20 -16 -38.5 -33.5t-36.5 -36.5q-11 -12 -14 -21t1 -15t13 -9t21 -4q30 -2 61 -2.5t60 4.5q103 17 203 35.5t203 35.5q32 5 63 9t63 9h22q5 -1 10 -3t3 -9q-1 -4 -5 -8t-8 -5q-17 -3 -33.5 -4t-33.5 -4q-60 -10 -119 -20
t-119 -20q-66 -11 -130 -23.5t-129 -20.5q-17 -2 -33.5 -3.5t-33.5 -1.5q-25 0 -49 3.5t-50 14.5q-28 -67 -52.5 -133t-30.5 -142q24 16 33.5 35.5t19.5 38.5q9 19 14 39t16 38q2 0 3.5 -0.5t3.5 -0.5l2 -8t0 -7q-12 -31 -23.5 -62t-24.5 -61q-2 -5 -6.5 -11.5t-10.5 -12.5
t-12.5 -10t-12.5 -4q-17 0 -21 18q-2 11 -3.5 22.5t0.5 22.5q10 38 20 75.5t23 74.5q34 97 76 188.5t82 185.5q26 62 51 124t51 125q4 8 5.5 15.5t-6.5 14.5q-13 11 -13 23.5t5 26.5q-5 1 -8 2.5t-6 0.5q-14 -3 -39.5 -9.5t-56 -16t-62 -22t-57.5 -27t-42.5 -32t-16.5 -36.5
q-11 -28 -31 -26zM230 273l8 2t7 3l28 22l28 22q90 66 177 132t169 141q16 14 34.5 32.5t36 39.5t31.5 42.5t22 42.5q11 36 -26 47q-27 8 -52 8q-57 2 -113 -6t-113 -16q-13 -2 -19.5 -10.5t-11.5 -19.5q-44 -109 -90 -216.5t-97 -213.5q-6 -13 -10 -26t-9 -26zM229 272
q-1 0 -1 -0.5t-1 -0.5l-1 -2z" />
    <glyph glyph-name="S" unicode="S" horiz-adv-x="745" 
d="M53 290q-21 7 -28.5 22.5t0.5 35.5q8 22 23 35q24 22 47.5 43.5t49.5 39.5q149 104 306 198t327 161q25 11 52 11q18 1 29 -11t9 -30q-2 -14 -6 -27.5t-10 -26.5q-5 -12 -15 -16t-20 1q-20 6 -18 31q2 10 3 14q1 3 1 6.5t1 7.5q-12 2 -21 -1l-18 -6q-65 -22 -125.5 -51.5
t-120.5 -61.5q-84 -46 -164.5 -95.5t-158.5 -105.5q-32 -23 -61.5 -47.5t-59.5 -50.5q-13 -10 -20 -29q-2 -3 0 -9t5 -8q9 -4 18.5 -7t18.5 -2q30 1 60.5 2.5t59.5 6.5q66 10 130 21.5t130 22.5q26 5 52.5 6.5t53.5 1.5q13 0 26 -3.5t25 -8.5q17 -8 22.5 -23t0.5 -34
q-8 -26 -34 -56t-58 -58.5t-64.5 -53t-53.5 -39.5q-75 -53 -149 -104.5t-149 -103.5q-4 -3 -8.5 -6t-9.5 -3t-10 4q-13 12 8 30q7 5 14.5 10t14.5 10q55 36 109 71.5t108 72.5q26 18 63 44t73.5 56t68 61.5t46.5 60.5q20 35 -18 42q-20 4 -42 5t-42 -2q-78 -11 -154.5 -25
t-154.5 -26q-29 -5 -59.5 -6.5t-60.5 -3.5q-19 -1 -42 7z" />
    <glyph glyph-name="T" unicode="T" horiz-adv-x="697" 
d="M1069 661q1 -2 -1.5 -5.5t-4.5 -4.5q-9 -3 -17.5 -5.5t-17.5 -2.5q-63 -5 -124 -8.5t-124 -7.5q-38 -3 -76 -6.5t-76 -5.5q-14 -1 -20 -7.5t-9 -17.5q-23 -72 -41.5 -143.5t-26.5 -146.5q-5 -41 -4.5 -81.5t11.5 -80.5q8 -26 20 -49.5t34 -41.5q3 -2 6.5 -5.5t4.5 -7.5
q1 -2 -2 -7t-4 -5q-8 2 -15.5 5t-12.5 8q-28 23 -40.5 53t-19.5 64q-11 58 -5.5 113.5t15.5 112.5q2 8 2 16t1 16q-9 -20 -18 -39t-17 -39q-42 -100 -82.5 -198.5t-82.5 -198.5q-17 -39 -34.5 -78t-36.5 -77q-6 -13 -13 -25.5t-15 -23.5q-9 -13 -24 -20q-13 -6 -24.5 -0.5
t-14.5 19.5q-3 18 0.5 35t17.5 31q5 4 11 7.5t11 1.5q16 -6 23 2t12 19q17 32 33 64.5t32 65.5q72 152 133 306.5t122 310.5q6 13 9 27q1 2 -1 9l-10 2t-10 0q-49 -3 -97.5 -6t-97.5 -7q-62 -5 -123.5 -10t-123.5 -10q-9 -1 -17 -4.5t-16 -7.5q-34 -19 -56 8
q-14 17 -8.5 31.5t26.5 19.5q7 1 14 1h14h114t114 2q68 2 135 6t135 7q27 0 37 26t21 50.5t22 50.5q3 5 5.5 11t6.5 10q4 3 9.5 5t9.5 0q3 -2 5 -7.5t1 -10.5q0 -5 -3 -9.5t-5 -9.5q-9 -20 -17.5 -39t-17.5 -39l-4 -14t-4 -15q26 -5 50.5 -3t49.5 3q11 1 23 2t23 2
q69 5 138 9.5t138 9.5q4 1 8 1.5t6 -0.5q8 -5 11 -13z" />
    <glyph glyph-name="U" unicode="U" horiz-adv-x="704" 
d="M792 836q8 4 14.5 -1.5t4.5 -14.5t-5.5 -17t-7.5 -16q-32 -60 -63 -120t-61 -120q-35 -69 -65 -138.5t-54 -142.5q-19 -57 -31 -113.5t-14 -116.5q-2 -46 10 -89t42 -81q5 -5 10 -11t-1 -16q-8 -11 -29 12q-32 39 -46 91q-10 38 -10.5 76t4.5 76q11 86 38 166.5t62 158.5
q34 74 70.5 146t71.5 145q5 10 8 19.5t7 19.5q-18 -24 -37 -47t-36 -49q-60 -91 -120 -182.5t-120 -182.5q-42 -65 -85.5 -127t-92.5 -122q-24 -29 -49 -56.5t-55 -50.5q-14 -11 -29 -20t-32 -15q-30 -11 -54 4t-28 48q-4 32 0 62t12 61q26 94 59.5 184t72.5 180
q24 54 49 108t51 108q5 11 10 21t12 20q18 26 43 7q11 -7 12 -19.5t-8 -24.5t-19 -23t-18 -24q-35 -51 -61.5 -104.5t-50.5 -109.5q-27 -62 -51 -125t-47 -126q-12 -34 -20 -68.5t-15 -69.5q-3 -14 -2.5 -28t3.5 -28q6 -33 39 -25q12 3 23.5 8t20.5 13q26 23 52 46.5
t49 49.5q67 78 124.5 161.5t114.5 169.5q66 99 132 196.5t132 195.5q9 14 20 27l22 26q10 12 22 18zM751 753q1 1 1 2l-2 -2h1z" />
    <glyph glyph-name="V" unicode="V" horiz-adv-x="514" 
d="M562 954q4 -9 8 -14.5t3 -10.5q-3 -16 -7 -31.5t-9 -30.5q-20 -53 -40.5 -104.5t-40.5 -104.5q-19 -51 -34 -88.5t-29 -73t-29 -73.5t-34 -89q-17 -45 -32 -84t-31 -76t-34 -75t-40 -81q-14 -28 -29.5 -55t-32.5 -53q-8 -12 -18 -22t-21 -19q-17 -14 -33.5 -9t-22.5 25
q-9 30 -9 63q1 54 9 106.5t17 105.5q4 22 7 43.5t7 43.5q6 34 10.5 61.5t9 54t8.5 54t10 61.5q6 40 10.5 79.5t9.5 79.5q2 7 1.5 14t-0.5 15q-5 2 -9 3t-9 3q-22 6 -22 32q2 53 22 100l3 6q16 27 37 22q10 -2 16 -11.5t5 -25.5q-2 -42 -5 -82t-8 -81q-3 -29 -8.5 -58
t-10.5 -58q-11 -60 -22.5 -120t-21.5 -121q-6 -35 -10 -63t-8 -54.5t-7.5 -55t-9.5 -62.5q-5 -27 -7 -54.5t0 -54.5l2 -18t4 -17q8 -25 26 -8q19 15 37 38q28 38 48.5 79t40.5 83q23 51 42.5 95.5t37.5 88.5t35.5 89.5l37.5 97.5q18 49 33 85.5t28.5 70t28 70t32.5 85.5
l18 48t17 49q6 19 11 40t12 47z" />
    <glyph glyph-name="W" unicode="W" horiz-adv-x="829" 
d="M809 850q2 -20 2 -41t-3 -41q-13 -109 -37.5 -213.5t-59.5 -207.5q-26 -74 -56 -144.5t-74 -135.5q-16 -24 -33.5 -46t-41.5 -39l-18 -12q-40 -22 -75 -9.5t-52 55.5q-12 33 -15.5 67.5t-0.5 69.5q4 69 12 138q4 42 9 84.5t9 84.5q3 35 5.5 71t4.5 71q0 5 -1 10.5
t-2 11.5q-13 -5 -19 -15l-12 -20q-39 -65 -70.5 -133t-60.5 -139l-46 -108l-46 -108q-5 -13 -12.5 -25t-15.5 -24q-6 -11 -17 -17q-14 -9 -26 -5.5t-17 18.5q-5 14 -7.5 28t-0.5 28q5 51 14.5 100t21.5 99q20 77 39 153t38 154q6 24 10 48.5t7 49.5q1 10 -1.5 20.5
t-5.5 20.5q-3 9 -4 17t7 16q7 6 14.5 10t17.5 -1q10 -4 16.5 -11t5.5 -18q0 -14 -0.5 -28t-4.5 -28q-15 -60 -31.5 -118.5t-33.5 -118.5q-21 -78 -41.5 -155.5t-33.5 -158.5q-4 -22 -5 -44t4 -45q12 2 16.5 9t8.5 15q14 28 28 55t27 56q27 62 52 123.5t53 122.5
q20 44 42.5 86t45.5 84q10 19 28 36q11 11 22.5 7.5t15.5 -18.5q6 -26 5 -49q-8 -72 -16 -143t-16 -143q-6 -56 -9.5 -111.5t0.5 -112.5q3 -36 17 -68q14 -29 38.5 -36.5t53.5 8.5q23 12 40.5 29t32.5 37q42 56 71.5 117.5t54.5 125.5q37 95 62.5 192.5t42.5 197.5
q7 37 9.5 74t0.5 75v10.5t-2 10.5q-3 17 -9.5 22t-23.5 6q-3 1 -7 1t-12 1q18 17 34 17t25 -16q5 -8 8 -18t4 -19z" />
    <glyph glyph-name="X" unicode="X" horiz-adv-x="653" 
d="M771 772q12 -1 20.5 -8.5t9.5 -17.5q1 -8 -5 -16.5t-16 -12.5q-4 -2 -7 -3t-7 -1q-40 -5 -72.5 -24t-63.5 -42q-99 -76 -181 -166t-154 -190q-8 -11 -10.5 -20.5t2.5 -21.5q21 -50 47.5 -95.5t68.5 -82.5q25 -23 54 -38t62 -20q15 -2 31 -1t32 3q6 1 12 3.5t12 3.5
q4 0 7.5 -2t7.5 -3q-2 -5 -3 -9.5t-5 -7.5q-4 -4 -9 -5t-10 -3q-39 -12 -76 -6.5t-72 23.5q-48 23 -82 59.5t-60 81.5q-11 20 -21.5 40t-21.5 40q-16 -10 -39.5 -44t-55.5 -98q-20 -38 -37 -77l-34 -78q-17 -40 -25 -82t-10 -85q-11 -2 -14 3.5t-3 11.5q1 16 1.5 32t2.5 32
q13 74 42 141t65 132q20 35 40.5 68t41.5 66q12 19 5 43q-22 69 -35.5 139.5t-21.5 142.5l-33 264q-2 6 -2 12v12q0 34 27 36q12 1 19.5 -8t9.5 -25v-14q2 -60 2.5 -119t5.5 -119q5 -73 16.5 -144.5t31.5 -142.5q2 -5 3.5 -9t3.5 -11q6 5 10.5 9t7.5 9q56 77 117 148
t130 136q36 33 72.5 66t78.5 59q16 9 33 16.5t34 15.5q8 4 20 4z" />
    <glyph glyph-name="Y" unicode="Y" horiz-adv-x="761" 
d="M784 428q2 -11 -2.5 -13.5t-10.5 -4.5q-59 -16 -110 -45.5t-101 -63.5q-29 -20 -47 -52q-56 -94 -110.5 -187t-109.5 -187q-8 -14 -16.5 -26t-16.5 -25q-5 -6 -9 -11.5t-9 -10.5q-6 -6 -13 -9.5t-16 -0.5t-12 10.5t-2 15.5q0 22 4 38q10 44 27 83t40 77q83 136 203 238
q39 33 62 77q42 82 82 164.5t69 171.5q2 8 4.5 15.5t4.5 15.5q0 2 -1 3.5t-3 6.5q-8 -8 -15 -14t-14 -13q-37 -36 -68.5 -76.5t-63.5 -81.5q-51 -68 -102.5 -134.5t-108.5 -129.5q-31 -33 -64 -64t-71 -57q-20 -14 -41 -24t-46 -13q-27 -2 -44 11t-19 40q-3 31 4 59t18 56
q35 97 79 188.5t89 183.5q19 38 37 77l36 78q3 6 6.5 12t8.5 11q6 6 13.5 9t15.5 -1q9 -5 14 -12t3 -17q-2 -9 -4.5 -19t-9.5 -16q-19 -17 -32 -38t-25 -43q-54 -97 -103.5 -195t-88.5 -202q-9 -25 -15.5 -50.5t-14.5 -51.5q-1 -5 -1.5 -9t-0.5 -9q2 -20 13 -28.5t31 -2.5
q18 6 35.5 14.5t34.5 19.5q39 27 73 59t66 67q69 76 130 156t123 161q21 27 42.5 52t44.5 51q7 8 15.5 15t17.5 12q14 8 24 2t10 -22q0 -10 -2 -19.5t-5 -18.5q-19 -48 -37 -94.5t-39 -93.5q-16 -37 -34.5 -72.5t-36.5 -70.5q-2 -4 -3.5 -9t-4.5 -13q26 15 50.5 30.5
t49 29.5t50 25t53.5 17q5 1 10 0zM228 -172q9 9 28.5 37t43.5 65.5t50.5 81t50.5 84t42 74t26 51.5q-2 0 -3 0.5t-3 -1.5q-5 -5 -10.5 -9.5t-10.5 -9.5q-81 -80 -143 -176q-23 -37 -41 -75t-29 -80q-2 -11 -4 -21t3 -21z" />
    <glyph glyph-name="Z" unicode="Z" horiz-adv-x="868" 
d="M930 784q31 -9 20 -41q-7 -19 -19.5 -32t-26.5 -26q-52 -51 -108.5 -94.5t-114.5 -88.5q-113 -87 -225 -173.5t-224 -174.5q-35 -27 -68 -57t-65 -61q-14 -12 -25 -27t-23 -29q8 -12 17 -12.5t17 1.5q42 10 83 19.5t83 20.5q66 17 130 36t130 36q47 12 93.5 20.5
t95.5 6.5q8 -1 14.5 -1t13.5 -2q2 0 4 -3t2 -5q0 -6 -5 -8q-5 -3 -10 -3q-90 0 -175 -20.5t-170 -44.5q-54 -16 -107.5 -31.5t-107.5 -30.5q-24 -8 -48 -12t-50 -2t-34 16t6 36q23 34 51 59q55 47 109 92t110 89q121 95 240.5 187.5t239.5 186.5q30 23 57.5 50t55.5 53
q8 8 15 16.5t9 22.5q-18 7 -35.5 6t-34.5 -5q-53 -12 -105.5 -24.5t-105.5 -24.5q-85 -20 -167.5 -39.5t-167.5 -39.5q-12 -3 -24.5 -3.5t-25.5 -0.5q-16 1 -23.5 9t-7.5 22q0 12 9.5 20t24.5 9q4 0 7 -1q21 -9 41.5 -10.5t41 1t40.5 7.5l40 10q93 20 184 41t183 42
q23 5 45.5 9.5t45.5 7.5t45 -5z" />
    <glyph glyph-name="bracketleft" unicode="[" horiz-adv-x="429" 
d="M602 915q11 -5 15 -15t1 -20q-8 -23 -39 -15l-96 24q-3 1 -6.5 1t-8.5 1q-7 -11 -12 -25q-31 -78 -60.5 -155.5t-61.5 -155.5q-35 -85 -72.5 -168t-74.5 -168q-23 -51 -44.5 -102.5t-42.5 -103.5q-8 -20 -13.5 -41.5t2.5 -47.5q14 4 26 7.5t25 5.5q17 5 34.5 8t35.5 6
q6 2 11.5 -0.5t6.5 -10.5q2 -8 -3 -11.5t-11 -5.5q-30 -8 -60 -16.5t-60 -15.5q-41 -10 -44 35q-2 32 6.5 61.5t21.5 58.5q33 74 65.5 146.5t65.5 145.5q42 91 78.5 183t70.5 186q17 48 33.5 95.5t33.5 95.5q4 13 8.5 20.5t10 11.5t14 4.5t22.5 -0.5l42 -4l42 -4
q10 -2 19.5 -4t18.5 -7z" />
    <glyph glyph-name="bracketright" unicode="]" horiz-adv-x="452" 
d="M387 841q20 -1 28 -10t8 -29q-1 -8 -2 -15.5t-3 -15.5q-6 -22 -16 -40q-50 -92 -87 -188t-77 -193q-17 -42 -35.5 -81.5t-35.5 -81.5q-20 -51 -40 -101t-40 -101q-6 -15 -13 -30.5t-15 -30.5q-9 -15 -22.5 -26.5t-30 -18t-34.5 -7.5t-34 5q-7 2 -12.5 8t-10.5 12
q-2 2 -1 7.5t3 8.5t6.5 4.5t8.5 1.5q3 0 6.5 -2t6.5 -3q27 -9 50.5 -1t36.5 34q11 22 21 43.5t19 43.5q29 67 57 133t55 133q29 69 56 138.5t55 138.5q14 35 29.5 68.5t30.5 67.5q6 14 11.5 26.5t10.5 26.5q2 7 2.5 15t2.5 21q-17 -5 -30 -8t-26 -5q-8 -2 -17 -3t-18 -1
q-23 1 -24 21q-1 9 4 17t14 10q19 4 39 6q16 1 31.5 2t31.5 0z" />
    <glyph glyph-name="underscore" unicode="_" horiz-adv-x="560" 
d="M422 53q8 -6 9 -13q0 -2 -3 -5t-6 -4q-6 -3 -14 -3q-28 -2 -56 -3t-57 -3q-55 -5 -109.5 -9.5t-109.5 -9.5q-28 -2 -55 -4.5t-55 -4.5q-15 -1 -30 7q-8 4 -11.5 11.5t-0.5 15.5q5 14 19 19q8 2 16 2h16v-2q32 -1 65 -3t66 -1q53 2 104.5 5.5t104.5 5.5q23 1 46.5 1h46.5
h7t7 -2z" />
    <glyph glyph-name="a" unicode="a" horiz-adv-x="384" 
d="M-109 110q-1 10 0.5 21t6.5 19q11 22 23.5 42.5t26.5 39.5q9 12 27.5 33t40 41.5t44 36t38.5 15.5q21 0 32 -15q11 -18 21 -37t5 -43q-5 -20 -7 -41t-3 -42q-1 -14 1.5 -27t6.5 -26q8 -27 40 -25q14 0 25.5 6t20.5 15q23 21 44.5 43t41.5 45q17 19 31 39.5t29 40.5
q2 2 3.5 4t3.5 3q7 2 9 1q8 -6 8 -11q-2 -6 -3.5 -12t-5.5 -11q-33 -46 -69 -89t-81 -79q-15 -12 -31.5 -18t-36.5 -4q-30 1 -45 27q-24 39 -21 83q2 15 3.5 29.5t3.5 29.5q0 5 -0.5 10t-1.5 16q-39 -42 -78 -82.5t-81 -79.5q-8 -7 -17 -12t-18 -9q-14 -5 -24.5 1.5
t-12.5 21.5zM-66 145q-2 -4 -2.5 -8.5t-2.5 -11.5q18 10 44 32.5t52 48t46 49.5t26 37q-8 7 -14 4.5t-11 -6.5q-43 -29 -78.5 -64t-59.5 -81z" />
    <glyph glyph-name="b" unicode="b" horiz-adv-x="341" 
d="M470 877q21 -18 11 -42q-5 -15 -10.5 -30t-13.5 -29q-36 -65 -79 -124t-91 -116q-45 -53 -90.5 -103.5t-91.5 -101.5q-23 -24 -39 -51t-22 -59q-5 -24 -9.5 -47.5t-9.5 -46.5q-2 -14 -1 -26.5t12 -25.5q5 5 10 8.5t8 8.5q26 42 45 86t23 95q2 17 10 22.5t19 -4.5
q19 -17 38.5 -24.5t39.5 -8.5t41 3.5t42 10.5q8 2 15 4.5t15 4.5q7 2 13 -0.5t7 -10.5q0 -4 -3 -9t-7 -8q-5 -4 -10.5 -6.5t-11.5 -4.5q-43 -16 -86.5 -18.5t-88.5 16.5q-11 -29 -21 -55t-21 -51q-10 -25 -26 -51q-13 -20 -28 -32q-17 -14 -34.5 -8.5t-25.5 26.5
q-3 8 -3.5 17t-1.5 18q-1 29 5.5 56t12.5 55q2 9 4 17.5t4 17.5q-6 4 -11.5 6.5t-9.5 7.5q-14 13 -10.5 29.5t21.5 21.5q23 5 35 19.5t20 34.5q76 197 208 367q27 35 55.5 67t64.5 58q19 13 37 21q11 5 21 4t19 -9zM445 821q3 5 4 13t-2 13q-6 7 -13 3t-12 -8l-30 -22
t-28 -24q-80 -83 -140.5 -176.5t-107.5 -197.5q-2 -5 -4 -11.5t-4 -14.5q5 2 8 3t5 3q81 78 152.5 163t132.5 181q11 18 20.5 36.5t18.5 38.5z" />
    <glyph glyph-name="c" unicode="c" horiz-adv-x="293" 
d="M312 297q6 -8 3.5 -15.5t-9.5 -12.5q-11 -11 -19 -18.5t-20 -16.5q-13 -10 -35.5 -29.5t-46.5 -40.5t-46.5 -39.5t-35.5 -27.5q-16 -11 -34 -17.5t-35 -14.5q-4 -2 -6 -2q-46 -11 -71 12.5t-17 69.5q2 14 7.5 28.5t10.5 28.5q17 42 38 82t50 76q16 20 36.5 31t46.5 7
q28 -3 28 -31q-1 -14 -9.5 -21.5t-21.5 -2.5q-19 8 -33 2t-25 -20q-31 -39 -55 -81t-38 -90q-2 -8 -3.5 -17.5t-0.5 -18.5q1 -25 27 -26q34 -3 58 11q22 12 43.5 24.5t41.5 27.5q12 8 31 25.5t40 37t40.5 37.5t30.5 27q6 5 12 10.5t17 4.5z" />
    <glyph glyph-name="d" unicode="d" horiz-adv-x="555" 
d="M-84 73q-23 -4 -34 7.5t-5 33.5q6 24 25.5 54.5t44 61.5t49.5 58.5t42 44.5l15 12t21.5 15t23 12.5t18.5 5.5q14 0 27 -10q7 -5 11 -12t2 -16q-5 -20 -24 -23q-5 -1 -9.5 0t-8.5 0q-11 -3 -21.5 -5.5t-18.5 -7.5q-49 -36 -87.5 -80.5t-68.5 -97.5q-2 -3 -3.5 -8t-4.5 -13
q11 4 18 6t12 5q14 10 27.5 19.5t26.5 20.5q48 41 91 85.5t85 90.5q11 12 17.5 26.5t11.5 30.5q66 202 184 380q11 16 25 34.5t30.5 35t35 29.5t38.5 18q23 7 38.5 -6.5t11.5 -37.5q-2 -17 -11 -33q-15 -24 -30.5 -48t-32.5 -47q-65 -85 -129.5 -169.5t-128.5 -169.5
q-17 -24 -25 -51q-14 -45 -18.5 -90.5t-1.5 -92.5q2 -18 7.5 -34t19.5 -30q23 -20 52 -16q18 3 34 10t31 17q23 15 50.5 38t54.5 48.5t52 50t45 43.5q7 7 14 13.5t15 13.5q1 1 4 0.5t5 -1.5q2 -2 2.5 -5t-1.5 -5q-6 -11 -13 -16q-18 -17 -42 -40.5t-49.5 -48.5t-50.5 -48
t-44 -39q-10 -9 -24.5 -19t-30.5 -18t-33 -13.5t-31 -5.5q-30 0 -53 19.5t-32 55.5q-8 28 -8 56t3 57q2 16 5 31.5t5 31.5q1 2 0 4.5l-3 7.5q-5 -5 -9.5 -9t-8.5 -9q-35 -36 -70.5 -73t-71.5 -72q-7 -7 -18.5 -17t-25 -19.5t-26.5 -17t-23 -9.5zM272 519q-11 -26 -21 -52.5
t-21 -52.5l4 -2l4 -2q2 4 8 12q60 79 118.5 157.5t117.5 158.5q15 20 27 41.5t24 43.5q5 8 6 16.5t-7 16.5q-4 5 -11 5q-5 0 -10.5 -3t-10.5 -5q-6 -4 -12 -7.5t-11 -8.5q-14 -15 -28.5 -29.5t-27.5 -30.5q-46 -60 -82 -124.5t-67 -133.5z" />
    <glyph glyph-name="e" unicode="e" horiz-adv-x="278" 
d="M-25 198q-6 7 -5.5 16.5t7.5 16.5q9 9 12 20l6 22q11 43 30 70.5t49 57.5q18 16 38 16q12 0 21 -5q16 -9 19.5 -24t1.5 -32q-6 -51 -38 -88t-72 -66q-8 -5 -13.5 -9t-7.5 -8t-1.5 -9.5t4.5 -14.5q17 -38 50 -29q21 6 36 16q52 29 91 66t78 80q11 -9 10 -15.5t-6 -12.5
q-17 -21 -40.5 -46t-51 -48t-56.5 -41.5t-56 -25.5q-56 -14 -80 40q-7 14 -11 28t-15 25zM24 251q36 12 58.5 36t35.5 59q4 8 4 20q0 19 -13 19q-5 0 -13 -5q-61 -48 -72 -129z" />
    <glyph glyph-name="f" unicode="f" horiz-adv-x="309" 
d="M-187 -320q-2 13 -0.5 26t4.5 27q11 53 28.5 102.5t40.5 98.5q25 54 52 107t53 107q7 14 13.5 28.5t5.5 32.5q-8 2 -15.5 2t-13.5 3q-5 3 -10.5 9t-6.5 11q-1 6 2.5 12.5t8.5 11.5t13 8t16 8q0 6 -0.5 12t0.5 12q2 14 13 14q6 0 11 -4q4 -4 7 -8t8 -9q19 8 32 22t23 31
q38 69 76.5 138t76.5 139q16 28 32 55.5t34 53.5q4 6 11 15t15.5 17t18 14t17.5 6t15 -4q11 -7 14 -17t-1 -21q-26 -96 -79.5 -179.5t-117.5 -158.5q-32 -36 -63.5 -72t-64.5 -73q22 -14 45 -16t47 2q35 5 68 18t65 30q6 3 12.5 6.5t12.5 5.5q7 2 10 -3q1 -2 1.5 -6t-0.5 -6
q-1 -5 -9 -11q-44 -26 -89 -44.5t-97 -18.5q-17 0 -33.5 3t-32.5 7q-18 4 -22.5 2t-13.5 -18q-10 -17 -14 -36t-8 -39q-23 -102 -50.5 -201t-72.5 -195q-7 -14 -15.5 -27.5t-16.5 -27.5q-4 -8 -13 -17q-10 -8 -19 -8t-15.5 6t-8.5 17zM-158 -255q-5 -14 -5.5 -28t4.5 -31
q27 31 49.5 80t40.5 103t32 106.5t24 91.5q2 5 1.5 11t0.5 12l-9.5 -9.5t-7.5 -10.5l-38 -76t-35 -78q-17 -42 -30 -84.5t-27 -86.5zM177 441q-6 -12 -11.5 -24.5t-11.5 -24.5q5 4 9.5 6.5t8.5 7.5q64 71 117 147t85 167q2 6 4.5 12.5t-5.5 14.5q-10 -5 -21 -16.5t-21 -25.5
t-18.5 -28t-13.5 -23q-31 -54 -61.5 -106.5t-60.5 -106.5zM150 387q0 1 2 3q-2 -1 -2 -3z" />
    <glyph glyph-name="g" unicode="g" horiz-adv-x="450" 
d="M475 317q3 -1 5.5 -5.5t2.5 -8.5q1 -2 -2.5 -5t-6.5 -4q-69 -12 -129.5 -44t-118.5 -67q-27 -17 -36 -50q-16 -57 -39.5 -110.5t-51.5 -105.5q-25 -48 -52 -94.5t-55 -93.5q-18 -31 -41 -58t-50 -51q-34 -31 -78 -41q-31 -6 -61 12q-20 13 -28 34t1 47q13 41 38 80
q28 48 62 91t69 86q51 60 108 113t120 100q20 16 29.5 35t11.5 43q1 19 2.5 37.5t3.5 37.5q1 4 0 8.5t-3 12.5q-19 -17 -34 -34t-29 -34q-29 -32 -56.5 -64t-62.5 -58q-10 -8 -20.5 -13.5t-24.5 -4.5q-12 1 -19 6t-7 17q0 11 1 22.5t5 22.5q52 127 165 205q17 11 34.5 17
t38.5 -2q5 -2 10.5 -1t10.5 2q41 4 40 -34q-2 -24 -4.5 -48t-5.5 -48q-2 -14 -4.5 -29.5t-5.5 -34.5q8 4 14 6.5t11 6.5q37 23 75 44t79 37q16 6 32 11l32 10q11 3 24 -1zM125 302q5 6 7.5 9.5t2.5 7.5t-3 9t-9 13q-27 -9 -55.5 -32t-52 -51.5t-38.5 -60t-16 -58.5
q13 10 24 17t19 16q61 63 121 130zM143 91q2 7 3.5 14.5t5.5 20.5q-9 -5 -13 -7.5t-7 -4.5q-57 -47 -110.5 -97t-101.5 -107q-35 -44 -69 -88.5t-60 -94.5q-9 -16 -16 -33.5t-10 -35.5q-5 -24 9 -38t39 -11q12 2 23.5 6.5t22.5 10.5q24 14 43 34t36 43q129 182 205 388z" />
    <glyph glyph-name="h" unicode="h" horiz-adv-x="489" 
d="M-25 141q-18 13 -12 35q10 37 19.5 65t19 53.5t21 52t25.5 62.5q21 55 52.5 112.5t69.5 112.5t80.5 104.5t86.5 88.5q15 14 32.5 24.5t34.5 21.5q12 6 27 6q17 0 26 -11t4 -27q-3 -18 -14 -32q-29 -42 -58 -83t-59 -82q-59 -81 -125 -153t-138 -141q-34 -33 -47 -74
q-6 -20 -8 -26.5t-3 -10t-3 -10t-8 -26.5q-1 -3 -1 -7t-2 -12q8 6 14 10t11 9q23 23 46.5 45.5t48.5 44.5q13 11 27.5 19.5t29.5 16.5q13 5 21 5q12 0 20.5 -7t14.5 -17.5t9.5 -22.5t5.5 -22q8 -35 25.5 -46t54.5 -10q28 1 53 10t48 23q14 8 26.5 17t26.5 18q5 3 10.5 6.5
t10.5 5.5q3 2 7.5 1t5.5 -3q2 -4 1.5 -8t-1.5 -8q0 -2 -2.5 -4t-4.5 -4q-35 -28 -72.5 -51t-82.5 -31q-17 -3 -33.5 -2.5t-33.5 2.5q-49 6 -63 55q-4 11 -6.5 22.5t-6.5 22.5q-6 19 -18 19q-6 0 -14 -4q-11 -6 -22.5 -13.5t-21.5 -16.5q-21 -19 -41 -39l-40 -40
q-11 -10 -21 -19.5t-21 -18.5q-5 -4 -10.5 -7.5t-11.5 -3.5t-10 3zM81 417q21 13 53 44.5t68.5 72t74 86.5t69.5 89.5t54.5 79t29.5 56.5q-20 2 -32.5 -6.5t-24.5 -17.5q-44 -33 -87.5 -81.5t-82.5 -104t-71 -112.5t-51 -106z" />
    <glyph glyph-name="i" unicode="i" horiz-adv-x="363" 
d="M-21 190q7 41 15.5 78t19.5 77q2 9 6.5 16t13.5 11q13 5 24.5 -0.5t14.5 -18.5q2 -10 -1.5 -18t-8.5 -16q-19 -29 -29.5 -61.5t-15.5 -67.5q-5 -32 11 -48t49 -12q28 4 54 12.5t51 19.5q17 8 41 23.5t48.5 33.5t47 35t37.5 29q3 3 11 9q5 4 9.5 5.5t8.5 -4.5q2 -4 1 -9.5
t-3 -9.5q-5 -7 -12 -12.5t-14 -11.5q-18 -13 -43 -32t-52.5 -38t-54.5 -35.5t-47 -23.5q-23 -9 -46 -15.5t-47 -8.5q-41 -5 -65 17.5t-22 56.5v18zM111 513q2 8 7.5 21t13 25t16.5 21t19 9t18 -7t10 -19t-4 -20q-10 -12 -21 -23.5t-23 -21.5q-3 -3 -10 -3.5t-12 1.5t-8 7.5
t-6 9.5z" />
    <glyph glyph-name="j" unicode="j" horiz-adv-x="241" 
d="M249 280q3 -1 6 -5.5t5 -9.5q1 -2 -3.5 -6t-8.5 -4q-28 -2 -53 -10t-48.5 -20t-46.5 -25.5t-46 -26.5q-13 -7 -19.5 -17t-9.5 -25q-8 -47 -20 -92t-29 -89q-29 -74 -66.5 -142t-82.5 -133q-27 -41 -56.5 -80t-65.5 -73q-17 -16 -36 -28t-42 -19q-35 -10 -60 7t-29 53
q-4 41 11 80q12 29 23.5 57t25.5 54q46 85 102 160.5t124 143.5q67 67 145 121q24 16 25 43q2 29 5.5 58.5t5.5 58.5q1 11 -1.5 23t-1.5 23q0 8 1.5 16t5.5 14q3 5 10 8.5t13 3.5q9 -1 16 -6.5t7 -16.5q1 -34 -3 -67q-2 -26 -6 -52.5t-8 -58.5q22 12 39.5 22.5t34.5 18.5
q20 11 41 20t43 17q12 4 25.5 4h27.5zM-40 17q7 25 13.5 50t7.5 54q-8 -4 -13.5 -7t-10.5 -6q-53 -39 -99 -84t-88 -96q-55 -68 -100 -140.5t-77 -153.5q-8 -21 -12.5 -42.5t-2.5 -44.5q3 -47 47 -32q8 2 15 5.5t14 8.5l28 22t25 25q30 38 59.5 77t56.5 80q44 66 79 136.5
t58 147.5zM65 525q-16 9 -11 28q4 24 12 48q3 10 14 19q5 5 12 7t14 -3q5 -5 9 -11t7 -10q-2 -22 -9.5 -38.5t-16.5 -31.5q-5 -8 -14.5 -10t-16.5 2z" />
    <glyph glyph-name="k" unicode="k" horiz-adv-x="434" 
d="M476 934q21 2 33.5 -9.5t10.5 -32.5q-3 -31 -17 -61q-15 -37 -36.5 -69t-45.5 -64q-51 -69 -107.5 -132.5t-118.5 -122.5q-26 -26 -53 -50.5t-54 -49.5q-8 -6 -16.5 -10t-16.5 -9q-6 -4 -12.5 -8t-8.5 -9q-17 -40 -31.5 -80.5t-22.5 -84.5q13 19 25 38.5t27 36.5
q21 24 44 46.5t46 45.5q9 9 21 15.5t24 12.5t27 6q16 0 23.5 -10.5t2.5 -25.5q-6 -16 -19 -29q-17 -15 -33.5 -29.5t-33.5 -28.5q-4 -4 -8.5 -7t-9.5 -8q17 -12 33.5 -17.5t34.5 -7.5q64 -7 124 22q8 4 24 15t34 23.5t33.5 23.5t23.5 16q5 2 9 5.5t9 5.5q6 3 12.5 3.5
t9.5 -6.5q2 -4 -0.5 -10t-5.5 -8q-8 -6 -23.5 -18t-33.5 -25t-34 -25t-24 -16q-32 -17 -65 -28.5t-70 -11.5q-26 1 -49.5 7t-46.5 17q-55 23 -83 -29q-13 -26 -24.5 -51.5t-25.5 -50.5q-12 -23 -25 -38q-15 -15 -33 -4q-8 6 -11 15.5t2 19.5q2 5 5.5 9t5.5 9t5 10t1 10
q-3 14 0.5 26.5t8.5 24.5q28 84 60 168q38 97 87 188t109 177q42 61 89 118t101 108q14 13 29 23.5t31 20.5q15 10 33 10zM170 300q-21 -12 -37.5 -26.5t-29.5 -34.5q20 9 39.5 26.5t27.5 34.5zM100 237q-1 -1 -1 -2q0 1 0.5 1t0.5 1zM486 881q3 12 -3 16.5t-17 -0.5
q-21 -8 -37 -21q-35 -26 -63.5 -56.5t-57.5 -62.5q-61 -71 -112 -147t-94 -158q-5 -8 -8 -17.5t-6 -17.5q14 0 23 7.5t18 15.5q84 63 153.5 137.5t129.5 159.5q17 23 30.5 46.5t26.5 47.5q7 11 11 24t6 26z" />
    <glyph glyph-name="l" unicode="l" horiz-adv-x="318" 
d="M422 856q23 5 34.5 -6.5t5.5 -34.5q-7 -29 -20.5 -53.5t-27.5 -49.5q-38 -64 -83 -123t-91 -119q-31 -41 -62.5 -80t-63.5 -78q-18 -21 -37 -40.5t-48 -27.5q-4 -1 -7 -6t-4 -10q-8 -46 -12 -91q-1 -6 0.5 -12t3.5 -12q13 -40 49 -27q17 5 33 12.5t30 17.5q48 32 90 70
t81 80q17 18 35 35q5 5 10.5 7t11.5 -4q6 -5 3.5 -11t-5.5 -11q-3 -4 -5.5 -7t-6.5 -7q-46 -46 -92.5 -90.5t-100.5 -82.5l-28 -18t-30 -15q-43 -17 -72 0.5t-34 63.5q-1 4 -0.5 7t0.5 7h-2q3 20 6 39l6 38q2 15 4.5 30t5.5 30q1 3 1 6.5t2 7.5q38 95 89 181t114 167
q35 45 70.5 87.5t76.5 81.5q24 20 47 38q5 3 11 5.5t12 4.5zM398 740q11 19 21 39.5t15 48.5q-21 -8 -35.5 -19t-27.5 -23q-51 -48 -95.5 -100t-86.5 -109q-38 -53 -72.5 -107t-60.5 -115q-4 -11 -8.5 -21.5t-5.5 -27.5q13 10 23 17t18 15q43 39 80 83t73 90q44 55 85.5 111
t76.5 118z" />
    <glyph glyph-name="m" unicode="m" horiz-adv-x="539" 
d="M-64 86q-10 5 -12 14t2 20q8 21 15.5 42t15.5 41q10 25 21 49t22 49q8 16 14.5 32t7.5 35q0 5 3 10.5t7 10.5q8 9 17.5 11.5t17.5 -1.5q9 -4 13.5 -12.5t2.5 -20.5q-2 -8 -5.5 -16.5t-7.5 -16.5q-17 -32 -33.5 -64.5t-33.5 -64.5q-4 -8 -6 -17t-5 -18q32 32 64 63t66 60
q6 6 19.5 11.5t22.5 5.5q25 0 27 -35q0 -10 -0.5 -19.5t-0.5 -19.5q0 -7 0.5 -14t1.5 -17q8 3 13.5 4.5t10.5 4.5q15 9 30 19t30 19q10 6 20.5 10t21.5 9q14 5 26 0.5t22 -14.5q2 -2 2.5 -3t2.5 -3q11 -17 20.5 -25.5t23.5 -8.5q9 0 20 4t26 12q20 11 37 25t35 28
q14 11 24 11q6 0 9 -6q5 -11 -1.5 -17t-12.5 -12q-12 -11 -28.5 -24.5t-35 -25t-37.5 -19.5t-36 -8q-33 0 -64 39q-13 17 -23 17q-7 0 -19 -6q-16 -8 -30.5 -17.5t-30.5 -18.5q-10 -6 -19.5 -12t-20.5 -11q-7 -4 -17 -4q-12 0 -21.5 9t-11.5 26q-2 11 -1 22.5t1 23.5
q0 5 -0.5 10t-1.5 14q-11 -8 -19.5 -13t-15.5 -12q-37 -37 -73 -75.5t-71 -76.5q-2 -1 -3 -2t-3 -2q-12 -12 -23 -12q-6 0 -12 3zM-10 167h-1l-1 -2z" />
    <glyph glyph-name="n" unicode="n" horiz-adv-x="445" 
d="M-51 144q-2 5 0 11.5t4 12.5q5 17 13.5 43t19 53t23 50.5t26.5 35.5q7 7 17 7q8 0 13 -4q8 -5 12 -13t1 -17q-3 -8 -8 -15t-10 -15q-12 -22 -20.5 -35t-20.5 -34q-2 -3 -1.5 -6.5t0.5 -7.5q8 5 15.5 10.5t15.5 10.5q22 17 43.5 34t44.5 32q9 6 20.5 8.5t22.5 4.5
q20 3 28 -18l6 -20l6 -20q8 -29 31.5 -43t47.5 -14q15 0 26 4t24.5 12.5t26.5 19t24.5 21t20.5 18.5q6 5 11.5 10.5t12.5 10.5q2 2 6.5 2.5t6.5 -1.5q5 -7 5 -16q0 -7 -7 -12q-15 -15 -33.5 -33t-39 -33.5t-43 -25.5t-45.5 -10q-31 0 -58 16.5t-41 45.5q-5 12 -9.5 24.5
t-9.5 25.5q-14 2 -24.5 -4.5t-20.5 -13.5q-34 -23 -64 -50.5t-57 -58.5q-5 -6 -10.5 -12.5t-11.5 -10.5q-6 -3 -13.5 -4t-12.5 2q-5 2 -8.5 9t-5.5 13zM14 206q1 1 1.5 2t1.5 2q-1 -1 -2 -1q0 -2 -1 -3z" />
    <glyph glyph-name="o" unicode="o" horiz-adv-x="226" 
d="M-49 121q-13 20 -7 45l6 26t9 25q14 29 29 56.5t30 56.5q7 11 17 21t24 10q11 0 22 -9l9 -9t8 -9q22 -26 50 -32.5t60 -3.5q11 2 21 3t21 1q4 0 8.5 -4t6.5 -8q1 -2 -2.5 -6.5t-6.5 -6.5q-9 -3 -18.5 -5.5t-19.5 -3.5q-29 -2 -58.5 -0.5t-58.5 15.5q-5 -11 -8 -20.5
t-7 -17.5q-11 -29 -22.5 -58t-30.5 -54q-6 -8 -13 -15t-15 -12q-12 -7 -21 -7q-20 0 -33 22zM64 308q-9 -2 -21 -14.5t-23.5 -30t-22 -38.5t-15.5 -39.5t-3.5 -32t12.5 -17.5q21 14 33 34.5t19 43.5t11 47.5t10 46.5z" />
    <glyph glyph-name="p" unicode="p" horiz-adv-x="324" 
d="M209 321q15 3 24.5 -6t6.5 -25q-2 -12 -7 -23.5t-11 -22.5q-24 -40 -54.5 -74t-65.5 -66q-24 -20 -47 -38q-14 -11 -28.5 -16.5t-32.5 10.5q-12 -29 -22.5 -56t-21.5 -53q-29 -72 -63 -139.5t-70 -135.5q-21 -41 -42.5 -80.5t-43.5 -79.5q-20 -37 -43 -70
q-8 -11 -18 -19.5t-26 -4.5t-20.5 17t-4.5 26q0 42 9 84q11 52 31 100t44 95q50 99 113.5 187t136.5 171q13 15 22 31.5t14 36.5q8 38 14.5 76.5t4.5 77.5q0 11 -3 20t-14 16t-12.5 17t2.5 21q10 25 36 25q23 0 32 -23q8 -22 7.5 -44t-3.5 -44q-3 -25 -7.5 -49t-9.5 -49
q-1 -3 -0.5 -7t0.5 -11q26 23 49 43l46 40q12 10 24.5 17.5t26.5 15.5q12 7 27 9zM-346 -539q14 14 40 54.5t56.5 97t63 122t60.5 128t48.5 116t27.5 85.5q-8 -11 -16.5 -20.5t-16.5 -20.5q-63 -77 -116.5 -158.5t-94.5 -172.5q-18 -40 -32 -81t-22 -84q-2 -17 -3 -33t5 -33
zM181 239q8 9 14 21.5t10 31.5q-17 -10 -30 -17t-24 -15q-35 -24 -64.5 -52.5t-58.5 -59.5q-8 -8 -12.5 -18.5t-9.5 -20.5q10 2 18 7.5t15.5 10t16.5 6.5t20 -2q2 -2 7 1.5t7 6.5q23 25 46 49.5t45 50.5z" />
    <glyph glyph-name="q" unicode="q" horiz-adv-x="254" 
d="M166 357l14 -14t6 -10t-1.5 -11.5t-8.5 -17.5q-29 -54 -58.5 -106t-60.5 -105q-26 -44 -53 -86t-54 -86q-3 -5 -5.5 -10.5t-6.5 -12.5q11 -2 18.5 -3t15.5 -3q3 -1 6 -5t3 -7q0 -4 -3 -8t-6 -5q-9 -3 -18.5 -5t-19.5 -2q-15 0 -23 -7.5t-16 -18.5q-39 -61 -70 -125.5
t-57 -132.5q-9 -23 -17.5 -45t-17.5 -44q-2 -10 -5 -13q-8 -8 -15 -6q-4 0 -8.5 3.5t-4.5 6.5q-1 8 -0.5 17t3.5 17q13 34 25.5 68t28.5 67q24 51 48 101.5t39 104.5q8 30 36 36q20 5 30 22q47 78 93 154t93 154q5 8 7.5 15.5t6.5 15.5q-1 1 -2 1.5t-2 1.5
q-7 -6 -13.5 -12.5l-13.5 -13.5q-25 -26 -49 -51.5t-49 -50.5q-9 -9 -19 -16t-21 -14q-8 -6 -17.5 -7.5t-18.5 5.5q-20 13 -13 38q3 10 6.5 20.5t8.5 19.5l26 40t28 39q21 26 43 50t45 47q10 11 21.5 19.5t23.5 16.5q34 21 62 -12q2 -4 4.5 -7.5t5.5 -6.5zM115 311
q2 7 -1 10q-2 2 -6 3.5t-6 1.5q-5 -2 -8 -4.5t-7 -5.5q-78 -62 -135 -144q-5 -7 -7.5 -14t-6.5 -13q1 -2 3 -4l1 -1q5 3 9.5 5t8.5 6q37 37 73.5 74t73.5 75q2 2 4.5 5t3.5 6z" />
    <glyph glyph-name="r" unicode="r" horiz-adv-x="231" 
d="M-37 87q-8 2 -12.5 9.5t-2.5 17.5q4 19 8 37.5t9 37.5q8 28 16.5 55t15.5 55q5 16 6.5 32.5t4.5 32.5q2 14 8 25q3 5 9.5 7t12.5 -1q5 -2 9 -6.5t5 -9.5q3 -17 -1 -32q-4 -14 -8.5 -28.5t-9.5 -29.5q-1 -5 -1 -9.5t-1 -9.5l21 24l9.5 9.5t9.5 8.5q7 6 18 6q10 0 18 -8
q27 -23 57 -23q23 0 47 12q4 2 7.5 3.5t7.5 1.5q3 1 6.5 -1t5.5 -4q4 -6 0 -13q-1 -3 -9 -9q-29 -18 -66 -18q-16 0 -31 4.5t-28 15.5q-8 7 -15 7q-8 0 -20.5 -17t-25.5 -38.5t-23 -42.5t-13 -28q-5 -11 -8.5 -21t-8.5 -21q-2 -5 -3.5 -9t-3.5 -8q-2 -7 -6.5 -11.5
t-13.5 -2.5zM29 266l1 2q-1 -1 -1 -2z" />
    <glyph glyph-name="s" unicode="s" horiz-adv-x="322" 
d="M-183 -131q-10 10 -9 21t6 22q8 21 21.5 43t30 42.5t35 38.5t35.5 32q37 29 74.5 57t75.5 57q7 4 14 11q1 1 3 8q-7 3 -13.5 6.5t-14.5 7.5q-5 2 -9.5 4t-9.5 5q-45 26 -54.5 62t17.5 79q18 29 39.5 56.5t42.5 55.5q5 7 15 12.5t18 5.5q17 0 26 -17q7 -13 3 -26t-18 -18
q-37 -14 -58.5 -41t-39.5 -58q-15 -26 -10.5 -43.5t29.5 -34.5q4 -3 14.5 -9t22.5 -12t22.5 -10.5t16.5 -4.5q9 0 21 7t36 20t51 26.5t51.5 23.5t37.5 10q6 -1 10 -8q1 -2 -0.5 -5t-3.5 -4l-10 -4l-10 -4q-44 -14 -77.5 -29.5t-72.5 -40.5q-2 -1 -4 -3t-5 -4l8 -10t7 -10
q13 -25 6 -52q-6 -20 -17 -37t-25 -33q-51 -58 -109.5 -106t-128.5 -82q-11 -5 -23.5 -8.5t-23.5 -7.5q-24 -9 -43 9zM-162 -93q-5 -13 0 -19.5t18 -1.5q49 18 87.5 39.5t72.5 48.5t64.5 60.5t62.5 74.5q6 8 9.5 18.5t7.5 19.5q-1 23 -20 34q-8 5 -15 2t-15 -8
q-50 -32 -97 -67.5t-88 -80.5q-24 -26 -48.5 -56.5t-38.5 -63.5z" />
    <glyph glyph-name="t" unicode="t" horiz-adv-x="333" 
d="M-120 515q-2 14 8 25t27 13q11 1 21 0t21 -1q37 1 73.5 2t72.5 3q11 0 17.5 6.5t11.5 15.5q25 43 49 85t50 84q17 26 34.5 51.5t35.5 51.5q4 6 10.5 13.5t14 14.5t15.5 13t15 9q8 5 17 5q7 0 12 -6q4 -5 5.5 -12.5t-0.5 -13.5q-3 -16 -13 -33q-38 -68 -77.5 -135
t-78.5 -134q16 0 29.5 -0.5t26.5 0.5q30 2 60.5 3t60.5 3q8 0 16 -1t9 -12q0 -11 -8 -12.5t-16 -2.5q-44 -4 -86.5 -7.5t-86.5 -6.5q-17 -1 -27.5 -7t-18.5 -20q-25 -42 -52 -81.5t-45 -84.5q-11 -26 -37 -20q-10 2 -14.5 -1.5t-6.5 -11.5q-14 -39 -22 -78.5t-4 -81.5
q3 -41 28 -72q27 -32 66 -25q38 8 72.5 31.5t64.5 55t54.5 67t43.5 67.5q4 7 7 10.5t11 15.5q7 -1 8 -8.5t-1 -11.5q-2 -8 -6 -14.5t-9 -13.5q-18 -31 -43.5 -66t-56.5 -66t-65.5 -55t-71.5 -32q-59 -12 -93 37q-28 40 -29 86q-3 46 7 89t26 85q16 39 34.5 77.5t35.5 77.5
q4 8 7.5 16t8.5 19q-22 -2 -41 -4t-37 -4q-25 -4 -49 -8.5t-49 -9.5q-17 -3 -28.5 2.5t-13.5 18.5zM156 585q-2 -5 -3 -9.5t-3 -8.5q7 -4 14 -4q8 0 14 6q7 6 14 16q36 60 72 119t71 119q5 7 7.5 15t4.5 16q-17 -8 -28 -21t-20 -27q-37 -55 -72 -110.5t-71 -110.5zM140 525
q-19 -8 -28.5 -21.5t-18.5 -45.5l14 14t13 15q7 8 14.5 16t5.5 22zM89 453q0 1 2 3q-1 -1 -2 -1v-2z" />
    <glyph glyph-name="u" unicode="u" horiz-adv-x="366" 
d="M-27 90q-23 10 -21 33q2 13 3 25.5t4 24.5q7 23 15 44.5t16 44.5q7 19 13 38t13 38l4 14t6 13q13 17 32 13q10 -2 15 -10t3 -19q-2 -8 -5.5 -15t-7.5 -14q-28 -50 -48 -96.5t-31 -102.5q9 7 15 10t10 8q29 28 52 60t45 65q11 18 22.5 36t23.5 36q3 5 6 9.5t8 7.5
q4 2 9.5 3t9.5 -1q3 -1 4.5 -5.5t1.5 -8.5q-1 -5 -2.5 -10.5t-3.5 -10.5q-7 -26 -13.5 -52.5t-11.5 -52.5q-2 -10 -1.5 -19.5t2.5 -19.5q6 -27 28 -27q13 0 26 10q5 4 18 15t29.5 25t34.5 29.5t33.5 29t26 23t11.5 10.5q2 3 6.5 4.5t8.5 3.5q1 -5 4 -10.5t1 -7.5
q-18 -15 -40 -36.5t-45.5 -43.5t-47 -41.5t-44.5 -30.5q-16 -8 -29 -8q-17 0 -29.5 10.5t-17.5 30.5q-9 36 1 70q2 7 2.5 14t1.5 14l-4 1q-5 -8 -11 -15.5t-11 -15.5q-16 -22 -30.5 -43t-30.5 -41q-10 -13 -21.5 -24t-22.5 -22q-8 -8 -17 -11t-19 1z" />
    <glyph glyph-name="v" unicode="v" horiz-adv-x="309" 
d="M332 310q2 -1 2 -5.5t-2 -6.5q-15 -25 -35.5 -42t-48.5 -24q-17 -5 -34.5 4t-27.5 27q-4 5 -6 11t-5 12q-2 5 -4 9.5t-6 12.5q-7 -12 -12 -21.5t-10 -19.5q-12 -24 -20 -43t-15.5 -36.5t-16 -36.5t-19.5 -43q-5 -9 -9.5 -17.5t-10.5 -16.5q-11 -13 -25 -11.5t-22 16.5
q-4 7 -6.5 14.5t-2.5 15.5q0 78 3 156q2 29 4 57l4 56q3 37 35 34q23 -3 23 -26q-1 -6 -2.5 -12t-2.5 -12q-12 -54 -22.5 -108t-9.5 -110q0 -8 0.5 -17t1.5 -18q2 0 4.5 -0.5t4.5 -0.5q10 20 19.5 41t20.5 41q13 26 23 47t19.5 41t19.5 41t24 47l3 6q5 7 10.5 10.5t13.5 0.5
q7 -3 8.5 -9t-0.5 -12q-4 -14 -3 -28.5t4 -28.5q1 -2 1 -5t1 -5q13 -32 28 -35t37 12q8 6 16 13l16 14q4 4 7.5 8t8.5 6q8 2 16 -3z" />
    <glyph glyph-name="w" unicode="w" horiz-adv-x="510" 
d="M520 303q3 0 6 -4t6 -6q-2 -2 -4 -5t-5 -4l-14 -4t-14 -2q-27 0 -42 0.5t-27.5 3t-27 6.5t-39.5 11q-11 2 -29 9q-3 -15 -5.5 -28t-5.5 -26q-8 -31 -19.5 -59.5t-31.5 -53.5q-17 -23 -41 -38q-20 -12 -40.5 -6t-30.5 28q-6 13 -8.5 27t-4.5 28q-2 18 -2 37t-1 42
q-14 -11 -21 -21l-14 -20q-10 -15 -19 -30.5t-20 -29.5q-9 -11 -19 -21.5t-21 -18.5q-20 -15 -38 -6.5t-22 32.5q-3 20 1 36q11 43 21.5 86t21.5 86q2 6 5 11.5t7 10.5q9 11 20 13.5t20 -3.5q20 -13 7 -40q-10 -20 -20.5 -38t-18.5 -38q-9 -23 -15.5 -46t-13.5 -46
q-2 -7 -1 -15t1 -19q6 3 11.5 4.5t8.5 4.5q17 19 32 38q14 20 26.5 40t26.5 40q11 16 24 26q11 9 20 6t12 -17q4 -30 6 -60q1 -11 0.5 -21.5t0.5 -21.5v-10.5t1 -10.5q3 -12 8.5 -23t19.5 -15q11 -3 20 3t17 13q10 10 19 22q16 25 27.5 52t16.5 56q3 18 3 36.5t-8 36.5
q-2 4 0 9.5t5 9.5q1 2 7 0.5t9 -3.5q38 -27 60 -39t41 -15.5t42 -1.5t63 2z" />
    <glyph glyph-name="x" unicode="x" horiz-adv-x="379" 
d="M396 292q3 -3 5 -9t0 -9q-17 -36 -39 -68q-18 -29 -41.5 -53t-54.5 -40q-46 -24 -78.5 -21t-62.5 30q-13 11 -22 27t-18 30q-6 10 -14 27q-14 -11 -20 -18q-35 -38 -68 -77t-60 -84q-10 -16 -18 -32.5t-16 -33.5q-2 -3 -3 -6.5t-3 -6.5q-5 -10 -14 -15t-17 -3
q-11 4 -17.5 15t-3.5 22q5 20 15 36q10 14 20.5 28.5t21.5 28.5q38 42 75.5 83t75.5 82q12 13 15.5 25.5t0.5 28.5q-4 20 -6.5 39t-4.5 39q-1 13 2 27q7 21 27 19q21 -3 24 -23q2 -7 1.5 -14t-0.5 -14v-62q8 6 14 10t11 9q34 29 67.5 57.5t67.5 56.5q11 10 28 15q3 2 8 0
t7 -5t0.5 -7.5t-3.5 -8.5t-5.5 -6.5t-7.5 -5.5q-43 -31 -81.5 -66t-76.5 -71q-15 -14 -18 -28t5 -32q6 -16 13 -31t20 -27q32 -32 75 -20q28 8 50 23.5t40 36.5q16 19 30 40t28 41q2 4 4 7.5t5 7.5q3 5 7.5 8t9.5 -2z" />
    <glyph glyph-name="y" unicode="y" horiz-adv-x="418" 
d="M-245 -498q-3 27 0.5 53t11.5 52q21 74 62.5 146t94.5 138.5t113 125t118 106.5q17 14 29 30t17 39q12 48 24 94.5t16 96.5q0 2 -0.5 4.5t-2.5 10.5q-19 -27 -35 -50l-32 -46l-48 -68t-49 -68q-7 -9 -18 -22t-24 -25t-27 -20.5t-26 -8.5q-23 0 -29 25q-5 19 0 39
q4 18 8.5 36t12.5 35q13 33 27.5 65.5t29.5 64.5q8 19 23 31q9 9 19 9t22 -10q18 -16 -2 -37q-17 -18 -35.5 -45t-34.5 -58t-26.5 -62.5t-11.5 -56.5q12 -1 19.5 5t13.5 13q21 23 42.5 47t40.5 50q27 36 52 73.5t51 75.5q8 10 16 19.5t17 17.5q4 4 10.5 6t11.5 0
q4 -2 7.5 -8.5t3.5 -11.5q-1 -15 -1.5 -30t-4.5 -30q-9 -45 -20 -89t-23 -89q45 31 89.5 60.5t92.5 54.5q10 6 22.5 7t24.5 2q3 0 6.5 -5t8.5 -10q-37 1 -65 -13t-54 -30q-30 -17 -58 -37.5t-57 -39.5q-13 -9 -19.5 -21t-11.5 -26q-11 -32 -22.5 -63.5t-24.5 -63.5
q-23 -56 -55 -120.5t-69.5 -129.5t-78.5 -125t-81 -107q-6 -7 -14.5 -16t-18 -16.5t-20 -13t-20.5 -5.5q-15 0 -25.5 11.5t-12.5 33.5zM-210 -374q-10 -29 -14.5 -58.5t-2.5 -60.5q4 -30 22 -30q9 0 19 5.5t15 13.5q54 54 105 126t95 151t79.5 160t59.5 153q2 6 3.5 13.5
t3.5 18.5q-9 -6 -14.5 -9t-10.5 -7q-55 -47 -109.5 -101.5t-102 -114.5t-86 -125t-62.5 -135z" />
    <glyph glyph-name="z" unicode="z" horiz-adv-x="371" 
d="M-248 -341q-1 23 6.5 44t19.5 39q57 89 123.5 168t142.5 151q3 3 6 6.5t6 7.5q-4 5 -7 10.5t-7 10.5q-14 20 -14 40t11 40q5 8 10 15.5t11 13.5q38 37 76 73.5t77 71.5q-11 -2 -17 -2.5t-11 -2.5l-58 -22l-58 -22q-5 -2 -11 -4t-12 -3q-11 -1 -19.5 5t-10.5 16
q-5 22 18 32q2 1 5 1t5 1q41 11 80.5 21.5t80.5 21.5q8 2 17 4.5t18 2.5q15 0 22 -9.5t1 -23.5q-6 -15 -21 -29q-30 -28 -60.5 -54.5t-60.5 -54.5q-14 -14 -27.5 -28t-24.5 -30q-15 -20 -12 -36.5t24 -35.5q20 16 39.5 32t39.5 32q53 43 109.5 79.5t119.5 62.5
q14 5 28.5 8.5t28.5 7.5q5 2 10.5 0t5.5 -9q0 -3 -4 -6t-8 -4q-54 -12 -102 -36t-93 -56q-38 -26 -74 -55t-72 -57q-4 -3 -7 -7t-8 -9q11 -9 20.5 -18t19.5 -17q20 -17 35.5 -35t23.5 -44t2.5 -51t-16.5 -48q-22 -42 -56.5 -79t-75.5 -67.5t-86 -55t-88 -40.5
q-34 -13 -73 -15q-23 -2 -35 11t-13 37zM-216 -308q-3 -7 -4 -15t-1 -16q0 -25 23 -25q31 0 70.5 13t80.5 35.5t80 52t70 62.5t50 67.5t20 66.5q2 14 -2.5 26t-11.5 24q-13 22 -32 36t-37 30q-5 5 -8.5 7.5t-7.5 2.5q-5 0 -17 -12q-31 -30 -72 -74t-81 -92.5t-73 -98
t-47 -90.5z" />
    <glyph glyph-name="braceleft" unicode="{" horiz-adv-x="442" 
d="M570 829q5 -14 5 -29.5v-30.5q-1 -10 -9.5 -16.5t-17.5 -7.5q-9 0 -17 6.5t-10 17.5t-2 21.5v23.5q-8 -3 -14 -4.5t-11 -4.5q-38 -23 -65 -55.5t-45 -72.5q-12 -26 -22.5 -53.5t-21.5 -54.5q-11 -29 -25 -57t-34 -52q-5 -7 -8.5 -13.5t1.5 -15.5q12 -26 8.5 -50.5
t-12.5 -49.5q-12 -33 -30 -62.5t-37 -58.5q-31 -49 -58 -100t-49 -105q-7 -18 -11 -37t-2 -39q1 -18 9 -26t26 -10q6 -1 12.5 -1t11.5 -2q4 -1 8 -4.5t3 -6.5q0 -5 -2.5 -10t-6.5 -7q-12 -7 -26 -7.5t-27 4t-23.5 14t-16.5 22.5q-6 14 -7 27.5t1 28.5q11 62 40 113
q26 49 53 96.5t56 95.5q15 26 29 52.5t22 56.5q3 12 4 24.5t-7 26.5q-20 -11 -39 -18.5t-41 -4.5q-6 1 -12.5 1.5t-11.5 2.5q-19 8 -19 28q0 17 17 25t34 12t35 1q25 -4 39.5 7t25.5 31l22 46t22 47q10 23 18 46t18 46q40 96 121 155q16 11 31 18q23 9 41.5 1.5t26.5 -31.5z
" />
    <glyph glyph-name="bar" unicode="|" horiz-adv-x="549" 
d="M530 924q23 -10 18 -34q-2 -6 -4.5 -12t-4.5 -12q-31 -69 -62 -137.5t-60 -138.5q-31 -72 -60 -144.5t-59 -144.5q-31 -75 -63 -147.5t-63 -146.5q-28 -66 -51.5 -132.5t-41.5 -135.5q-2 -5 -3 -10.5t-4 -10.5q-2 -4 -6 -6.5t-8 -5.5q-2 4 -4 7t-4 8q4 15 7.5 29.5
t8.5 29.5q26 88 60 172.5t69 169.5q39 92 76 183.5t74 185.5q25 63 49.5 127t48.5 128q12 35 22.5 69.5t21.5 69.5q2 7 4 13.5t6 12.5q12 21 33 13z" />
    <glyph glyph-name="braceright" unicode="}" horiz-adv-x="466" 
d="M392 802q29 -4 43.5 -27.5t7.5 -52.5q-4 -14 -9 -27t-13 -25q-18 -31 -37.5 -61t-38.5 -59q-13 -20 -26 -39t-24 -40q-10 -19 -18 -38.5t-14 -39.5t-0.5 -26t25.5 -1q9 2 17.5 2.5t15.5 -8.5q10 -14 -12 -33q-45 -38 -68.5 -87t-31.5 -107q-9 -71 -21 -137
q-5 -24 -15 -45.5t-24 -41.5q-15 -20 -36 -32.5t-44.5 -16.5t-47 0t-44.5 18q-9 5 -15.5 12t-7.5 18q-2 11 5 16.5t17 1.5q5 -2 10.5 -5.5t10.5 -6.5q36 -22 73 -12t59 46q15 26 21.5 54.5t11.5 57.5q4 29 7.5 58t9.5 58q7 38 22.5 71t38.5 64q2 2 4 5.5t5 7.5
q-27 24 -25.5 52t13.5 56q11 25 24.5 49t27.5 48q19 31 39 61t40 61q8 13 15 26t14 27q3 8 4.5 15.5t2.5 15.5q0 25 -23 26q-33 3 -63 -3.5t-55 -32.5q-21 -23 -40 -8q-10 8 -11.5 20t7.5 24q7 11 21 18q36 20 74.5 24.5t77.5 -1.5z" />
    <glyph glyph-name="asciitilde" unicode="~" horiz-adv-x="558" 
d="M474 289q7 -2 6 -12.5t-9 -22.5q-22 -29 -54.5 -52.5t-71.5 -23.5q-57 1 -97 46q-8 9 -15 19t-15 20q-9 10 -21 15.5t-24.5 5.5t-24.5 -5t-20 -15q-4 -4 -5 -9.5t-1 -10.5q-1 -13 -9 -20t-18.5 -9.5t-21.5 0.5t-18 9q-4 3 -7 8t-2 10q1 8 3.5 16t7.5 12q28 22 58.5 37
t67.5 13q19 -1 33.5 -10t25.5 -24q9 -11 17.5 -22.5t17.5 -22.5t22 -19t28.5 -11t32 -1t32.5 12q17 11 30 23.5t24 27.5q5 7 11 14t17 2z" />
    <glyph glyph-name="uniF03D" unicode="&#xf03d;" horiz-adv-x="518" 
d="M-79 466q-1 9 3.5 15.5t12.5 9.5q22 8 42 8q29 2 57 2.5t57 -0.5q28 0 41 26q12 26 33 63t46 74t53 68.5t54 46.5q15 10 26 -2q10 -10 3 -23l-21 -33q-34 -49 -68 -97.5t-68 -97.5q-2 -3 -3.5 -7t-3.5 -10h29q32 3 63.5 6.5t63.5 4.5q17 1 27 7.5t18 20.5q19 34 38 67
l38 66q11 18 20 36t19 36q5 8 12.5 17t16.5 9q4 0 9 -3q13 -10 -1 -28q-32 -40 -54.5 -84t-43.5 -90q-5 -10 -8.5 -20.5t-8.5 -21.5q9 -9 18 -9t17 2q18 3 37 3q4 0 22 -1t38.5 -2.5t37 -3t17.5 -2.5q4 -3 7 -7l6 -8q-4 -2 -8 -6t-8 -4q-29 0 -57 0.5t-57 1.5
q-14 0 -28.5 -1t-28.5 0q-30 1 -39 -28l-26 -76t-25 -76q-16 -54 -26 -108.5t-15 -110.5q-3 -31 -2.5 -62t8.5 -62q5 -17 15 -29.5t30 -14.5q9 -1 18.5 2.5t18.5 6.5q5 2 11 5t11 -5t0 -13t-11 -10q-20 -14 -44 -14q-19 0 -35.5 9.5t-27.5 29.5q-14 24 -17 50.5t-1 53.5
q2 58 10 109.5t20 100.5t27 98.5t33 102.5q4 12 4 30q-18 -17 -29.5 -38t-23.5 -41q-51 -82 -101 -163.5t-101 -163.5q-10 -16 -21.5 -30.5t-23.5 -28.5q-9 -11 -21 -18.5t-28 -2.5q-16 6 -20 19.5t-5 28.5q-3 43 3 84.5t16 83.5l4 26l4 26q-5 -3 -10.5 -5.5t-11.5 -4.5
q-15 -5 -26.5 5t-6.5 26q2 9 8 16.5t12 15.5l90 111q5 5 8 11t8 14q-9 7 -18 6t-17 -3q-23 -3 -45.5 -7.5t-45.5 -8.5l-14 -2t-14 1q-19 3 -22 25zM21 82q-1 -11 0.5 -21t3.5 -21q3 -16 12 -16q6 0 16 10t20.5 22.5t19.5 25t12 17.5q44 68 86.5 135t85.5 135q17 28 34 56.5
t36 59.5q-7 1 -10.5 2t-5.5 1q-40 -4 -79.5 -7.5t-79.5 -8.5q-8 -1 -16 -6t-13 -11q-17 -25 -33 -49.5t-27 -51.5q-53 -130 -62 -272zM226 630q12 6 14 20q-8 -2 -10.5 -7t-3.5 -13zM28 273q-1 -2 -1 -6q1 2 2 2.5t2 1.5q0 2 -2 4q0 -1 -0.5 -1t-0.5 -1zM208 605l2 2z" />
    <glyph glyph-name="uniF03E" unicode="&#xf03e;" horiz-adv-x="653" 
d="M664 286q8 1 12 -6t-1 -13t-10 -11.5t-11 -7.5q-30 -13 -60.5 -20t-63.5 0q-44 9 -71 39q-4 5 -7.5 10.5t-9.5 14.5q-8 -13 -13 -20.5t-8 -15.5q-20 -49 -39.5 -97.5t-39.5 -97.5q-13 -31 -30 -64q-7 -11 -16.5 -20.5t-25.5 -7.5q-15 2 -22 12.5t-12 24.5q-18 51 -11 101
q5 38 11.5 74t11.5 74q3 22 6 43.5t3 44.5q-1 42 -17.5 56t-58.5 9q-29 -4 -55 -13t-51 -20q7 -15 13.5 -28t12.5 -27q9 -23 5.5 -44.5t-8.5 -43.5q-21 -93 -87 -160q-31 -33 -57 -18q-26 13 -18 56q2 11 4.5 22.5t6.5 22.5q13 32 25.5 62.5t25.5 62.5q8 19 18 35
q5 8 12.5 14.5t15.5 15.5q-8 3 -15 5t-14 6q-11 5 -11.5 14t9.5 16q5 4 13 6q35 12 71 23.5t71 22.5q7 2 14 2.5t14 1.5q83 3 89 -79q2 -30 -1 -59t-8 -58l-12 -72t-11 -71q-4 -21 -0.5 -41t8.5 -40q2 -5 6 -11t10 -17q8 15 14.5 24.5t10.5 19.5q11 26 21 52.5t21 52.5
q16 38 31 74.5t31 73.5q4 11 14 25q16 20 36 3q9 -6 15 -15q28 -34 62.5 -39.5t73.5 3.5q8 2 16.5 6t16.5 7q6 2 12 3.5t12 1.5zM-24 91q20 13 38.5 36t32 50t20 53.5t2.5 46.5q-9 -3 -14 -5.5t-9 -6.5t-8.5 -11t-11.5 -20q-27 -46 -40.5 -83t-9.5 -60z" />
    <glyph glyph-name="grave" unicode="`" horiz-adv-x="238" 
d="M44 517q-15 10 -15 24.5t15 22.5q11 5 19 1.5t15 -9.5q13 -11 24.5 -21.5t24.5 -21.5q8 -6 15.5 -12t15.5 -13q4 -4 7 -9t7 -11q-5 -4 -8.5 -7.5t-6.5 -3.5q-10 -1 -21 4q-8 4 -16 8.5t-16 9.5q-15 10 -30 19t-30 19z" />
    <glyph glyph-name="asciicircum" unicode="^" horiz-adv-x="297" 
d="M263 540q3 -15 0 -24t-11 -8q-11 1 -14.5 9t-5.5 16q-3 10 -8 37.5t-10.5 59t-10.5 60t-8 40.5q-16 -9 -26 -20t-18 -22q-6 -8 -22.5 -29t-35 -44.5t-34.5 -44.5t-22 -29q-3 -4 -5.5 -8t-5.5 -6q-8 -6 -15.5 -8.5t-17.5 3.5q-8 5 -11.5 14t0.5 20q2 5 4.5 10t6.5 8
q13 13 37 39t50 54.5t50 53.5t38 37q27 23 40.5 17.5t20.5 -40.5l7 -38.5t10 -59t10 -59z" />
    <glyph glyph-name="e.calt" unicode="&#xe005;" horiz-adv-x="389" 
d="M-21 124q-8 10 -13 23.5t-6.5 28t0.5 28.5t8 26q14 27 26 55t32 51q14 16 28.5 31.5t30.5 29.5q29 25 65 24q23 0 36 -13.5t11 -36.5q-2 -25 -20.5 -50t-36.5 -40q-29 -24 -60 -46.5t-62 -45.5q-8 -5 -16 -10.5t-4 -18.5q8 -30 35 -30q20 -1 39.5 0t37.5 6
q54 15 100.5 44t89.5 64q12 10 25 21.5t24 25t18.5 28.5t8.5 32q0 4 3.5 8.5t5.5 3.5q5 -2 10 -4.5t6 -6.5q2 -17 -3 -34q-7 -30 -36 -60.5t-66 -58t-75 -49t-63 -32.5t-51 -18t-56 -6q-20 -2 -38.5 5t-33.5 25zM124 382q-39 -20 -62.5 -53t-40.5 -72q30 14 58.5 29.5
t53.5 38.5q8 8 14 16.5t11 17.5q2 5 1.5 11.5t-3.5 10.5q-3 3 -9.5 3.5t-12.5 0.5q-2 1 -5 -0.5z" />
    <glyph glyph-name="d.swsh" unicode="&#xe01e;" horiz-adv-x="875" 
d="M-26 117q-20 -4 -33.5 7.5t-11.5 32.5q3 24 15.5 50t29.5 50t35.5 45.5t35.5 38.5q11 10 24.5 14t27.5 -1q16 -6 23.5 -19t11.5 -28q4 -18 -14 -30q-6 -5 -15 -5q-10 0 -18 8q-4 4 -7.5 7t-6.5 6q-18 -9 -35 -25t-31 -35.5t-24.5 -40.5t-14.5 -41q6 1 12 1t11 2
q29 16 58 31t57 32q22 14 34 23t18 19.5t9 25.5t7 41q9 59 32.5 117.5t57.5 112t75 100.5t86 85q15 13 35 26.5t42 24.5t45 18t44 7q17 0 30 -5q23 -8 33 -26t4 -41q-11 -41 -36.5 -76.5t-53.5 -66.5q-81 -91 -170 -175.5t-184 -159.5q-21 -16 -15 -43q15 -77 86 -105
q41 -16 83 -19.5t85 0.5q54 6 113 22t113.5 44t98.5 68t67 93q4 8 0 13.5t-12 7.5q-7 1 -14 0t-14 1q-4 1 -8.5 4t-4.5 5q2 5 4.5 10.5t5.5 5.5q13 1 25.5 1.5t24.5 -2.5q13 -2 19 -13t6 -25q0 -15 -6.5 -27.5t-14.5 -24.5q-35 -53 -88 -93t-115 -66t-128 -39t-127 -13
q-18 0 -36.5 1.5t-36.5 6.5q-51 9 -89.5 34.5t-55.5 76.5q-2 8 -5 17l-7 21q-27 -19 -52 -36t-51 -33q-8 -5 -19.5 -12t-23.5 -13.5t-24.5 -11.5t-21.5 -6zM192 283q10 7 16.5 10.5t11.5 8.5q27 22 63.5 52.5t76.5 66t81 75t77 79t64.5 77t43.5 69.5q6 13 9 27t-7 27
q-10 14 -24.5 16t-30.5 0q-8 -2 -20.5 -6t-25 -10t-24 -12t-18.5 -10q-56 -38 -107 -90t-91 -113.5t-65 -129.5t-30 -137z" />
    <glyph glyph-name="backslash" unicode="\" horiz-adv-x="751" 
d="M25 750q7 8 19 8.5t22 -7.5q8 -6 14 -13t13 -15q33 -40 65.5 -79.5t67.5 -78.5q70 -79 140.5 -157t142.5 -157q45 -49 86.5 -99t79.5 -104q5 -8 10 -15.5t8 -15.5q1 -2 -2.5 -7t-7.5 -11q-7 5 -12 8.5t-8 8.5q-15 20 -28.5 39.5t-29.5 37.5q-54 61 -106.5 121.5
t-108.5 119.5q-88 94 -173.5 186.5t-178.5 180.5q-5 5 -9 11t-8 11q-8 13 4 27z" />
    <glyph glyph-name="equal" unicode="=" horiz-adv-x="473" 
d="M381 343q8 -2 12.5 -6.5t2.5 -13.5q-2 -8 -7.5 -11.5t-13.5 -2.5q-41 9 -81 3.5t-81 -6.5q-23 -1 -44.5 -4.5t-43.5 -5.5q-15 -3 -32 -3q-14 0 -22.5 7.5t-8.5 18.5q-2 26 29 29q2 1 7 1q64 -1 127.5 -1t127.5 -1q7 0 13.5 -1t14.5 -3zM381 224q8 -2 12.5 -6.5t2.5 -13.5
t-7.5 -12t-13.5 -3q-20 5 -40.5 5.5t-40.5 -1t-40.5 -4t-40.5 -2.5q-23 -1 -44.5 -4.5t-43.5 -6.5l-16 -2t-16 -1q-14 1 -22.5 8.5t-8.5 18.5q-1 11 7 19t22 10h7h127.5t127.5 -1q7 0 13.5 -1t14.5 -3z" />
    <glyph glyph-name="Preview" unicode="&#xe000;" horiz-adv-x="7203" 
d="M7 167q-4 11 2 21t19 15q15 6 31 9q49 11 97 21.5t98 19.5q17 4 28 12t19 25q36 79 81 152t100 140q29 35 60 68t63 66q11 12 20 24.5t13 28.5q8 31 16.5 61.5t16.5 62.5q2 8 2.5 16t1.5 16q0 6 -0.5 12.5t-1.5 15.5q-8 -6 -13 -11t-11 -9q-9 -6 -17 -6q-10 0 -18 8
q-15 15 -5 32q11 19 30.5 35t43.5 16q17 0 27 -10.5t11 -30.5q1 -17 -2 -33.5t-7 -33.5q-5 -25 -12 -49.5t-14 -50.5q-2 -5 -3 -12t-4 -18q15 8 26 13.5t22 10.5q27 12 48 12q57 0 62 -79q2 -42 -6.5 -82t-21.5 -78q-17 -52 -36 -103t-37 -102q-4 -10 -8.5 -19.5t-3.5 -23.5
q10 -1 19.5 -1.5t18.5 -1.5q12 -2 20 -7q2 -1 3 -5t1 -7q-1 -2 -3.5 -4t-4.5 -2h-17t-18 2q-11 1 -18.5 1t-13 -3t-9.5 -9.5t-8 -16.5q-32 -74 -63 -147.5t-54 -150.5q-3 -8 -6 -15t-7 -15q-1 -2 -5 -2.5t-7 0.5q-2 0 -3.5 3t-0.5 5q2 8 3.5 15.5t4.5 15.5q25 63 50 125.5
t51 125.5q12 31 25 59q-12 7 -22.5 6t-21.5 -3q-41 -6 -80.5 -13t-80.5 -12q-16 -2 -24.5 -9.5t-15.5 -20.5q-30 -62 -60 -123t-61 -123q-9 -17 -18 -34.5t-19 -34.5q-7 -12 -16.5 -21t-25.5 -5q-17 4 -20 16.5t-5 25.5q-5 40 0.5 78.5t16.5 76.5q7 23 14.5 45.5t15.5 45.5
l4 14t5 16q-8 -1 -13 -1t-10 -2q-45 -14 -89.5 -28.5t-89.5 -29.5l-10 -4t-10 -3q-14 -4 -24 0.5t-15 15.5zM468 302q10 -3 11 -3q50 7 98.5 14t98.5 12q13 2 19.5 8t11.5 17q10 26 20.5 52.5t20.5 52.5q21 57 39.5 114.5t26.5 117.5q2 19 1.5 37.5t-5.5 36.5
q-5 19 -14.5 25.5t-29.5 4.5q-12 0 -24 -5l-30 -16t-29 -16q-22 -13 -31 -38q-35 -100 -79 -194.5t-92 -188.5q-3 -7 -6 -14.5t-7 -16.5zM609 683q-27 -19 -58 -51.5t-62.5 -72t-60.5 -82.5t-52.5 -83t-38.5 -72.5t-17 -51.5q52 6 104 21q7 2 12.5 8.5t8.5 13.5
q24 51 48 101.5t47 101.5q18 42 35 83.5t34 83.5zM234 2q-2 -18 -1.5 -37t13.5 -39q8 11 14 20t11 18q38 72 73.5 144t72.5 147q-26 -1 -48 -7t-43 -10q-17 -2 -27 -11.5t-15 -25.5q-18 -49 -31.5 -98.5t-18.5 -100.5zM773 144q-2 5 0 11.5t4 12.5q5 17 13.5 43t19 53
t23 50.5t26.5 35.5q7 7 17 7q8 0 13 -4q8 -5 12 -13t1 -17q-3 -8 -8 -15t-10 -15q-12 -22 -20.5 -35t-20.5 -34q-2 -3 -1.5 -6.5t0.5 -7.5q8 5 15.5 10.5t15.5 10.5q22 17 43.5 34t44.5 32q9 6 20.5 8.5t22.5 4.5q20 3 28 -18l6 -20l6 -20q8 -29 31.5 -43t47.5 -14
q15 0 26 4t24.5 12.5t26.5 19t24.5 21t20.5 18.5q6 5 11.5 10.5t12.5 10.5q2 2 6.5 2.5t6.5 -1.5q5 -7 5 -16q0 -7 -7 -12q-15 -15 -33.5 -33t-39 -33.5t-43 -25.5t-45.5 -10q-31 0 -58 16.5t-41 45.5q-5 12 -9.5 24.5t-9.5 25.5q-14 2 -24.5 -4.5t-20.5 -13.5
q-34 -23 -64 -50.5t-57 -58.5q-5 -6 -10.5 -12.5t-11.5 -10.5q-6 -3 -13.5 -4t-12.5 2q-5 2 -8.5 9t-5.5 13zM838 206q1 1 1.5 2t1.5 2q-1 -1 -2 -1q0 -2 -1 -3zM1215 144q-2 5 0 11.5t4 12.5q5 17 13.5 43t19 53t23 50.5t26.5 35.5q7 7 17 7q8 0 13 -4q8 -5 12 -13t1 -17
q-3 -8 -8 -15t-10 -15q-12 -22 -20.5 -35t-20.5 -34q-2 -3 -1.5 -6.5t0.5 -7.5q8 5 15.5 10.5t15.5 10.5q22 17 43.5 34t44.5 32q9 6 20.5 8.5t22.5 4.5q20 3 28 -18l6 -20l6 -20q8 -29 31.5 -43t47.5 -14q15 0 26 4t24.5 12.5t26.5 19t24.5 21t20.5 18.5q6 5 11.5 10.5
t12.5 10.5q2 2 6.5 2.5t6.5 -1.5q5 -7 5 -16q0 -7 -7 -12q-15 -15 -33.5 -33t-39 -33.5t-43 -25.5t-45.5 -10q-31 0 -58 16.5t-41 45.5q-5 12 -9.5 24.5t-9.5 25.5q-14 2 -24.5 -4.5t-20.5 -13.5q-34 -23 -64 -50.5t-57 -58.5q-5 -6 -10.5 -12.5t-11.5 -10.5q-6 -3 -13.5 -4
t-12.5 2q-5 2 -8.5 9t-5.5 13zM1280 206q1 1 1.5 2t1.5 2q-1 -1 -2 -1q0 -2 -1 -3zM1675 198q-6 7 -5.5 16.5t7.5 16.5q9 9 12 20l6 22q11 43 30 70.5t49 57.5q18 16 38 16q12 0 21 -5q16 -9 19.5 -24t1.5 -32q-6 -51 -38 -88t-72 -66q-8 -5 -13.5 -9t-7.5 -8t-1.5 -9.5
t4.5 -14.5q17 -38 50 -29q21 6 36 16q52 29 91 66t78 80q11 -9 10 -15.5t-6 -12.5q-17 -21 -40.5 -46t-51 -48t-56.5 -41.5t-56 -25.5q-56 -14 -80 40q-7 14 -11 28t-15 25zM1724 251q36 12 58.5 36t35.5 59q4 8 4 20q0 19 -13 19q-5 0 -13 -5q-61 -48 -72 -129zM1911 466
q-1 9 3.5 15.5t12.5 9.5q22 8 42 8q29 2 57 2.5t57 -0.5q28 0 41 26q12 26 33 63t46 74t53 68.5t54 46.5q15 10 26 -2q10 -10 3 -23l-21 -33q-34 -49 -68 -97.5t-68 -97.5q-2 -3 -3.5 -7t-3.5 -10h29q32 3 63.5 6.5t63.5 4.5q17 1 27 7.5t18 20.5q19 34 38 67l38 66
q11 18 20 36t19 36q5 8 12.5 17t16.5 9q4 0 9 -3q13 -10 -1 -28q-32 -40 -54.5 -84t-43.5 -90q-5 -10 -8.5 -20.5t-8.5 -21.5q9 -9 18 -9t17 2q18 3 37 3q4 0 22 -1t38.5 -2.5t37 -3t17.5 -2.5q4 -3 7 -7l6 -8q-4 -2 -8 -6t-8 -4q-29 0 -57 0.5t-57 1.5q-14 0 -28.5 -1
t-28.5 0q-30 1 -39 -28l-26 -76t-25 -76q-16 -54 -26 -108.5t-15 -110.5q-3 -31 -2.5 -62t8.5 -62q5 -17 15 -29.5t30 -14.5q9 -1 18.5 2.5t18.5 6.5q5 2 11 5t11 -5t0 -13t-11 -10q-20 -14 -44 -14q-19 0 -35.5 9.5t-27.5 29.5q-14 24 -17 50.5t-1 53.5q2 58 10 109.5
t20 100.5t27 98.5t33 102.5q4 12 4 30q-18 -17 -29.5 -38t-23.5 -41q-51 -82 -101 -163.5t-101 -163.5q-10 -16 -21.5 -30.5t-23.5 -28.5q-9 -11 -21 -18.5t-28 -2.5q-16 6 -20 19.5t-5 28.5q-3 43 3 84.5t16 83.5l4 26l4 26q-5 -3 -10.5 -5.5t-11.5 -4.5q-15 -5 -26.5 5
t-6.5 26q2 9 8 16.5t12 15.5l90 111q5 5 8 11t8 14q-9 7 -18 6t-17 -3q-23 -3 -45.5 -7.5t-45.5 -8.5l-14 -2t-14 1q-19 3 -22 25zM2011 82q-1 -11 0.5 -21t3.5 -21q3 -16 12 -16q6 0 16 10t20.5 22.5t19.5 25t12 17.5q44 68 86.5 135t85.5 135q17 28 34 56.5t36 59.5
q-7 1 -10.5 2t-5.5 1q-40 -4 -79.5 -7.5t-79.5 -8.5q-8 -1 -16 -6t-13 -11q-17 -25 -33 -49.5t-27 -51.5q-53 -130 -62 -272zM2216 630q12 6 14 20q-8 -2 -10.5 -7t-3.5 -13zM2018 273q-1 -2 -1 -6q1 2 2 2.5t2 1.5q0 2 -2 4q0 -1 -0.5 -1t-0.5 -1zM2198 605l2 2zM2426 113
q-8 10 -13 23.5t-6.5 28t0.5 28.5t8 26q14 27 26 55t32 51q14 16 28.5 31.5t30.5 29.5q29 25 65 24q23 0 36 -13.5t11 -36.5q-2 -25 -20.5 -50t-36.5 -40q-29 -24 -60 -46.5t-62 -45.5q-8 -5 -16 -10.5t-4 -18.5q8 -30 35 -30q20 -1 39.5 0t37.5 6q54 15 100.5 44t89.5 64
q12 10 25 21.5t24 25t18.5 28.5t8.5 32q0 4 3.5 8.5t5.5 3.5q5 -2 10 -4.5t6 -6.5q2 -17 -3 -34q-7 -30 -36 -60.5t-66 -58t-75 -49t-63 -32.5t-51 -18t-56 -6q-20 -2 -38.5 5t-33.5 25zM2571 371q-39 -20 -62.5 -53t-40.5 -72q30 14 58.5 29.5t53.5 38.5q8 8 14 16.5
t11 17.5q2 5 1.5 11.5t-3.5 10.5q-3 3 -9.5 3.5t-12.5 0.5q-2 1 -5 -0.5zM3201 328q-14 3 -21 17t1 28q7 13 15 24.5t19 20.5q38 35 77 68.5t80 65.5q29 23 60.5 43.5t62.5 40.5q15 10 25.5 21.5t15.5 29.5q5 20 12.5 39t12.5 39q5 17 8.5 34.5t6.5 34.5q7 35 33 35
q11 -1 17.5 -6t5.5 -16q0 -9 -2.5 -18.5t-5.5 -18.5q-11 -29 -23.5 -58t-26.5 -64q13 6 21.5 9.5t16.5 7.5q61 32 124 58t129 44q9 2 17.5 4.5t17.5 3.5q11 1 21.5 0.5t20.5 -2.5q19 -5 27 -18t1 -30q-11 -30 -33.5 -62t-50 -62t-56.5 -57t-53 -48q-74 -63 -147.5 -125.5
t-148.5 -125.5q-8 -7 -16.5 -16t-21.5 -20q32 0 62 1t62 7q12 2 24 3t24 1q11 0 22 -1t22 -4q11 -2 20.5 1.5t19.5 8.5q30 18 57.5 32t55 25.5t57 20.5t63.5 15q8 2 15.5 0t15.5 -4q2 -1 4 -4t4 -5l-5 -5t-5 -3q-14 -2 -27 -1.5t-26 -1.5q-57 -10 -106.5 -33.5t-100.5 -54.5
q23 -19 29.5 -41t-0.5 -48q-8 -24 -26.5 -50t-42 -50t-48.5 -44.5t-45 -34.5q-20 -15 -37.5 -26t-35 -20t-36.5 -15.5t-43 -12.5q-8 -2 -16 -1t-16 3q-17 4 -24.5 12t-4.5 25q4 21 1 40.5t-6 39.5q-4 27 0 53.5t9 52.5q11 59 28 115.5t37 113.5q18 54 36.5 107.5t37.5 107.5
q2 7 3 13.5t3 13.5l-7 4q-23 -17 -47 -33.5t-46 -36.5q-35 -30 -68.5 -62t-66.5 -64q-11 -11 -19.5 -24t-10.5 -31q-2 -17 -12.5 -23.5t-25.5 -2.5zM3419 262q1 0 5 -2q14 13 27.5 26t27.5 25q52 43 104.5 85t103.5 86q57 48 110.5 98.5t100.5 108.5q25 32 43 69q8 17 2 25
t-26 6q-38 -5 -81 -18t-85.5 -30t-83 -37t-73.5 -38q-22 -12 -34.5 -28t-20.5 -38q-17 -46 -34 -91.5t-34 -91.5q-14 -38 -26.5 -77t-25.5 -78zM3378 -52q-1 -13 5.5 -16.5t14.5 -4.5q20 -2 37.5 2.5t34.5 12.5q49 23 91.5 54t80.5 69q17 17 30.5 37t27.5 40q15 20 12 47
q-2 17 -11.5 26.5t-23.5 9.5q-15 0 -47 -21.5t-67 -50t-66 -55.5t-43 -39q-12 -13 -23.5 -26.5t-22.5 -27.5q-20 -25 -7 -30q10 -4 14.5 2.5t9.5 12.5q4 4 7 7.5t8 8.5q9 -10 8 -18t-5 -16q-5 -11 -12.5 -15.5t-16.5 -6t-18 -1.5t-18 -1zM3392 166q-7 -32 -13 -64t-4 -65
q1 -6 2.5 -12t4.5 -17q57 68 121 120.5t133 103.5q-23 4 -50 4q-26 0 -49 -4q-17 -2 -35 -5t-35 -5q-16 -2 -30 2t-22 27q-7 -25 -12.5 -45t-10.5 -40zM3892 87q-8 2 -12.5 9.5t-2.5 17.5q4 19 8 37.5t9 37.5q8 28 16.5 55t15.5 55q5 16 6.5 32.5t4.5 32.5q2 14 8 25
q3 5 9.5 7t12.5 -1q5 -2 9 -6.5t5 -9.5q3 -17 -1 -32q-4 -14 -8.5 -28.5t-9.5 -29.5q-1 -5 -1 -9.5t-1 -9.5l21 24l9.5 9.5t9.5 8.5q7 6 18 6q10 0 18 -8q27 -23 57 -23q23 0 47 12q4 2 7.5 3.5t7.5 1.5q3 1 6.5 -1t5.5 -4q4 -6 0 -13q-1 -3 -9 -9q-29 -18 -66 -18
q-16 0 -31 4.5t-28 15.5q-8 7 -15 7q-8 0 -20.5 -17t-25.5 -38.5t-23 -42.5t-13 -28q-5 -11 -8.5 -21t-8.5 -21q-2 -5 -3.5 -9t-3.5 -8q-2 -7 -6.5 -11.5t-13.5 -2.5zM3958 266l1 2q-1 -1 -1 -2zM4031 110q-1 10 0.5 21t6.5 19q11 22 23.5 42.5t26.5 39.5q9 12 27.5 33
t40 41.5t44 36t38.5 15.5q21 0 32 -15q11 -18 21 -37t5 -43q-5 -20 -7 -41t-3 -42q-1 -14 1.5 -27t6.5 -26q8 -27 40 -25q14 0 25.5 6t20.5 15q23 21 44.5 43t41.5 45q17 19 31 39.5t29 40.5q2 2 3.5 4t3.5 3q7 2 9 1q8 -6 8 -11q-2 -6 -3.5 -12t-5.5 -11q-33 -46 -69 -89
t-81 -79q-15 -12 -31.5 -18t-36.5 -4q-30 1 -45 27q-24 39 -21 83q2 15 3.5 29.5t3.5 29.5q0 5 -0.5 10t-1.5 16q-39 -42 -78 -82.5t-81 -79.5q-8 -7 -17 -12t-18 -9q-14 -5 -24.5 1.5t-12.5 21.5zM4074 145q-2 -4 -2.5 -8.5t-2.5 -11.5q18 10 44 32.5t52 48t46 49.5t26 37
q-8 7 -14 4.5t-11 -6.5q-43 -29 -78.5 -64t-59.5 -81zM4444 73q-23 -4 -34 7.5t-5 33.5q6 24 25.5 54.5t44 61.5t49.5 58.5t42 44.5l15 12t21.5 15t23 12.5t18.5 5.5q14 0 27 -10q7 -5 11 -12t2 -16q-5 -20 -24 -23q-5 -1 -9.5 0t-8.5 0q-11 -3 -21.5 -5.5t-18.5 -7.5
q-49 -36 -87.5 -80.5t-68.5 -97.5q-2 -3 -3.5 -8t-4.5 -13q11 4 18 6t12 5q14 10 27.5 19.5t26.5 20.5q48 41 91 85.5t85 90.5q11 12 17.5 26.5t11.5 30.5q66 202 184 380q11 16 25 34.5t30.5 35t35 29.5t38.5 18q23 7 38.5 -6.5t11.5 -37.5q-2 -17 -11 -33
q-15 -24 -30.5 -48t-32.5 -47q-65 -85 -129.5 -169.5t-128.5 -169.5q-17 -24 -25 -51q-14 -45 -18.5 -90.5t-1.5 -92.5q2 -18 7.5 -34t19.5 -30q23 -20 52 -16q18 3 34 10t31 17q23 15 50.5 38t54.5 48.5t52 50t45 43.5q7 7 14 13.5t15 13.5q1 1 4 0.5t5 -1.5q2 -2 2.5 -5
t-1.5 -5q-6 -11 -13 -16q-18 -17 -42 -40.5t-49.5 -48.5t-50.5 -48t-44 -39q-10 -9 -24.5 -19t-30.5 -18t-33 -13.5t-31 -5.5q-30 0 -53 19.5t-32 55.5q-8 28 -8 56t3 57q2 16 5 31.5t5 31.5q1 2 0 4.5l-3 7.5q-5 -5 -9.5 -9t-8.5 -9q-35 -36 -70.5 -73t-71.5 -72
q-7 -7 -18.5 -17t-25 -19.5t-26.5 -17t-23 -9.5zM4800 519q-11 -26 -21 -52.5t-21 -52.5l4 -2l4 -2q2 4 8 12q60 79 118.5 157.5t117.5 158.5q15 20 27 41.5t24 43.5q5 8 6 16.5t-7 16.5q-4 5 -11 5q-5 0 -10.5 -3t-10.5 -5q-6 -4 -12 -7.5t-11 -8.5q-14 -15 -28.5 -29.5
t-27.5 -30.5q-46 -60 -82 -124.5t-67 -133.5zM4853 -320q-2 13 -0.5 26t4.5 27q11 53 28.5 102.5t40.5 98.5q25 54 52 107t53 107q7 14 13.5 28.5t5.5 32.5q-8 2 -15.5 2t-13.5 3q-5 3 -10.5 9t-6.5 11q-1 6 2.5 12.5t8.5 11.5t13 8t16 8q0 6 -0.5 12t0.5 12q2 14 13 14
q6 0 11 -4q4 -4 7 -8t8 -9q19 8 32 22t23 31q38 69 76.5 138t76.5 139q16 28 32 55.5t34 53.5q4 6 11 15t15.5 17t18 14t17.5 6t15 -4q11 -7 14 -17t-1 -21q-26 -96 -79.5 -179.5t-117.5 -158.5q-32 -36 -63.5 -72t-64.5 -73q22 -14 45 -16t47 2q35 5 68 18t65 30
q6 3 12.5 6.5t12.5 5.5q7 2 10 -3q1 -2 1.5 -6t-0.5 -6q-1 -5 -9 -11q-44 -26 -89 -44.5t-97 -18.5q-17 0 -33.5 3t-32.5 7q-18 4 -22.5 2t-13.5 -18q-10 -17 -14 -36t-8 -39q-23 -102 -50.5 -201t-72.5 -195q-7 -14 -15.5 -27.5t-16.5 -27.5q-4 -8 -13 -17q-10 -8 -19 -8
t-15.5 6t-8.5 17zM4882 -255q-5 -14 -5.5 -28t4.5 -31q27 31 49.5 80t40.5 103t32 106.5t24 91.5q2 5 1.5 11t0.5 12l-9.5 -9.5t-7.5 -10.5l-38 -76t-35 -78q-17 -42 -30 -84.5t-27 -86.5zM5217 441q-6 -12 -11.5 -24.5t-11.5 -24.5q5 4 9.5 6.5t8.5 7.5q64 71 117 147
t85 167q2 6 4.5 12.5t-5.5 14.5q-10 -5 -21 -16.5t-21 -25.5t-18.5 -28t-13.5 -23q-31 -54 -61.5 -106.5t-60.5 -106.5zM5190 387q0 1 2 3q-2 -1 -2 -3zM6027 286q8 1 12 -6t-1 -13t-10 -11.5t-11 -7.5q-30 -13 -60.5 -20t-63.5 0q-44 9 -71 39q-4 5 -7.5 10.5t-9.5 14.5
q-8 -13 -13 -20.5t-8 -15.5q-20 -49 -39.5 -97.5t-39.5 -97.5q-13 -31 -30 -64q-7 -11 -16.5 -20.5t-25.5 -7.5q-15 2 -22 12.5t-12 24.5q-18 51 -11 101q5 38 11.5 74t11.5 74q3 22 6 43.5t3 44.5q-1 42 -17.5 56t-58.5 9q-29 -4 -55 -13t-51 -20q7 -15 13.5 -28t12.5 -27
q9 -23 5.5 -44.5t-8.5 -43.5q-21 -93 -87 -160q-31 -33 -57 -18q-26 13 -18 56q2 11 4.5 22.5t6.5 22.5q13 32 25.5 62.5t25.5 62.5q8 19 18 35q5 8 12.5 14.5t15.5 15.5q-8 3 -15 5t-14 6q-11 5 -11.5 14t9.5 16q5 4 13 6q35 12 71 23.5t71 22.5q7 2 14 2.5t14 1.5
q83 3 89 -79q2 -30 -1 -59t-8 -58l-12 -72t-11 -71q-4 -21 -0.5 -41t8.5 -40q2 -5 6 -11t10 -17q8 15 14.5 24.5t10.5 19.5q11 26 21 52.5t21 52.5q16 38 31 74.5t31 73.5q4 11 14 25q16 20 36 3q9 -6 15 -15q28 -34 62.5 -39.5t73.5 3.5q8 2 16.5 6t16.5 7q6 2 12 3.5
t12 1.5zM5339 91q20 13 38.5 36t32 50t20 53.5t2.5 46.5q-9 -3 -14 -5.5t-9 -6.5t-8.5 -11t-11.5 -20q-27 -46 -40.5 -83t-9.5 -60zM5987 117q-20 -4 -33.5 7.5t-11.5 32.5q3 24 15.5 50t29.5 50t35.5 45.5t35.5 38.5q11 10 24.5 14t27.5 -1q16 -6 23.5 -19t11.5 -28
q4 -18 -14 -30q-6 -5 -15 -5q-10 0 -18 8q-4 4 -7.5 7t-6.5 6q-18 -9 -35 -25t-31 -35.5t-24.5 -40.5t-14.5 -41q6 1 12 1t11 2q29 16 58 31t57 32q22 14 34 23t18 19.5t9 25.5t7 41q9 59 32.5 117.5t57.5 112t75 100.5t86 85q15 13 35 26.5t42 24.5t45 18t44 7q17 0 30 -5
q23 -8 33 -26t4 -41q-11 -41 -36.5 -76.5t-53.5 -66.5q-81 -91 -170 -175.5t-184 -159.5q-21 -16 -15 -43q15 -77 86 -105q41 -16 83 -19.5t85 0.5q54 6 113 22t113.5 44t98.5 68t67 93q4 8 0 13.5t-12 7.5q-7 1 -14 0t-14 1q-4 1 -8.5 4t-4.5 5q2 5 4.5 10.5t5.5 5.5
q13 1 25.5 1.5t24.5 -2.5q13 -2 19 -13t6 -25q0 -15 -6.5 -27.5t-14.5 -24.5q-35 -53 -88 -93t-115 -66t-128 -39t-127 -13q-18 0 -36.5 1.5t-36.5 6.5q-51 9 -89.5 34.5t-55.5 76.5q-2 8 -5 17l-7 21q-27 -19 -52 -36t-51 -33q-8 -5 -19.5 -12t-23.5 -13.5t-24.5 -11.5
t-21.5 -6zM6205 283q10 7 16.5 10.5t11.5 8.5q27 22 63.5 52.5t76.5 66t81 75t77 79t64.5 77t43.5 69.5q6 13 9 27t-7 27q-10 14 -24.5 16t-30.5 0q-8 -2 -20.5 -6t-25 -10t-24 -12t-18.5 -10q-56 -38 -107 -90t-91 -113.5t-65 -129.5t-30 -137z" />
    <glyph glyph-name="uni0000" horiz-adv-x="0" 
 />
    <glyph glyph-name="uni000D" horiz-adv-x="250" 
 />
    <glyph glyph-name="exclam" unicode="!" horiz-adv-x="388" 
d="M152 275q-3 1 -6 5.5t-3 7.5q0 9 9.5 33.5t22.5 52.5t25 53t17 34q35 70 71.5 138.5t71.5 138.5q10 20 17 41t15 42q2 7 4.5 13.5t5.5 12.5q14 23 32 18q11 -3 16 -12t4 -29q-2 -5 -5.5 -15t-8.5 -20q-14 -25 -28.5 -49t-28.5 -49q-37 -68 -73.5 -134.5t-72.5 -134.5
q-15 -28 -28 -57t-27 -58q-3 -7 -6.5 -14t-8.5 -14q-2 -2 -7 -4t-8 0zM118 118q-1 -6 -5 -15.5t-10 -17.5t-14 -14t-15 -6q-10 0 -17 9t-7 26q3 6 7.5 17.5t11.5 22.5q6 10 19 10q7 0 12 -3q8 -5 13.5 -12t4.5 -17z" />
  </font>
</defs>
</svg>
