<?xml version="1.0" standalone="no"?>
<!DOCTYPE svg PUBLIC "-//W3C//DTD SVG 1.1//EN" "http://www.w3.org/Graphics/SVG/1.1/DTD/svg11.dtd" >
<svg xmlns="http://www.w3.org/2000/svg" xmlns:xlink="http://www.w3.org/1999/xlink" version="1.1">
<metadata>
Created by FontForge 20170924 at Fri Aug  2 07:45:09 2019
 By www-data
Copyright \(c\) 2019 by Nicky Laatz. All rights reserved.
</metadata>
<defs>
<font id="BonVivantSerif" horiz-adv-x="461" >
  <font-face 
    font-family="Bon Vivant Serif"
    font-weight="400"
    font-stretch="normal"
    units-per-em="1000"
    panose-1="0 0 0 0 0 0 0 0 0 0"
    ascent="800"
    descent="-200"
    x-height="465"
    cap-height="696"
    bbox="-69 -290 1183 915"
    underline-thickness="50"
    underline-position="-125"
    stemh="35"
    stemv="31"
    unicode-range="U+000D-FB02"
  />
<missing-glyph horiz-adv-x="250" 
 />
    <glyph glyph-name=".notdef" horiz-adv-x="250" 
 />
    <glyph glyph-name="uni0000" horiz-adv-x="0" 
 />
    <glyph glyph-name="uni0000" horiz-adv-x="0" 
 />
    <glyph glyph-name="uni000D" unicode="&#xd;" horiz-adv-x="250" 
 />
    <glyph glyph-name="space" unicode=" " horiz-adv-x="258" 
 />
    <glyph glyph-name="uni0000.1" horiz-adv-x="0" 
 />
    <glyph glyph-name="uni000D.1" horiz-adv-x="250" 
 />
    <glyph glyph-name="four" unicode="4" horiz-adv-x="543" 
d="M31 203v19l325 427l33 -3v-429h129v-14h-129c-1 -170 2 -189 75 -203h-221c63 12 74 22 74 187v16h-286zM49 217h268c-2 134 1 209 1 343z" />
    <glyph glyph-name="exclam" unicode="!" horiz-adv-x="258" 
d="M130 81c28 0 50 -20 50 -45c0 -27 -22 -46 -50 -46c-29 0 -49 20 -49 46c0 25 21 45 49 45zM130 706c26 0 41 -17 41 -41c0 -79 -6 -161 -18 -240c0 -16 -2 -33 -3 -49c-5 -66 -12 -131 -13 -198h-16c-2 82 -7 165 -16 247c-1 13 -2 26 -4 39c-6 67 -13 135 -13 201
c0 24 15 41 42 41z" />
    <glyph glyph-name="quotedbl" unicode="&#x22;" horiz-adv-x="286" 
d="M79 732c23 0 31 -27 31 -49c0 -71 -14 -87 -25 -156h-11c-13 69 -26 85 -26 156c0 22 9 49 31 49zM206 729c23 0 31 -27 31 -49c0 -71 -15 -87 -25 -156h-11c-14 69 -26 85 -26 156c0 22 8 49 31 49z" />
    <glyph glyph-name="numbersign" unicode="#" horiz-adv-x="752" 
d="M187 178h-97v13h103l88 218h-147v13h152l84 204h50l-83 -204h205l85 210h51l-86 -210h105v-13h-110l-90 -218h156v-13h-161l-84 -208h-51l85 208h-204l-88 -214h-50zM243 191h204l90 218h-205z" />
    <glyph glyph-name="dollar" unicode="$" horiz-adv-x="524" 
d="M39 48c0 45 5 91 13 137h5c2 -98 61 -183 178 -187v310c-96 47 -194 97 -194 190c0 101 96 144 194 150v115h33v-114c60 -1 121 -13 175 -37c0 -48 -7 -96 -15 -146h-6c-2 88 -52 169 -154 176v-282c102 -48 213 -94 213 -202c0 -112 -106 -159 -213 -165v-92h-33v91
c-67 1 -146 17 -196 56zM268 291v-292c85 6 150 48 150 137c0 71 -70 114 -150 155zM235 642c-69 -6 -131 -47 -131 -115c0 -73 59 -114 131 -151v266z" />
    <glyph glyph-name="percent" unicode="%" horiz-adv-x="902" 
d="M60 510c0 87 45 184 174 184c78 0 125 -37 149 -85c12 0 24 -1 36 -1c180 4 274 71 274 71h41l-502 -720h-41l469 673c-83 -40 -175 -48 -266 -48c8 -24 12 -50 12 -74c0 -85 -44 -181 -172 -181c-129 0 -174 96 -174 181zM520 141c0 87 46 184 174 184s172 -99 172 -184
s-44 -181 -172 -181s-174 96 -174 181zM580 141c0 -50 24 -169 114 -169c89 0 113 100 113 169c0 52 -19 174 -113 174c-86 0 -114 -107 -114 -174zM163 651c-25 -31 -43 -91 -43 -141s23 -169 114 -169c88 0 112 100 112 169c0 20 -3 50 -11 80c-78 13 -140 45 -170 63z
M234 684c-18 0 -34 -4 -46 -12c33 -19 73 -43 138 -55c-17 37 -46 67 -92 67z" />
    <glyph glyph-name="ampersand" unicode="&#x26;" horiz-adv-x="704" 
d="M275 430c-212 42 -201 303 44 303c40 0 95 -11 135 -11c8 0 16 1 23 2l-3 -149c-1 4 -8 3 -8 7c-9 140 -105 123 -147 127c-82 0 -127 -58 -127 -135c0 -76 59 -139 140 -144c11 -1 12 -2 -3 -3c-115 -5 -217 -109 -217 -218c0 -139 101 -231 237 -231
c133 0 266 98 265 225c-1 48 -31 141 -112 144c-7 -1 -14 -1 -22 -2c-28 -2 -55 -6 -80 -18c-38 -18 -66 -63 -49 -97c9 -17 21 -22 34 -22c21 0 44 13 60 13c8 0 15 -3 19 -12c8 -18 -4 -31 -22 -40c-9 -4 -17 -6 -26 -6c-31 0 -57 24 -70 47c-30 57 2 121 70 154
s178 19 231 45c35 17 50 47 35 76c-23 42 -86 11 -101 39c-5 10 0 26 14 33c7 3 14 5 21 5c30 0 57 -28 68 -48c29 -56 8 -111 -60 -145c-16 -8 -33 -13 -50 -16c40 -39 53 -96 53 -150c-8 -170 -173 -235 -290 -235c-142 0 -297 92 -303 233c-7 148 148 213 241 229z" />
    <glyph glyph-name="quotesingle" unicode="'" horiz-adv-x="151" 
d="M75 732c23 0 31 -27 31 -49c0 -71 -14 -87 -25 -156h-11c-13 69 -26 85 -26 156c0 22 9 49 31 49z" />
    <glyph glyph-name="parenleft" unicode="(" horiz-adv-x="271" 
d="M240 -93l-14 -12c-24 20 -45 43 -62 63c-91 102 -140 223 -140 359c0 153 70 303 186 406l17 15l13 -11c-100 -110 -150 -265 -150 -410c0 -148 48 -300 150 -410z" />
    <glyph glyph-name="parenright" unicode=")" horiz-adv-x="271" 
d="M174 49c-32 -49 -67 -100 -113 -139l-17 -14l-13 11c101 110 150 265 150 410c0 144 -49 302 -150 410l13 11c21 -17 38 -35 53 -52c4 -4 7 -7 10 -11c90 -103 140 -225 140 -358c0 -89 -26 -193 -73 -268z" />
    <glyph glyph-name="asterisk" unicode="*" horiz-adv-x="411" 
d="M234 704l-22 -142l116 86l28 -48l-132 -55l132 -52l-28 -49l-116 87l22 -142h-59l22 142l-115 -87l-28 49l131 52l-131 55l28 48l115 -86l-22 142h59z" />
    <glyph glyph-name="plus" unicode="+" horiz-adv-x="575" 
d="M266 341h-156v43h156v151h43v-150h156v-43h-156v-151l-43 -1v151z" />
    <glyph glyph-name="comma" unicode="," horiz-adv-x="195" 
d="M117 -45c0 50 -73 20 -73 81c0 30 25 45 52 45c43 0 57 -40 57 -76c0 -63 -41 -116 -91 -151l-7 9c32 21 62 51 62 92z" />
    <glyph glyph-name="hyphen" unicode="-" horiz-adv-x="400" 
d="M343 252h-298v52h298v-52z" />
    <glyph glyph-name="period" unicode="." horiz-adv-x="185" 
d="M93 81c28 0 49 -20 49 -45c0 -27 -21 -46 -49 -46c-29 0 -49 20 -49 46c0 25 21 45 49 45z" />
    <glyph glyph-name="slash" unicode="/" horiz-adv-x="341" 
d="M64 -48h-45l271 689h44z" />
    <glyph glyph-name="zero" unicode="0" horiz-adv-x="538" 
d="M147 93c24 -46 62 -90 120 -90c60 0 96 44 120 89c37 66 47 152 47 226c0 94 -32 320 -167 320c-59 0 -97 -46 -121 -92c-37 -67 -49 -153 -49 -228c0 -74 12 -160 50 -225zM100 561c42 56 94 88 166 88c178 0 232 -191 232 -331c0 -143 -50 -328 -231 -328
c-177 0 -234 184 -234 328c0 84 15 174 67 243z" />
    <glyph glyph-name="one" unicode="1" horiz-adv-x="310" 
d="M20 513l174 136c2 1 4 2 5 2c11 0 6 -33 6 -73c0 -127 -1 -253 -1 -367v-21c0 -40 1 -148 29 -173c8 -9 23 -14 37 -17h-187c8 2 16 5 21 10c9 5 16 13 22 25c10 17 13 57 14 93c1 37 1 75 1 94v264v21c0 26 -3 49 -24 49c-9 0 -20 -3 -35 -12s-38 -26 -56 -36
c-2 -1 -4 -1 -5 -1c-4 0 -6 4 -1 6z" />
    <glyph glyph-name="two" unicode="2" horiz-adv-x="547" 
d="M490 0h-458v11c98 124 374 287 374 450c0 80 -55 166 -138 166c-88 0 -150 -66 -172 -143l-13 -1c17 89 90 175 210 175c107 0 196 -76 196 -182c0 -159 -288 -315 -397 -418h321c63 0 68 28 76 62h11z" />
    <glyph glyph-name="three" unicode="3" horiz-adv-x="494" 
d="M177 316l-7 9c75 58 149 120 149 222c0 55 -34 92 -93 92c-72 0 -146 -59 -168 -124l-8 2c17 85 112 147 198 147c72 0 142 -40 142 -117c0 -66 -56 -124 -111 -156c107 0 179 -68 179 -172c0 -147 -146 -236 -280 -236c-81 0 -156 49 -156 101c0 16 15 33 32 33
c42 0 16 -119 149 -119h13c102 5 169 95 167 192c-1 68 -37 157 -121 157c-31 0 -60 -14 -85 -31z" />
    <glyph glyph-name="five" unicode="5" horiz-adv-x="494" 
d="M79 111h4c57 0 -7 -98 137 -104c101 0 163 79 163 176c0 99 -50 188 -164 188c-43 0 -101 -34 -131 -64l-19 12l16 299c54 3 109 6 162 10c7 1 12 2 17 2c28 3 54 4 81 10c21 5 51 14 62 39h5v-93h-302l-12 -246c41 32 89 49 144 49c120 0 213 -61 213 -185
c0 -130 -122 -209 -244 -209c-5 0 -11 1 -17 1c-77 5 -120 30 -139 78c-10 26 8 36 24 37z" />
    <glyph glyph-name="six" unicode="6" horiz-adv-x="576" 
d="M275 -10c-169 4 -216 183 -210 320c7 148 62 327 249 328c92 1 166 -49 163 -116c-1 -18 -19 -26 -35 -26c-44 2 1 127 -127 131c-154 0 -180 -239 -180 -353c43 60 114 93 187 93c124 -5 185 -84 179 -201c-8 -118 -119 -176 -226 -176zM312 350
c-83 0 -129 -35 -177 -100c3 -104 30 -244 148 -247c102 0 143 75 149 167c4 79 -22 175 -120 180z" />
    <glyph glyph-name="seven" unicode="7" horiz-adv-x="510" 
d="M69 527v111h415v-1c-105 -124 -241 -340 -241 -507c0 -18 2 -35 5 -52c5 -18 9 -36 9 -54c0 -19 -22 -34 -46 -34c-27 0 -41 23 -41 50c0 162 159 435 266 561l11 13h-15c-69 0 -215 -1 -283 -21c-37 -12 -64 -31 -75 -66h-5z" />
    <glyph glyph-name="eight" unicode="8" horiz-adv-x="524" 
d="M227 300c-69 -28 -114 -87 -114 -160c0 -80 48 -157 147 -157c91 0 141 69 141 148c0 90 -102 137 -174 169zM390 494c0 73 -50 130 -134 130c-77 0 -133 -46 -133 -118c0 -89 103 -129 172 -156c63 37 95 80 95 144zM64 475c0 99 97 165 192 165c87 0 187 -53 187 -147
c0 -78 -68 -122 -136 -148l-4 -2l4 -2c81 -35 158 -90 158 -182c0 -111 -96 -188 -206 -188c-99 0 -203 63 -203 168c0 87 75 137 151 167l5 2l-5 2c-72 32 -143 82 -143 165z" />
    <glyph glyph-name="nine" unicode="9" horiz-adv-x="513" 
d="M213 259c-124 5 -184 84 -178 201c7 119 118 176 225 176c169 -4 217 -183 211 -320c-8 -148 -62 -327 -250 -328c-91 -1 -166 49 -162 116c1 18 19 26 35 26c44 -2 -1 -127 126 -131c148 0 174 211 180 322c0 10 1 21 1 32c-45 -60 -114 -94 -188 -94zM104 456
c-4 -79 22 -175 119 -180c83 0 130 35 178 100c-3 104 -31 244 -149 247c-102 0 -143 -75 -148 -167z" />
    <glyph glyph-name="colon" unicode=":" horiz-adv-x="185" 
d="M93 455c28 0 49 -20 49 -46s-21 -45 -49 -45c-29 0 -49 20 -49 45c0 26 21 46 49 46zM93 181c28 0 49 -20 49 -45c0 -27 -21 -46 -49 -46c-29 0 -49 20 -49 46c0 25 21 45 49 45z" />
    <glyph glyph-name="semicolon" unicode=";" horiz-adv-x="185" 
d="M93 365c28 0 49 -20 49 -46s-21 -45 -49 -45c-29 0 -49 20 -49 45c0 26 21 46 49 46zM125 -33c-13 26 -82 26 -75 77c6 32 31 38 59 38c42 -5 49 -51 44 -89c-7 -60 -51 -99 -109 -130l-6 10c58 27 87 58 87 94z" />
    <glyph glyph-name="less" unicode="&#x3c;" horiz-adv-x="525" 
d="M469 119l-397 178v33l397 177v-39l-353 -154l353 -155v-40z" />
    <glyph glyph-name="equal" unicode="=" horiz-adv-x="518" 
d="M80 342v43h356v-43h-356zM80 261h356v-42h-356v42z" />
    <glyph glyph-name="greater" unicode="&#x3e;" horiz-adv-x="525" 
d="M57 159l352 155l-352 154v39l396 -177v-33l-396 -178v40z" />
    <glyph glyph-name="question" unicode="?" horiz-adv-x="371" 
d="M156 169v34c0 162 151 205 151 362c0 60 -22 153 -116 153c-35 0 -100 -12 -100 -58c0 -27 30 -38 30 -69c0 -29 -17 -44 -47 -44c-35 0 -48 33 -48 62c0 88 91 119 169 122c101 0 195 -57 195 -168c0 -156 -195 -209 -211 -339c-2 -18 -1 -37 -1 -55h-22zM167 91
c23 0 41 -19 41 -40c0 -22 -16 -43 -41 -43c-26 0 -44 19 -44 43c0 23 19 40 44 40z" />
    <glyph glyph-name="at" unicode="@" horiz-adv-x="1130" 
d="M723 255c-28 -109 -5 -205 91 -205h10c139 9 191 218 191 345c0 241 -198 409 -446 409c-251 0 -448 -200 -448 -491s202 -491 459 -491c175 0 369 99 436 238h23c-72 -150 -275 -251 -459 -251c-291 0 -516 201 -516 504s220 504 505 504c283 0 502 -169 502 -422
c0 -142 -96 -349 -249 -360c-6 0 -12 -1 -17 -1c-100 0 -152 66 -159 146c-39 -68 -95 -94 -175 -94c-92 0 -155 69 -155 174c0 167 102 279 257 279c67 0 115 -35 129 -91l21 81h70zM387 272c0 -90 47 -160 118 -160c72 0 125 55 148 143l39 153c-1 67 -49 118 -121 118
c-111 0 -184 -106 -184 -254z" />
    <glyph glyph-name="A" unicode="A" horiz-adv-x="678" 
d="M-4 1c59 19 96 133 123 213c56 161 113 321 170 482h62l181 -482c22 -48 58 -167 97 -200c8 -7 20 -11 33 -14l-201 -2c107 3 30 136 8 203l-20 53c-39 -33 -88 -37 -138 -37c-13 0 -27 1 -40 1c-55 0 -107 -5 -147 -46l-27 -86c-16 -48 0 -78 21 -85h-122zM130 194
c88 72 226 -1 314 74l-148 398z" />
    <glyph glyph-name="B" unicode="B" horiz-adv-x="559" 
d="M20 0c69 18 61 125 61 182c0 28 12 428 -17 480c-10 18 -25 28 -44 34h191c94 0 285 -15 284 -152c0 -139 -168 -172 -248 -184c111 -5 283 -15 283 -169c0 -160 -169 -193 -297 -193c-17 0 -34 1 -49 2h-164zM446 187c0 155 -139 166 -260 166h-42
c1 -136 3 -266 10 -293c7 -26 16 -39 38 -51c8 0 17 -1 25 -1c114 0 229 46 229 179zM144 363c112 0 276 16 275 176c-1 144 -168 147 -273 147c0 -33 -2 -178 -2 -323z" />
    <glyph glyph-name="C" unicode="C" horiz-adv-x="723" 
d="M677 606v-164h-6c-4 171 -166 254 -290 254c-205 0 -276 -174 -276 -346s70 -345 266 -345c145 0 285 110 312 254l11 -4c-22 -128 -152 -263 -306 -265c-223 -3 -363 148 -363 358c0 209 140 355 356 358c123 0 199 -29 296 -100z" />
    <glyph glyph-name="D" unicode="D" horiz-adv-x="701" 
d="M243 10c214 0 352 93 352 338c0 254 -144 338 -361 338c-30 0 -60 -1 -90 -4h2v-520c0 -40 -3 -134 43 -151zM24 696h161c81 0 192 -4 266 -30c153 -49 225 -179 225 -317c0 -230 -183 -349 -420 -349h-236c14 3 25 8 37 17c28 23 29 166 29 205v264v21
c0 39 -1 149 -29 173c-10 8 -21 13 -33 16z" />
    <glyph glyph-name="E" unicode="E" horiz-adv-x="558" 
d="M528 0h-505c14 3 25 8 37 17c28 22 29 167 29 205v285c0 39 -1 149 -29 173c-10 8 -21 13 -33 16h462v-104h-6c-10 34 -31 57 -66 70c-63 24 -204 24 -269 24v-364h117c78 0 104 8 112 97h5v-201h-5c-5 103 -54 94 -199 95h-30v-179c0 -48 7 -121 61 -123
c18 -1 39 -1 61 -1c101 0 234 12 251 99h7v-109z" />
    <glyph glyph-name="F" unicode="F" horiz-adv-x="539" 
d="M224 0h-204c14 3 25 8 37 17c28 23 29 166 29 205v285c0 39 -1 149 -29 173c-10 8 -21 13 -33 16h473v-101h-6c-11 32 -38 54 -73 67c-62 23 -199 26 -264 26h-6v-366h114c78 0 104 8 112 97h5v-202h-5c-5 103 -54 94 -199 95h-27v-90c0 -16 0 -52 1 -87
c3 -41 7 -115 55 -131h-1c3 0 6 -1 8 -2c3 -1 8 -1 13 -2z" />
    <glyph glyph-name="G" unicode="G" horiz-adv-x="749" 
d="M436 311l290 6c-11 -4 -24 -11 -32 -25c-25 -45 -14 -174 -16 -231c-79 -46 -200 -71 -291 -71c-215 0 -362 150 -362 358c0 209 140 358 356 358c74 0 207 -22 270 -59v-127h-5c-19 126 -162 176 -265 176c-207 0 -276 -174 -276 -347c0 -181 78 -348 288 -348
c77 0 183 12 221 86l1 2v81c0 30 -1 75 -6 101c-10 44 -172 32 -173 40z" />
    <glyph glyph-name="H" unicode="H" horiz-adv-x="712" 
d="M53 680c-10 8 -22 13 -33 16h184c-12 -3 -26 -8 -33 -16c-17 -12 -24 -60 -27 -102c-2 -42 -2 -87 -2 -103v-211c112 105 329 1 431 120v91c0 40 0 156 -17 188c-4 11 -12 18 -20 24c-6 4 -13 7 -20 9h173c-7 -2 -12 -5 -18 -10c-9 -5 -16 -13 -20 -24
c-9 -17 -13 -56 -15 -93s-2 -75 -2 -94v-253c0 -39 1 -157 18 -187c3 -11 9 -19 20 -25c5 -5 14 -8 20 -10h-179c21 6 36 15 44 35c9 17 13 57 15 93c1 37 1 75 1 94v144c-105 -113 -323 -7 -431 -120v-56c0 -39 1 -150 29 -173c8 -9 24 -14 37 -17h-186c7 2 15 5 20 10
c9 6 17 13 22 25c10 17 13 57 14 93c1 37 1 75 1 94v285c0 38 -1 152 -26 173z" />
    <glyph glyph-name="I" unicode="I" horiz-adv-x="288" 
d="M50 696h183c-11 -3 -25 -8 -32 -16c-16 -12 -24 -60 -27 -102c-2 -42 -2 -87 -2 -103v-264v-21c0 -40 1 -148 29 -173c8 -9 24 -14 37 -17h-186c7 2 15 5 20 10c10 5 17 13 22 25c10 17 13 57 14 93c1 37 1 75 1 94v264v21c0 38 -1 152 -26 173c-10 8 -22 13 -33 16z" />
    <glyph glyph-name="J" unicode="J" horiz-adv-x="472" 
d="M273 696h178c-61 -15 -57 -85 -58 -135c-1 -113 1 -217 0 -323c-2 -140 -27 -259 -191 -259c-139 0 -175 98 -169 156c2 25 15 35 39 35c77 -3 -25 -177 126 -177h12c133 7 113 216 119 299v272c2 76 -15 121 -56 132z" />
    <glyph glyph-name="K" unicode="K" horiz-adv-x="670" 
d="M206 0h-186c14 3 26 8 37 17c28 23 29 166 29 205v285c0 38 -1 149 -29 173c-10 8 -21 13 -33 16h179c-19 -5 -32 -17 -40 -34c-16 -30 -16 -148 -16 -187v-191c130 37 312 265 312 376c0 15 -6 28 -20 35h1l-3 1h163c-82 -16 -121 -81 -162 -149
c-54 -89 -158 -241 -291 -273c0 -44 -5 -197 16 -239c9 -19 23 -30 43 -35zM264 323c228 -9 220 -299 333 -299h5c40 3 72 44 72 44c-16 -47 -68 -70 -114 -70c-123 4 -147 289 -296 325z" />
    <glyph glyph-name="L" unicode="L" horiz-adv-x="536" 
d="M493 104v-104h-473c18 5 35 17 42 35c20 33 15 165 15 187v253c0 39 0 158 -15 188c-8 17 -20 28 -37 33h177c-12 -3 -25 -8 -34 -16c-15 -12 -23 -60 -25 -102c-3 -43 -3 -88 -3 -103v-342c1 -27 3 -54 6 -74c6 -25 15 -47 46 -49c23 -1 45 -1 64 -1c53 0 95 3 139 13
c45 15 76 38 90 82h8z" />
    <glyph glyph-name="M" unicode="M" horiz-adv-x="924" 
d="M20 699l99 -3l330 -545l319 545h132c-12 -3 -24 -8 -33 -16c-27 -22 -28 -166 -28 -205v-295c0 -38 2 -139 28 -163c10 -9 23 -14 37 -17h-190c13 3 25 7 36 16c16 12 22 59 24 99c3 26 3 52 3 74v489l-351 -598l-310 495v-376c0 -24 0 -55 4 -86c4 -46 12 -102 67 -113
h-155s3 0 7 1c1 0 1 0 2 1c57 16 58 128 58 177v340c0 48 -22 163 -79 180z" />
    <glyph glyph-name="N" unicode="N" horiz-adv-x="691" 
d="M99 500c0 102 12 174 -89 196h115l461 -610l3 400v14c0 48 -1 159 -45 187c-6 4 -15 7 -23 9h150c-7 -2 -16 -5 -22 -9c-44 -27 -45 -139 -45 -187v-505h-25l-464 614v-410c0 -48 1 -159 43 -188c8 -5 19 -9 28 -11h-158c8 2 18 6 27 11c43 29 44 138 44 188v301z" />
    <glyph glyph-name="O" unicode="O" horiz-adv-x="814" 
d="M706 347c0 174 -97 349 -302 349c-209 0 -298 -175 -298 -347c0 -175 98 -349 304 -349c207 0 296 176 296 347zM786 354c0 -209 -156 -364 -376 -364s-382 155 -382 365c0 211 156 351 376 351c217 0 382 -140 382 -352z" />
    <glyph glyph-name="P" unicode="P" horiz-adv-x="571" 
d="M20 696h227c131 0 299 -63 299 -227c0 -188 -176 -258 -339 -258c-21 0 -41 1 -61 3v-24c0 -37 1 -149 29 -173c10 -9 25 -14 37 -17h-192c13 3 25 8 37 17c28 23 29 166 29 205v285c0 38 -1 148 -29 172c-12 9 -23 14 -37 17zM477 453c0 210 -156 233 -330 233l-1 -457
c22 -4 44 -7 67 -7c131 0 265 74 264 231z" />
    <glyph glyph-name="Q" unicode="Q" horiz-adv-x="778" 
d="M25 355c0 211 136 351 356 351c217 0 361 -140 361 -352c0 -137 -58 -250 -159 -313l12 -6c80 -43 154 -72 212 -72c12 0 23 1 34 4c60 9 97 55 98 53c-1 2 -36 -52 -98 -72c-18 -8 -39 -11 -61 -11c-52 0 -115 20 -183 55c-19 10 -38 19 -57 28
c-44 -20 -96 -30 -153 -30c-220 0 -362 155 -362 365zM381 696c-209 0 -277 -175 -277 -347c0 -136 46 -271 163 -325c12 15 39 45 85 59c17 7 36 11 57 11c43 0 93 -14 146 -39c78 66 108 180 108 292c0 174 -77 349 -282 349zM270 23c33 -15 72 -23 117 -23
c51 0 94 11 130 30c-51 21 -97 34 -136 34c-38 0 -82 -17 -111 -41z" />
    <glyph glyph-name="R" unicode="R" horiz-adv-x="575" 
d="M20 696h227c131 0 280 -63 280 -227c0 -167 -128 -241 -268 -256c165 -23 138 -173 237 -173h8c40 3 69 28 69 28c-17 -47 -67 -70 -114 -70c-118 4 -111 167 -241 213c-24 0 -48 0 -72 3v-24c0 -37 2 -149 29 -173c11 -9 25 -14 37 -17h-192c13 3 26 8 37 17
c28 23 29 166 29 205v285c0 38 -1 148 -29 172c-11 9 -23 14 -37 17zM459 453c-1 209 -130 233 -311 233l-2 -457c22 -4 44 -7 66 -7c126 0 248 74 247 231z" />
    <glyph glyph-name="S" unicode="S" horiz-adv-x="568" 
d="M56 305c-30 -113 49 -304 220 -304h5c130 3 242 108 204 232c-59 190 -427 88 -417 328c3 82 77 145 217 145c70 0 141 -11 205 -40c0 -53 -7 -106 -16 -159h-7c10 131 -59 186 -181 189c-73 0 -152 -45 -157 -125c-10 -176 369 -79 409 -327
c24 -149 -115 -256 -262 -254c-74 1 -199 33 -243 121c0 50 2 143 11 193z" />
    <glyph glyph-name="T" unicode="T" horiz-adv-x="637" 
d="M25 591v105h587v-108h-7c-11 96 -180 98 -254 98v-464c0 -40 -1 -157 19 -187c8 -19 27 -30 47 -35h-194c22 5 36 16 47 35c20 32 17 145 17 187v464c-81 0 -230 -1 -256 -95h-6z" />
    <glyph glyph-name="U" unicode="U" horiz-adv-x="707" 
d="M15 696h183c-6 -2 -14 -5 -21 -11c-8 -5 -16 -12 -20 -23c-9 -16 -12 -57 -14 -94c-1 -37 -1 -75 -1 -93v-216c0 -147 61 -256 224 -256c168 0 239 119 239 269v226c0 24 0 55 -4 85c-5 47 -11 101 -66 113h157c-9 -2 -20 -6 -27 -11c-43 -25 -44 -141 -44 -187v-224
c0 -168 -84 -284 -265 -284c-189 0 -276 93 -276 274v243c0 39 -1 148 -28 172c-11 9 -26 14 -37 17z" />
    <glyph glyph-name="V" unicode="V" horiz-adv-x="714" 
d="M65 665c-15 18 -32 27 -49 31h177c-14 -4 -30 -14 -30 -35c0 -28 9 -61 20 -94c3 -12 9 -23 14 -35c8 -20 16 -39 21 -55l167 -447c54 149 105 298 159 447c2 8 6 18 10 31c11 32 35 104 35 134c0 28 -9 43 -27 51c-1 0 -5 2 -9 3h144c-1 -1 -2 -1 -4 -1h1
c-36 -10 -65 -50 -85 -92c-16 -30 -27 -63 -37 -91c-4 -11 -8 -21 -11 -29l-173 -484h-58l-181 484c-13 35 -59 152 -84 182z" />
    <glyph glyph-name="W" unicode="W" horiz-adv-x="1088" 
d="M532 430l6 -20l-147 -411h-59l-183 484c-13 35 -60 152 -85 182c-14 18 -33 27 -48 31h178c-15 -4 -30 -14 -30 -35c0 -28 9 -61 19 -94c6 -12 10 -23 14 -35c8 -20 17 -39 22 -55l169 -447c47 128 97 271 144 400zM398 695h179c-15 -4 -31 -14 -31 -35
c0 -28 10 -61 21 -94l189 -536c54 149 106 298 160 447c2 8 7 18 11 31c10 32 34 104 34 134c0 28 -8 43 -27 51c-1 0 -5 2 -8 3h146h-2c-1 -1 -1 -1 -3 -1h1c-64 -18 -102 -125 -123 -183c-6 -11 -9 -21 -12 -29l-174 -484h-60l-166 483c-13 35 -61 152 -86 182
c-14 18 -33 27 -49 31z" />
    <glyph glyph-name="X" unicode="X" horiz-adv-x="696" 
d="M10 0l6 1c101 24 241 242 300 333c-34 50 -71 99 -103 150c-40 64 -123 192 -200 211h2l-4 1h172c-23 -5 -18 -27 -11 -42s163 -241 183 -266c12 10 159 224 170 246c5 10 9 21 9 32c0 15 -9 26 -24 30h150c-106 -22 -225 -225 -296 -321c55 -80 218 -334 290 -366
c11 -4 22 -7 32 -9h-181c11 5 17 8 17 21c0 29 -29 62 -46 86c-51 71 -101 143 -150 215c-32 -43 -61 -87 -91 -131c-29 -42 -64 -83 -86 -128c-7 -11 -10 -23 -10 -36c0 -14 11 -24 24 -27h-153z" />
    <glyph glyph-name="Y" unicode="Y" horiz-adv-x="656" 
d="M15 696h169c-13 -4 -23 -14 -23 -29c0 -48 170 -320 205 -378c37 86 162 307 162 369c0 19 -10 32 -29 38h142c-13 -3 -29 -7 -42 -13c-51 -23 -210 -381 -222 -404v-57c0 -66 -17 -207 72 -222h-204c66 16 67 108 67 162v106c-40 65 -84 149 -123 215
c-31 52 -113 196 -172 212h1z" />
    <glyph glyph-name="Z" unicode="Z" horiz-adv-x="604" 
d="M58 590v106h526v-16l-500 -669h180h29c83 0 218 3 263 60c7 9 12 20 15 30h6v-101h-557v20l490 666c-21 0 -51 1 -86 1c-123 0 -305 -8 -351 -75c-3 -7 -6 -14 -8 -22h-7z" />
    <glyph glyph-name="bracketleft" unicode="[" horiz-adv-x="262" 
d="M258 -115h-183v834h183v-6h-116v-822h116v-6z" />
    <glyph glyph-name="backslash" unicode="\" horiz-adv-x="341" 
d="M277 -48l-270 689h43l272 -689h-45z" />
    <glyph glyph-name="bracketright" unicode="]" horiz-adv-x="262" 
d="M186 -115h-182v6h115v822h-115v6h182v-834z" />
    <glyph glyph-name="asciicircum" unicode="^" horiz-adv-x="561" 
d="M152 538l111 132h32l110 -132h-39l-88 105l-86 -105h-40z" />
    <glyph glyph-name="underscore" unicode="_" horiz-adv-x="507" 
d="M465 -70h-418v30h418v-30z" />
    <glyph glyph-name="grave" unicode="`" horiz-adv-x="360" 
d="M206 552l-1 1c-5 1 -16 9 -20 12l-96 77c-13 10 -34 22 -30 42c2 11 11 16 21 16c14 -2 26 -18 35 -29l84 -95c2 -3 13 -11 12 -18c-1 -3 -3 -6 -5 -6z" />
    <glyph glyph-name="a" unicode="a" 
d="M32 141c0 78 86 147 220 147c30 0 58 -5 86 -15v38c0 71 -9 158 -106 158c-101 0 -71 -104 -131 -104c-22 0 -30 10 -30 30c0 62 124 81 170 81c42 0 82 -12 115 -39c32 -31 43 -73 43 -116l-1 -180c0 -32 1 -95 12 -117c7 -14 22 -21 36 -24h-191
c-152 -1 -223 62 -223 141zM260 280c-128 0 -161 -82 -161 -139s29 -135 156 -135c20 0 51 0 65 15c12 24 16 89 16 127l1 120c-18 5 -44 12 -77 12z" />
    <glyph glyph-name="b" unicode="b" horiz-adv-x="544" 
d="M10 744c43 4 86 8 133 8l-3 -332c33 31 88 56 143 56c141 0 228 -108 228 -244c0 -134 -82 -242 -222 -242c-35 0 -74 2 -106 10h-158c15 3 29 10 38 25c13 28 13 104 13 137c0 132 10 503 -9 546c-14 20 -33 31 -57 36zM284 470c-57 0 -112 -31 -144 -69l-2 -252
c0 -29 0 -102 12 -125c35 -23 91 -28 139 -28c126 0 155 140 155 236c0 97 -33 238 -160 238z" />
    <glyph glyph-name="c" unicode="c" horiz-adv-x="445" 
d="M246 -10c-135 0 -212 112 -212 238c0 139 70 248 220 248c44 0 161 -15 161 -75c0 -19 -11 -26 -33 -26c-27 0 -36 25 -48 44c-13 25 -32 52 -79 52c-128 0 -154 -140 -154 -236c0 -98 37 -232 161 -232c60 0 110 23 142 78h8c-35 -63 -91 -91 -166 -91z" />
    <glyph glyph-name="d" unicode="d" horiz-adv-x="531" 
d="M412 389c-31 43 -91 80 -154 80c-127 0 -160 -140 -160 -237c0 -96 32 -233 159 -233c50 0 106 5 141 30c12 30 12 101 12 133c0 51 1 137 2 227zM400 708c-15 20 -32 31 -57 36c42 4 86 8 133 8l-5 -603c0 -29 0 -102 12 -125c9 -14 23 -21 36 -24h-160
s-81 -10 -102 -10c-141 0 -226 108 -226 242c0 136 88 244 228 244c61 0 122 -31 153 -67c0 136 -1 274 -12 299z" />
    <glyph glyph-name="e" unicode="e" horiz-adv-x="491" 
d="M262 466c-110 0 -146 -141 -154 -218h302c-3 75 -35 218 -148 218zM477 238h-370c0 -116 29 -235 177 -235c68 0 140 43 180 109h6c-34 -79 -121 -122 -201 -122c-146 0 -235 110 -235 237s71 249 223 249c141 0 217 -118 220 -238z" />
    <glyph glyph-name="f" unicode="f" horiz-adv-x="335" 
d="M21 435h92c0 163 8 307 160 307c79 0 137 -69 137 -125c0 -21 -20 -30 -39 -30c-54 0 15 147 -107 145c-102 -2 -91 -170 -91 -238v-59h136v-14h-136v-231c0 -38 -1 -148 29 -173c10 -9 23 -14 36 -17h-180c69 20 55 166 55 222v199h-92v14z" />
    <glyph glyph-name="g" unicode="g" horiz-adv-x="485" 
d="M23 -148c0 56 56 94 105 94c11 0 22 -2 32 -6c-45 -6 -72 -47 -72 -88c0 -75 31 -129 153 -131c89 0 176 47 176 146c0 179 -356 48 -354 188c1 57 61 75 104 92c-85 20 -137 80 -137 161c0 101 81 168 202 168c19 0 37 -2 53 -5c13 16 63 72 138 72c7 0 14 0 21 -1
c19 -3 31 -17 28 -34c-5 -20 -19 -33 -39 -33c-16 2 -23 30 -65 30c-33 0 -50 -14 -72 -36c85 -19 138 -79 138 -161c0 -101 -80 -168 -202 -168c-13 0 -26 1 -37 2c-31 -4 -81 -18 -81 -57c0 -86 372 2 366 -189c-3 -98 -107 -185 -241 -185c-80 0 -216 39 -216 141z
M232 466c-83 0 -137 -64 -137 -159c0 -96 54 -160 137 -160c82 0 136 64 136 160c0 95 -54 159 -136 159z" />
    <glyph glyph-name="h" unicode="h" horiz-adv-x="547" 
d="M11 725c43 4 86 8 133 8l4 -333c34 37 101 79 167 79c127 0 180 -77 180 -178v-141c0 -30 2 -113 15 -136c7 -13 21 -20 36 -24h-163c16 4 29 11 36 25c14 24 15 113 15 144l-1 118c0 61 -17 177 -124 177c-66 0 -133 -43 -161 -83l1 -93l-1 -139c0 -29 0 -102 13 -125
c8 -14 21 -21 36 -24h-162c16 3 29 10 38 25c14 28 14 104 14 137c0 132 0 484 -19 527c-14 20 -33 31 -57 36z" />
    <glyph glyph-name="i" unicode="i" horiz-adv-x="225" 
d="M108 669c26 0 47 -20 47 -43c0 -24 -21 -44 -47 -44c-27 0 -46 20 -46 44c0 23 19 43 46 43zM76 432c-13 20 -32 31 -55 36c42 4 85 8 133 8l1 -188l-1 -139c0 -29 0 -102 12 -125c7 -14 22 -21 36 -24h-162c16 3 29 10 37 25c15 28 15 104 15 137c0 132 4 227 -16 270z
" />
    <glyph glyph-name="j" unicode="j" horiz-adv-x="289" 
d="M-14 -192c21 -8 32 -62 75 -62c3 0 7 0 10 1c65 11 58 179 58 244v252c0 48 7 184 -35 211c-7 4 -22 12 -33 14h5c33 0 92 8 125 8v-422c0 -140 5 -332 -167 -332c-34 0 -74 6 -86 44c-8 26 7 46 30 46c5 0 12 -1 18 -4zM92 616c0 23 20 43 46 43c27 0 46 -20 46 -43
c0 -24 -19 -44 -46 -44c-26 0 -46 20 -46 44zM56 468h5h-5z" />
    <glyph glyph-name="k" unicode="k" horiz-adv-x="496" 
d="M8 724c44 5 88 8 132 8v-505c70 25 228 144 228 204c0 13 -5 27 -18 34h137c-69 -18 -151 -125 -217 -174c-17 -13 -36 -25 -55 -37c8 -2 19 -3 21 -4c153 -27 159 -217 276 -250h-62c-62 0 -113 95 -143 145c-24 38 -53 90 -95 107c-28 -17 -56 -31 -72 -37v-55
c0 -32 0 -109 15 -135c7 -14 20 -21 36 -25h-165c66 16 54 116 54 169v442c0 54 -5 109 -72 113z" />
    <glyph glyph-name="l" unicode="l" horiz-adv-x="218" 
d="M25 726h1c42 4 81 7 123 7v-564c0 -33 0 -116 14 -143c9 -15 22 -22 36 -26h-162c14 4 30 11 37 25c14 26 14 111 14 144v389c0 28 0 122 -14 141c-3 9 -8 12 -16 16l-1 1c-10 6 -19 9 -32 10z" />
    <glyph glyph-name="m" unicode="m" horiz-adv-x="815" 
d="M8 468c43 4 86 8 133 8v-73c29 36 70 76 133 76c85 0 137 -34 162 -87c29 39 72 87 141 87c128 0 181 -77 181 -178v-141c0 -30 2 -113 14 -136c8 -13 22 -20 37 -24h-163c16 4 28 11 36 25c14 24 15 113 15 144l-1 118c0 61 -18 177 -125 177c-66 0 -104 -45 -129 -85
c9 -23 13 -50 13 -78v-141c0 -30 2 -113 14 -136c8 -13 22 -20 37 -24h-163c16 4 28 11 36 25c14 24 15 113 15 144l-1 118c0 61 -18 177 -124 177c-65 0 -102 -42 -128 -81l1 -95l-1 -139c0 -29 0 -102 13 -125c8 -14 21 -21 36 -24h-162c15 3 29 10 38 25
c13 28 13 104 13 137c0 132 4 227 -14 270c-14 20 -33 31 -57 36z" />
    <glyph glyph-name="n" unicode="n" horiz-adv-x="540" 
d="M3 468c43 4 86 8 133 8v-75c35 37 102 78 167 78c127 0 180 -77 180 -178v-141c0 -30 2 -113 15 -136c8 -13 21 -20 36 -24h-163c16 4 29 11 37 25c13 24 14 113 14 144l-1 118c0 61 -17 177 -124 177c-65 0 -132 -43 -161 -82l1 -94l-1 -139c0 -29 0 -102 13 -125
c8 -14 22 -21 36 -24h-161c15 3 28 10 37 25c14 28 14 104 14 137c0 132 4 227 -15 270c-14 20 -33 31 -57 36z" />
    <glyph glyph-name="o" unicode="o" horiz-adv-x="500" 
d="M404 232c0 97 -34 237 -159 237c-126 0 -156 -141 -156 -236c0 -97 34 -237 160 -237c125 0 155 140 155 236zM244 476c140 0 226 -108 226 -244c0 -134 -81 -242 -221 -242c-141 0 -226 109 -226 243s79 243 221 243z" />
    <glyph glyph-name="p" unicode="p" horiz-adv-x="536" 
d="M9 468c43 4 86 8 133 8v-52c33 29 86 52 138 52c141 0 228 -108 228 -244c0 -134 -82 -242 -223 -242c-61 0 -114 20 -147 47v-25l-1 -139c0 -29 0 -102 12 -125c9 -14 23 -21 37 -24h-161c14 3 28 10 37 25c13 28 13 104 13 137c0 132 10 503 -9 546
c-14 20 -33 31 -57 36zM281 470c-54 0 -107 -28 -140 -64l-3 -357c33 -30 87 -53 147 -53c127 0 156 140 156 236c0 97 -33 238 -160 238z" />
    <glyph glyph-name="q" unicode="q" horiz-adv-x="517" 
d="M248 -10c-140 0 -222 108 -222 242c0 136 87 244 228 244c53 0 105 -23 138 -52v52c47 0 90 -4 133 -8c-24 -5 -43 -16 -57 -36c-19 -43 -9 -414 -9 -546c0 -33 0 -109 13 -137c9 -15 23 -22 38 -25h-162c15 3 28 10 36 24c13 23 13 96 13 125l-1 139v25
c-33 -27 -86 -47 -148 -47zM253 470c-127 0 -160 -141 -160 -238c0 -96 30 -236 155 -236c61 0 115 23 148 53l-3 357c-33 36 -86 64 -140 64z" />
    <glyph glyph-name="r" unicode="r" horiz-adv-x="371" 
d="M18 468c42 4 85 8 132 8l1 -124c20 79 64 120 146 120c26 -2 62 -19 60 -41c-1 -21 -17 -36 -38 -36c-29 3 -24 39 -85 39h-3c-88 -1 -80 -232 -81 -285c0 -29 0 -102 13 -125c8 -14 21 -21 36 -24h-162c16 3 29 10 37 25c15 28 15 104 15 137c0 132 4 227 -15 270
c-14 20 -33 31 -56 36z" />
    <glyph glyph-name="s" unicode="s" horiz-adv-x="411" 
d="M361 359c-11 63 -66 122 -151 122c-54 0 -107 -44 -107 -103c0 -155 287 -86 287 -257c0 -99 -102 -146 -194 -146c-57 0 -106 14 -153 45c-1 15 -1 30 -1 45c0 16 0 31 1 47l6 1c14 -66 63 -124 148 -124c64 0 132 34 132 106c0 158 -287 83 -287 262
c0 102 103 136 188 136c38 -2 104 -16 139 -31l1 -23c0 -27 -2 -53 -3 -79z" />
    <glyph glyph-name="t" unicode="t" horiz-adv-x="315" 
d="M11 469c128 4 134 84 141 161h14v-156h134v-15h-134v-385c0 -42 18 -58 41 -58c33 0 77 35 85 69l8 -7c-45 -87 -95 -88 -129 -88c-53 0 -67 44 -67 89v380h-93v10z" />
    <glyph glyph-name="u" unicode="u" horiz-adv-x="547" 
d="M62 425c-15 20 -29 39 -53 44h133l-6 -192l-1 -94c0 -61 18 -180 125 -179c70 1 117 49 144 91v88l2 81c1 107 7 123 -10 160c-15 20 -28 39 -53 44h130l-6 -203c-1 -107 -2 -189 14 -226c15 -20 33 -31 57 -36c-42 -4 -88 -8 -135 -8v78c-29 -41 -78 -82 -146 -82
c-115 0 -184 61 -183 178v107c1 107 4 112 -12 149z" />
    <glyph glyph-name="v" unicode="v" 
d="M-28 465h186c-26 -7 -35 -25 -35 -50c0 -78 130 -341 146 -380c23 73 133 312 141 376c5 41 -47 45 -77 54l163 -1c-48 -17 -77 -87 -119 -194l-108 -273h-57l-140 333c-21 51 -38 118 -100 135z" />
    <glyph glyph-name="w" unicode="w" horiz-adv-x="766" 
d="M68 330c-21 51 -36 118 -96 135h178c-24 -7 -33 -25 -33 -50c0 -78 124 -341 140 -380c18 62 97 244 126 337c-15 40 -35 80 -80 93h178c-23 -7 -33 -25 -33 -50c0 -78 124 -341 139 -380c23 73 128 312 137 376c5 41 -46 45 -74 54l156 -1c-46 -17 -73 -87 -113 -194
l-106 -273h-53l-135 333c-2 6 -5 12 -7 18c-9 -23 -19 -49 -30 -78l-105 -273h-54z" />
    <glyph glyph-name="x" unicode="x" horiz-adv-x="449" 
d="M7 465h152c-12 -3 -18 -12 -18 -23c0 -21 83 -156 100 -186c28 42 103 131 103 179c0 15 -10 26 -24 30h116c-9 -2 -19 -4 -27 -7c-24 -7 -145 -187 -164 -212c32 -51 112 -193 152 -224c13 -10 29 -17 45 -22h-164c15 5 20 17 20 31c0 20 -80 152 -93 173
c-26 -38 -99 -130 -99 -173c0 -14 6 -26 20 -31h-111c53 14 88 77 116 119c21 30 46 66 69 95c-17 23 -113 214 -193 251z" />
    <glyph glyph-name="y" unicode="y" 
d="M72 330c-25 51 -38 118 -100 135h165c-25 -7 -37 -24 -34 -50c9 -72 143 -313 160 -352c22 73 139 284 147 348c5 41 -47 45 -77 54l163 -1c-48 -17 -70 -90 -119 -194l-114 -246c-47 -127 -111 -234 -150 -287c-11 -15 -24 -21 -36 -21c-13 0 -25 7 -34 17
c-15 16 -19 57 -7 57c1 0 2 -1 3 -1c8 -3 16 -5 24 -5c58 0 116 80 171 204z" />
    <glyph glyph-name="z" unicode="z" horiz-adv-x="453" 
d="M36 367c-5 32 -9 66 -10 98h402l-320 -459h118c30 0 123 1 152 21c21 16 28 46 30 72h7c3 -34 7 -67 8 -99h-386v3l313 456h-125c-79 0 -177 0 -184 -92h-5z" />
    <glyph glyph-name="braceleft" unicode="{" horiz-adv-x="345" 
d="M24 310v12c50 10 116 42 116 100c0 51 -24 100 -24 151c0 100 97 170 192 181v-14c-63 -6 -121 -49 -121 -114c0 -52 20 -101 20 -153c0 -80 -80 -135 -151 -157c72 -24 151 -73 151 -156c0 -52 -20 -101 -20 -153c0 -65 58 -109 121 -115v-13c-95 11 -192 80 -192 180
c0 52 24 101 24 152c0 58 -66 89 -116 99z" />
    <glyph glyph-name="bar" unicode="|" horiz-adv-x="277" 
d="M112 787l43 -10v-925l-43 10v925z" />
    <glyph glyph-name="braceright" unicode="}" horiz-adv-x="345" 
d="M37 -121v13c63 6 121 50 121 115c0 52 -20 101 -20 153c0 83 79 132 151 156c-71 22 -151 77 -151 157c0 52 20 101 20 153c0 65 -58 108 -121 114v14c95 -11 192 -81 192 -181c0 -51 -24 -100 -24 -151c0 -58 66 -90 116 -100v-12c-50 -10 -116 -41 -116 -99
c0 -51 24 -100 24 -152c0 -100 -97 -169 -192 -180z" />
    <glyph glyph-name="asciitilde" unicode="~" horiz-adv-x="575" 
d="M401 341l22 -25c-20 -29 -39 -55 -79 -55c-53 0 -77 41 -139 41c-28 0 -42 -21 -54 -43l-22 25c16 32 41 55 79 55c46 0 99 -41 136 -41c27 0 43 24 57 43z" />
    <glyph glyph-name="degree" unicode="&#xb0;" horiz-adv-x="419" 
d="M210 676c-40 0 -71 -30 -71 -71s31 -70 71 -70s70 29 70 70s-30 71 -70 71zM210 712c64 0 110 -45 110 -107c0 -63 -46 -107 -110 -107c-65 0 -111 45 -111 108c0 62 46 106 111 106z" />
    <glyph glyph-name="cent" unicode="&#xa2;" horiz-adv-x="557" 
d="M84 319c0 28 7 52 15 76c42 113 145 153 223 154l15 148h26l-15 -149c38 -3 75 -12 112 -26l6 -69c-34 46 -77 71 -120 79l-40 -407c14 -4 28 -6 41 -6c45 0 91 18 130 45l4 -6c-55 -39 -110 -59 -178 -59l-17 -170h-25l17 172c-111 17 -194 105 -194 218zM281 134
l40 402c-103 0 -174 -63 -174 -170c0 -122 66 -201 134 -232z" />
    <glyph glyph-name="sterling" unicode="&#xa3;" horiz-adv-x="567" 
d="M71 312v14h76c-15 43 -32 89 -32 136c0 131 102 201 228 201c47 0 113 -9 159 -23l-5 -96h-6c-34 60 -79 108 -153 108c-95 0 -148 -86 -148 -171c0 -53 15 -108 38 -155h159v-14h-150c13 -31 23 -69 23 -103c-1 -91 -50 -141 -78 -175c16 10 86 25 105 25
c66 0 126 -33 192 -33c31 0 61 10 90 21l2 -3c-42 -37 -79 -59 -135 -59c-73 0 -139 43 -211 43c-39 0 -94 -31 -125 -50l-12 20c62 34 110 91 110 166c0 55 -18 97 -40 145z" />
    <glyph glyph-name="section" unicode="&#xa7;" horiz-adv-x="575" 
d="M428 190c0 84 -91 130 -154 166c-60 0 -123 -42 -123 -106c0 -68 34 -102 89 -136c28 -17 62 -40 93 -50c63 16 95 62 95 126zM428 -147c0 163 -330 172 -330 370c0 92 76 129 154 145c-75 49 -154 92 -154 194c0 97 97 144 182 144c51 0 178 -21 178 -89
c0 -17 -18 -27 -33 -27c-43 0 -57 105 -143 105c-69 0 -131 -39 -131 -114c0 -96 102 -132 169 -174c82 -42 162 -92 162 -195c0 -95 -55 -129 -135 -158c69 -40 135 -90 135 -177c0 -114 -98 -167 -201 -167c-51 0 -185 18 -185 88c0 17 17 28 33 28c44 0 58 -105 147 -105
c88 0 152 36 152 132z" />
    <glyph glyph-name="bullet" unicode="&#x2022;" horiz-adv-x="370" 
d="M186 412c41 0 72 -31 72 -70c0 -40 -31 -70 -72 -70c-42 0 -74 31 -74 70s32 70 74 70z" />
    <glyph glyph-name="acute" unicode="&#xb4;" horiz-adv-x="360" 
d="M155 553l-1 -1c-2 0 -4 3 -5 6c-1 7 10 15 12 18l84 95c9 11 21 27 35 29c10 0 19 -5 21 -16c4 -20 -17 -32 -30 -42l-96 -77c-4 -3 -15 -11 -20 -12z" />
    <glyph glyph-name="dieresis" unicode="&#xa8;" horiz-adv-x="400" 
d="M236 613c0 19 12 32 31 32s32 -16 32 -34s-14 -33 -32 -33c-19 0 -31 17 -31 35zM101 613c0 19 12 32 32 32c18 0 31 -16 31 -34s-14 -33 -31 -33h-1c-19 0 -31 17 -31 35z" />
    <glyph glyph-name="circumflex" unicode="&#x2c6;" horiz-adv-x="418" 
d="M188 715h22c14 0 18 -4 25 -11l94 -103c6 -5 6 -8 6 -12c0 -3 -6 -3 -10 -3c-8 0 -15 3 -22 9l-103 80l-104 -80c-7 -6 -14 -9 -22 -9c-5 0 -11 0 -11 3c0 4 1 7 6 12l95 103c7 7 12 11 24 11z" />
    <glyph glyph-name="macron" unicode="&#xaf;" horiz-adv-x="380" 
d="M85 585h219c11 0 13 0 13 -5c0 -7 -3 -15 -6 -22c-6 -14 -7 -14 -21 -14h-220c-4 0 -8 0 -8 4c0 3 1 5 7 21c4 14 2 16 16 16z" />
    <glyph glyph-name="breve" unicode="&#x2d8;" horiz-adv-x="400" 
d="M200 521h-1c-76 0 -123 74 -123 125c0 9 3 17 10 17s12 -6 14 -16c10 -50 45 -76 100 -76s90 27 100 76c2 10 5 16 14 16c6 0 10 -6 10 -17c0 -51 -47 -125 -124 -125z" />
    <glyph glyph-name="dotaccent" unicode="&#x2d9;" horiz-adv-x="220" 
d="M111 523h-1c-28 0 -43 22 -43 49c0 25 16 49 44 49c27 0 44 -24 44 -49c0 -26 -17 -49 -44 -49z" />
    <glyph glyph-name="ring" unicode="&#x2da;" horiz-adv-x="280" 
d="M139 557h-1c-37 0 -67 30 -67 68s30 68 68 68s68 -30 68 -68s-30 -68 -68 -68zM139 587h1c20 0 37 17 37 38c0 22 -17 38 -38 38s-38 -16 -38 -38c0 -21 17 -38 38 -38z" />
    <glyph glyph-name="tilde" unicode="&#x2dc;" horiz-adv-x="447" 
d="M279 572c-57 0 -102 68 -148 68c-42 0 -55 -59 -64 -59c-4 0 -9 3 -10 7c1 42 56 87 96 87c58 0 106 -68 148 -68s55 59 64 59c4 0 9 -3 10 -7c-1 -42 -56 -87 -96 -87z" />
    <glyph glyph-name="cedilla" unicode="&#xb8;" horiz-adv-x="320" 
d="M142 10h26l-47 -70c9 1 19 2 32 2c42 0 113 -7 113 -71c0 -81 -92 -93 -119 -93c-23 0 -87 8 -87 41c0 10 7 21 18 21c26 0 24 -45 71 -45c26 0 80 10 80 70c0 43 -62 50 -94 50c-17 0 -30 -3 -43 -3c-4 0 -8 1 -8 10c0 5 10 17 12 20z" />
    <glyph glyph-name="ogonek" unicode="&#x2db;" horiz-adv-x="300" 
d="M165 0h22c-30 -18 -84 -54 -84 -104c0 -26 24 -40 44 -40c38 0 67 34 81 34c4 0 7 -4 7 -8c0 -14 -61 -51 -99 -51c-43 0 -74 22 -74 64c0 47 62 91 103 105z" />
    <glyph glyph-name="caron" unicode="&#x2c7;" horiz-adv-x="420" 
d="M221 521h-22c-13 0 -18 3 -25 11l-95 119c-5 7 -6 10 -6 14s6 4 11 4c8 0 15 -4 22 -10l104 -93l104 93c7 6 14 10 22 10c5 0 11 0 11 -4s-1 -7 -6 -14l-95 -119c-7 -8 -12 -11 -25 -11z" />
    <glyph glyph-name="germandbls" unicode="&#xdf;" horiz-adv-x="602" 
d="M215 0h-162c16 3 29 10 37 25c14 27 15 100 15 141c2 123 1 228 7 336c6 142 87 240 226 240c88 0 190 -34 190 -160c0 -66 -50 -92 -102 -105c-51 -12 -138 -18 -138 -64c0 -45 98 -66 160 -95c62 -30 125 -71 125 -160c0 -101 -91 -170 -181 -170c-37 0 -88 13 -120 34
c-15 9 -15 18 -15 52v55l1 30c5 1 21 -164 136 -164c64 0 112 53 112 134c0 151 -243 116 -243 263c0 55 39 63 80 74c60 15 106 48 106 129c0 101 -48 135 -116 135c-148 0 -156 -159 -158 -249l-8 -318c0 -41 0 -115 12 -139c7 -14 22 -21 36 -24z" />
    <glyph glyph-name="AE" unicode="&#xc6;" horiz-adv-x="969" 
d="M62 1h-122c66 19 145 133 202 214c110 154 235 327 346 481h412v-104h-6c-10 34 -31 57 -66 70c-63 24 -204 24 -269 24v-364h117c78 0 104 8 112 97h5v-201h-5c-5 103 -54 94 -199 95h-30v-179c0 -48 7 -121 61 -123c18 -1 39 -1 61 -1c101 0 234 12 251 99h7v-109h-333
l-202 -2c91 1 80 136 83 204v58c-19 -9 -37 -12 -56 -12c-55 0 -110 29 -166 29c-25 0 -51 -6 -77 -24l-43 -59l-73 -108c-33 -48 -28 -78 -10 -85zM203 274c21 11 42 15 62 15c55 0 109 -28 165 -28c19 0 38 3 57 12c-1 128 -1 263 -2 391z" />
    <glyph glyph-name="ae" unicode="&#xe6;" horiz-adv-x="774" 
d="M15 141c0 78 86 147 220 147c27 0 61 -3 86 -12v35c0 71 -9 158 -106 158c-52 0 -70 -29 -84 -57c-2 -3 -4 -6 -5 -9c-2 -4 -3 -7 -5 -10c-3 -5 -5 -10 -9 -15c-5 -8 -13 -13 -28 -13c-22 0 -30 10 -30 30c0 62 124 81 170 81c42 0 82 -12 115 -39c13 -13 22 -27 29 -42
c37 49 94 81 172 81c141 0 217 -118 220 -238h-370c0 -116 29 -235 177 -235c68 0 140 43 180 109h6c-34 -79 -121 -122 -201 -122c-70 0 -127 25 -167 65c2 -13 4 -24 8 -31c7 -14 22 -21 36 -24h-191c-152 -1 -223 62 -223 141zM82 141c0 -57 29 -135 156 -135
c20 0 51 0 65 15c12 24 16 89 16 127c1 40 0 80 1 120c-19 5 -45 12 -77 12c-128 0 -161 -82 -161 -139zM391 248h302c-3 75 -35 218 -148 218c-110 0 -146 -141 -154 -218z" />
    <glyph glyph-name="oslash" unicode="&#xf8;" horiz-adv-x="500" 
d="M128 23c-67 42 -105 120 -105 210c0 134 79 243 221 243c36 0 68 -7 96 -20l21 42h44l-30 -62c61 -43 95 -118 95 -204c0 -134 -81 -242 -221 -242c-31 0 -59 5 -85 15l-29 -60h-45zM89 233c0 -59 13 -135 52 -185l191 390c-22 19 -51 31 -87 31
c-126 0 -156 -141 -156 -236zM171 19c21 -14 47 -23 78 -23c125 0 155 140 155 236c0 55 -11 125 -44 174z" />
    <glyph glyph-name="OE" unicode="&#x152;" horiz-adv-x="1213" 
d="M421 -10c-220 0 -382 155 -382 365c0 211 156 351 376 351c143 0 263 -61 329 -162c-2 48 -8 118 -29 136c-10 8 -21 13 -33 16h462v-104h-6c-10 34 -31 57 -66 70c-63 24 -204 24 -269 24v-364h117c78 0 104 8 112 97h5v-201h-5c-5 103 -54 94 -199 95h-30v-179
c0 -48 7 -121 61 -123c18 -1 39 -1 61 -1c101 0 234 12 251 99h7v-109h-505c14 3 25 8 37 17c19 15 25 84 28 140c-64 -102 -180 -167 -322 -167zM117 349c0 -175 98 -350 304 -350c207 0 296 177 296 348c0 174 -97 350 -302 350c-209 0 -298 -176 -298 -348z" />
    <glyph glyph-name="oe" unicode="&#x153;" horiz-adv-x="863" 
d="M27 233c0 134 79 243 221 243c88 0 155 -43 192 -108c35 63 97 108 189 108c141 0 217 -118 220 -238h-370c0 -116 29 -235 177 -235c68 0 140 43 180 109h6c-34 -79 -121 -122 -201 -122c-92 0 -161 43 -200 107c-36 -65 -100 -107 -188 -107c-141 0 -226 109 -226 243z
M249 469c-126 0 -156 -141 -156 -236c0 -97 34 -237 160 -237c113 0 148 114 154 207v53c-5 95 -43 213 -158 213zM634 466c-110 0 -146 -141 -154 -218h302c-3 75 -35 218 -148 218z" />
    <glyph glyph-name="Euro" unicode="&#x20ac;" horiz-adv-x="567" 
d="M14 343v13h53c13 170 120 307 276 307c53 0 109 -8 159 -23l-5 -96h-6c-34 60 -80 108 -153 108c-135 0 -187 -178 -196 -296h297v-13h-297c-1 -8 -1 -15 -1 -22c0 -17 1 -36 3 -55h295v-13h-294c14 -120 66 -262 193 -262c73 0 119 48 153 108h6l5 -96
c-50 -15 -106 -23 -159 -23c-177 0 -256 120 -273 273h-56v13h54c-1 26 -2 51 -2 77h-52z" />
    <glyph glyph-name="Oslash" unicode="&#xd8;" horiz-adv-x="814" 
d="M28 355c0 211 156 351 376 351c33 0 65 -3 95 -10l22 65h44l-25 -75c146 -46 246 -167 246 -332c0 -209 -156 -364 -376 -364c-34 0 -67 4 -99 11l-16 -49h-45l20 61c-145 50 -242 180 -242 342zM315 13c29 -9 60 -14 95 -14c207 0 296 177 296 348
c0 132 -56 265 -172 322zM106 349c0 -131 55 -263 170 -320l219 655c-27 8 -58 13 -91 13c-209 0 -298 -176 -298 -348z" />
    <glyph glyph-name="Adieresis" unicode="&#xc4;" horiz-adv-x="678" 
d="M-4 1c59 19 96 133 123 213c56 161 113 321 170 482h62l181 -482c22 -48 58 -167 97 -200c8 -7 20 -11 33 -14l-201 -2c107 3 30 136 8 203l-20 53c-39 -33 -88 -37 -138 -37c-13 0 -27 1 -40 1c-55 0 -107 -5 -147 -46l-27 -86c-16 -48 0 -78 21 -85h-122zM130 194
c88 72 226 -1 314 74l-148 398zM375 813c0 19 12 32 31 32s32 -16 32 -34s-14 -33 -32 -33c-19 0 -31 17 -31 35zM240 813c0 19 12 32 32 32c18 0 31 -16 31 -34s-14 -33 -31 -33h-1c-19 0 -31 17 -31 35z" />
    <glyph glyph-name="Aring" unicode="&#xc5;" horiz-adv-x="678" 
d="M-4 1c59 19 96 133 123 213c56 161 113 321 170 482h62l181 -482c22 -48 58 -167 97 -200c8 -7 20 -11 33 -14l-201 -2c107 3 30 136 8 203l-20 53c-39 -33 -88 -37 -138 -37c-13 0 -27 1 -40 1c-55 0 -107 -5 -147 -46l-27 -86c-16 -48 0 -78 21 -85h-122zM130 194
c88 72 226 -1 314 74l-148 398zM338 757h-1c-37 0 -67 30 -67 68s30 68 68 68s68 -30 68 -68s-30 -68 -68 -68zM338 787h1c20 0 37 17 37 38c0 22 -17 38 -38 38s-38 -16 -38 -38c0 -21 17 -38 38 -38z" />
    <glyph glyph-name="ccedilla" unicode="&#xe7;" horiz-adv-x="445" 
d="M34 228c0 139 70 248 220 248c44 0 161 -15 161 -75c0 -19 -11 -26 -33 -26c-27 0 -36 25 -48 44c-13 25 -32 52 -79 52c-128 0 -154 -140 -154 -236c0 -85 28 -196 115 -225h12l-2 -3c11 -3 23 -4 36 -4c60 0 110 23 142 78h8c-35 -63 -91 -91 -166 -91
c-10 0 -20 1 -30 2l-35 -52c9 1 19 2 32 2c42 0 113 -7 113 -71c0 -81 -92 -93 -119 -93c-23 0 -87 8 -87 41c0 10 7 21 18 21c26 0 24 -45 71 -45c26 0 80 10 80 70c0 43 -62 50 -94 50c-17 0 -30 -3 -43 -3c-4 0 -8 1 -8 10c0 5 10 17 12 20l37 54
c-102 26 -159 124 -159 232z" />
    <glyph glyph-name="Ccedilla" unicode="&#xc7;" horiz-adv-x="723" 
d="M329 -7c-188 22 -304 164 -304 355c0 209 140 355 356 358c123 0 199 -29 296 -100v-164h-6c-4 171 -166 254 -290 254c-205 0 -276 -174 -276 -346c0 -162 62 -325 234 -344l2 4h26l-3 -5h19c172 6 280 149 300 254l11 -4c-22 -128 -152 -263 -306 -265
c-12 0 -23 0 -34 1l-34 -51c9 1 19 2 32 2c42 0 113 -7 113 -71c0 -81 -92 -93 -119 -93c-23 0 -87 8 -87 41c0 10 7 21 18 21c26 0 24 -45 71 -45c26 0 80 10 80 70c0 43 -62 50 -94 50c-17 0 -30 -3 -43 -3c-4 0 -8 1 -8 10c0 5 10 17 12 20z" />
    <glyph glyph-name="Eacute" unicode="&#xc9;" horiz-adv-x="558" 
d="M528 0h-505c14 3 25 8 37 17c28 22 29 167 29 205v285c0 39 -1 149 -29 173c-10 8 -21 13 -33 16h462v-104h-6c-10 34 -31 57 -66 70c-63 24 -204 24 -269 24v-364h117c78 0 104 8 112 97h5v-201h-5c-5 103 -54 94 -199 95h-30v-179c0 -48 7 -121 61 -123
c18 -1 39 -1 61 -1c101 0 234 12 251 99h7v-109zM212 758c-1 7 10 15 12 18l84 95c9 11 21 27 35 29c10 0 19 -5 21 -16c4 -20 -17 -32 -30 -42l-96 -77c-4 -3 -15 -11 -20 -12l-1 -1c-2 0 -4 3 -5 6z" />
    <glyph glyph-name="Ntilde" unicode="&#xd1;" horiz-adv-x="691" 
d="M10 696h115l461 -610l3 400v14c0 48 -1 159 -45 187c-6 4 -15 7 -23 9h150c-7 -2 -16 -5 -22 -9c-44 -27 -45 -139 -45 -187v-505h-25l-464 614v-410c0 -48 1 -159 43 -188c8 -5 19 -9 28 -11h-158c8 2 18 6 27 11c43 29 44 138 44 188v301c0 102 12 174 -89 196z
M187 788c1 42 56 87 96 87c58 0 106 -68 148 -68s55 59 64 59c4 0 9 -3 10 -7c-1 -42 -56 -87 -96 -87c-57 0 -102 68 -148 68c-42 0 -55 -59 -64 -59c-4 0 -9 3 -10 7z" />
    <glyph glyph-name="Odieresis" unicode="&#xd6;" horiz-adv-x="814" 
d="M706 347c0 174 -97 349 -302 349c-209 0 -298 -175 -298 -347c0 -175 98 -349 304 -349c207 0 296 176 296 347zM786 354c0 -209 -156 -364 -376 -364s-382 155 -382 365c0 211 156 351 376 351c217 0 382 -140 382 -352zM443 813c0 19 12 32 31 32s32 -16 32 -34
s-14 -33 -32 -33c-19 0 -31 17 -31 35zM308 813c0 19 12 32 32 32c18 0 31 -16 31 -34s-14 -33 -31 -33h-1c-19 0 -31 17 -31 35z" />
    <glyph glyph-name="Udieresis" unicode="&#xdc;" horiz-adv-x="707" 
d="M52 679c-11 9 -26 14 -37 17h183c-6 -2 -14 -5 -21 -11c-8 -5 -16 -12 -20 -23c-9 -16 -12 -57 -14 -94c-1 -37 -1 -75 -1 -93v-216c0 -147 61 -256 224 -256c168 0 239 119 239 269v226c0 24 0 55 -4 85c-5 47 -11 101 -66 113h157c-9 -2 -20 -6 -27 -11
c-43 -25 -44 -141 -44 -187v-224c0 -168 -84 -284 -265 -284c-189 0 -276 93 -276 274v243c0 39 -1 148 -28 172zM390 813c0 19 12 32 31 32s32 -16 32 -34s-14 -33 -32 -33c-19 0 -31 17 -31 35zM255 813c0 19 12 32 32 32c18 0 31 -16 31 -34s-14 -33 -31 -33h-1
c-19 0 -31 17 -31 35z" />
    <glyph glyph-name="aacute" unicode="&#xe1;" 
d="M32 141c0 78 86 147 220 147c30 0 58 -5 86 -15v38c0 71 -9 158 -106 158c-101 0 -71 -104 -131 -104c-22 0 -30 10 -30 30c0 62 124 81 170 81c42 0 82 -12 115 -39c32 -31 43 -73 43 -116l-1 -180c0 -32 1 -95 12 -117c7 -14 22 -21 36 -24h-191
c-152 -1 -223 62 -223 141zM260 280c-128 0 -161 -82 -161 -139s29 -135 156 -135c20 0 51 0 65 15c12 24 16 89 16 127l1 120c-18 5 -44 12 -77 12zM169 553l-1 -1c-2 0 -4 3 -5 6c-1 7 10 15 12 18l84 95c9 11 21 27 35 29c10 0 19 -5 21 -16c4 -20 -17 -32 -30 -42
l-96 -77c-4 -3 -15 -11 -20 -12z" />
    <glyph glyph-name="agrave" unicode="&#xe0;" 
d="M32 141c0 78 86 147 220 147c30 0 58 -5 86 -15v38c0 71 -9 158 -106 158c-101 0 -71 -104 -131 -104c-22 0 -30 10 -30 30c0 62 124 81 170 81c42 0 82 -12 115 -39c32 -31 43 -73 43 -116l-1 -180c0 -32 1 -95 12 -117c7 -14 22 -21 36 -24h-191
c-152 -1 -223 62 -223 141zM260 280c-128 0 -161 -82 -161 -139s29 -135 156 -135c20 0 51 0 65 15c12 24 16 89 16 127l1 120c-18 5 -44 12 -77 12zM298 552l-1 1c-5 1 -16 9 -20 12l-96 77c-13 10 -34 22 -30 42c2 11 11 16 21 16c14 -2 26 -18 35 -29l84 -95
c2 -3 13 -11 12 -18c-1 -3 -3 -6 -5 -6z" />
    <glyph glyph-name="acircumflex" unicode="&#xe2;" 
d="M32 141c0 78 86 147 220 147c30 0 58 -5 86 -15v38c0 71 -9 158 -106 158c-101 0 -71 -104 -131 -104c-22 0 -30 10 -30 30c0 62 124 81 170 81c42 0 82 -12 115 -39c32 -31 43 -73 43 -116l-1 -180c0 -32 1 -95 12 -117c7 -14 22 -21 36 -24h-191
c-152 -1 -223 62 -223 141zM260 280c-128 0 -161 -82 -161 -139s29 -135 156 -135c20 0 51 0 65 15c12 24 16 89 16 127l1 120c-18 5 -44 12 -77 12zM216 715h22c14 0 18 -4 25 -11l94 -103c6 -5 6 -8 6 -12c0 -3 -6 -3 -10 -3c-8 0 -15 3 -22 9l-103 80l-104 -80
c-7 -6 -14 -9 -22 -9c-5 0 -11 0 -11 3c0 4 1 7 6 12l95 103c7 7 12 11 24 11z" />
    <glyph glyph-name="adieresis" unicode="&#xe4;" 
d="M32 141c0 78 86 147 220 147c30 0 58 -5 86 -15v38c0 71 -9 158 -106 158c-101 0 -71 -104 -131 -104c-22 0 -30 10 -30 30c0 62 124 81 170 81c42 0 82 -12 115 -39c32 -31 43 -73 43 -116l-1 -180c0 -32 1 -95 12 -117c7 -14 22 -21 36 -24h-191
c-152 -1 -223 62 -223 141zM260 280c-128 0 -161 -82 -161 -139s29 -135 156 -135c20 0 51 0 65 15c12 24 16 89 16 127l1 120c-18 5 -44 12 -77 12zM267 613c0 19 12 32 31 32s32 -16 32 -34s-14 -33 -32 -33c-19 0 -31 17 -31 35zM132 613c0 19 12 32 32 32
c18 0 31 -16 31 -34s-14 -33 -31 -33h-1c-19 0 -31 17 -31 35z" />
    <glyph glyph-name="atilde" unicode="&#xe3;" 
d="M32 141c0 78 86 147 220 147c30 0 58 -5 86 -15v38c0 71 -9 158 -106 158c-101 0 -71 -104 -131 -104c-22 0 -30 10 -30 30c0 62 124 81 170 81c42 0 82 -12 115 -39c32 -31 43 -73 43 -116l-1 -180c0 -32 1 -95 12 -117c7 -14 22 -21 36 -24h-191
c-152 -1 -223 62 -223 141zM260 280c-128 0 -161 -82 -161 -139s29 -135 156 -135c20 0 51 0 65 15c12 24 16 89 16 127l1 120c-18 5 -44 12 -77 12zM294 572c-57 0 -102 68 -148 68c-42 0 -55 -59 -64 -59c-4 0 -9 3 -10 7c1 42 56 87 96 87c58 0 106 -68 148 -68
s55 59 64 59c4 0 9 -3 10 -7c-1 -42 -56 -87 -96 -87z" />
    <glyph glyph-name="aring" unicode="&#xe5;" 
d="M32 141c0 78 86 147 220 147c30 0 58 -5 86 -15v38c0 71 -9 158 -106 158c-101 0 -71 -104 -131 -104c-22 0 -30 10 -30 30c0 62 124 81 170 81c42 0 82 -12 115 -39c32 -31 43 -73 43 -116l-1 -180c0 -32 1 -95 12 -117c7 -14 22 -21 36 -24h-191
c-152 -1 -223 62 -223 141zM260 280c-128 0 -161 -82 -161 -139s29 -135 156 -135c20 0 51 0 65 15c12 24 16 89 16 127l1 120c-18 5 -44 12 -77 12zM231 557h-1c-37 0 -67 30 -67 68s30 68 68 68s68 -30 68 -68s-30 -68 -68 -68zM231 587h1c20 0 37 17 37 38
c0 22 -17 38 -38 38s-38 -16 -38 -38c0 -21 17 -38 38 -38z" />
    <glyph glyph-name="eacute" unicode="&#xe9;" horiz-adv-x="491" 
d="M262 466c-110 0 -146 -141 -154 -218h302c-3 75 -35 218 -148 218zM477 238h-370c0 -116 29 -235 177 -235c68 0 140 43 180 109h6c-34 -79 -121 -122 -201 -122c-146 0 -235 110 -235 237s71 249 223 249c141 0 217 -118 220 -238zM184 553l-1 -1c-2 0 -4 3 -5 6
c-1 7 10 15 12 18l84 95c9 11 21 27 35 29c10 0 19 -5 21 -16c4 -20 -17 -32 -30 -42l-96 -77c-4 -3 -15 -11 -20 -12z" />
    <glyph glyph-name="egrave" unicode="&#xe8;" horiz-adv-x="491" 
d="M262 466c-110 0 -146 -141 -154 -218h302c-3 75 -35 218 -148 218zM477 238h-370c0 -116 29 -235 177 -235c68 0 140 43 180 109h6c-34 -79 -121 -122 -201 -122c-146 0 -235 110 -235 237s71 249 223 249c141 0 217 -118 220 -238zM313 552l-1 1c-5 1 -16 9 -20 12
l-96 77c-13 10 -34 22 -30 42c2 11 11 16 21 16c14 -2 26 -18 35 -29l84 -95c2 -3 13 -11 12 -18c-1 -3 -3 -6 -5 -6z" />
    <glyph glyph-name="ecircumflex" unicode="&#xea;" horiz-adv-x="491" 
d="M262 466c-110 0 -146 -141 -154 -218h302c-3 75 -35 218 -148 218zM477 238h-370c0 -116 29 -235 177 -235c68 0 140 43 180 109h6c-34 -79 -121 -122 -201 -122c-146 0 -235 110 -235 237s71 249 223 249c141 0 217 -118 220 -238zM235 715h22c14 0 18 -4 25 -11
l94 -103c6 -5 6 -8 6 -12c0 -3 -6 -3 -10 -3c-8 0 -15 3 -22 9l-103 80l-104 -80c-7 -6 -14 -9 -22 -9c-5 0 -11 0 -11 3c0 4 1 7 6 12l95 103c7 7 12 11 24 11z" />
    <glyph glyph-name="edieresis" unicode="&#xeb;" horiz-adv-x="491" 
d="M262 466c-110 0 -146 -141 -154 -218h302c-3 75 -35 218 -148 218zM477 238h-370c0 -116 29 -235 177 -235c68 0 140 43 180 109h6c-34 -79 -121 -122 -201 -122c-146 0 -235 110 -235 237s71 249 223 249c141 0 217 -118 220 -238zM282 613c0 19 12 32 31 32
s32 -16 32 -34s-14 -33 -32 -33c-19 0 -31 17 -31 35zM147 613c0 19 12 32 32 32c18 0 31 -16 31 -34s-14 -33 -31 -33h-1c-19 0 -31 17 -31 35z" />
    <glyph glyph-name="iacute" unicode="&#xed;" horiz-adv-x="225" 
d="M76 432c-13 20 -32 31 -55 36c42 4 85 8 133 8l1 -188l-1 -139c0 -29 0 -102 12 -125c7 -14 22 -21 36 -24h-162c16 3 29 10 37 25c15 28 15 104 15 137c0 132 4 227 -16 270zM35 569l-3 8c33 22 72 63 81 102l80 -6c-25 -60 -92 -101 -158 -104z" />
    <glyph glyph-name="igrave" unicode="&#xec;" horiz-adv-x="225" 
d="M76 432c-13 20 -32 31 -55 36c42 4 85 8 133 8l1 -188l-1 -139c0 -29 0 -102 12 -125c7 -14 22 -21 36 -24h-162c16 3 29 10 37 25c15 28 15 104 15 137c0 132 4 227 -16 270zM193 586l-3 -8c-66 3 -133 44 -158 104l80 6c9 -39 48 -80 81 -102z" />
    <glyph glyph-name="icircumflex" unicode="&#xee;" horiz-adv-x="225" 
d="M76 432c-13 20 -32 31 -55 36c42 4 85 8 133 8l1 -188l-1 -139c0 -29 0 -102 12 -125c7 -14 22 -21 36 -24h-162c16 3 29 10 37 25c15 28 15 104 15 137c0 132 4 227 -16 270zM102 715h22c14 0 18 -4 25 -11l94 -103c6 -5 6 -8 6 -12c0 -3 -6 -3 -10 -3c-8 0 -15 3 -22 9
l-103 80l-104 -80c-7 -6 -15 -9 -23 -9c-5 0 -11 0 -11 3c0 4 1 7 6 12l96 103c7 7 12 11 24 11z" />
    <glyph glyph-name="idieresis" unicode="&#xef;" horiz-adv-x="225" 
d="M76 432c-13 20 -32 31 -55 36c42 4 85 8 133 8l1 -188l-1 -139c0 -29 0 -102 12 -125c7 -14 22 -21 36 -24h-162c16 3 29 10 37 25c15 28 15 104 15 137c0 132 4 227 -16 270zM149 613c0 19 12 32 31 32s32 -16 32 -34s-14 -33 -32 -33c-19 0 -31 17 -31 35zM14 613
c0 19 12 32 32 32c18 0 31 -16 31 -34s-14 -33 -31 -33h-1c-19 0 -31 17 -31 35z" />
    <glyph glyph-name="ntilde" unicode="&#xf1;" horiz-adv-x="540" 
d="M3 468c43 4 86 8 133 8v-75c35 37 102 78 167 78c127 0 180 -77 180 -178v-141c0 -30 2 -113 15 -136c8 -13 21 -20 36 -24h-163c16 4 29 11 37 25c13 24 14 113 14 144l-1 118c0 61 -17 177 -124 177c-65 0 -132 -43 -161 -82l1 -94l-1 -139c0 -29 0 -102 13 -125
c8 -14 22 -21 36 -24h-161c15 3 28 10 37 25c14 28 14 104 14 137c0 132 4 227 -15 270c-14 20 -33 31 -57 36zM111 588c1 42 56 87 96 87c58 0 106 -68 148 -68s55 59 64 59c4 0 9 -3 10 -7c-1 -42 -56 -87 -96 -87c-57 0 -102 68 -148 68c-42 0 -55 -59 -64 -59
c-4 0 -9 3 -10 7z" />
    <glyph glyph-name="oacute" unicode="&#xf3;" horiz-adv-x="500" 
d="M404 232c0 97 -34 237 -159 237c-126 0 -156 -141 -156 -236c0 -97 34 -237 160 -237c125 0 155 140 155 236zM244 476c140 0 226 -108 226 -244c0 -134 -81 -242 -221 -242c-141 0 -226 109 -226 243s79 243 221 243zM189 553l-1 -1c-2 0 -4 3 -5 6c-1 7 10 15 12 18
l84 95c9 11 21 27 35 29c10 0 19 -5 21 -16c4 -20 -17 -32 -30 -42l-96 -77c-4 -3 -15 -11 -20 -12z" />
    <glyph glyph-name="ograve" unicode="&#xf2;" horiz-adv-x="500" 
d="M404 232c0 97 -34 237 -159 237c-126 0 -156 -141 -156 -236c0 -97 34 -237 160 -237c125 0 155 140 155 236zM244 476c140 0 226 -108 226 -244c0 -134 -81 -242 -221 -242c-141 0 -226 109 -226 243s79 243 221 243zM318 552l-1 1c-5 1 -16 9 -20 12l-96 77
c-13 10 -34 22 -30 42c2 11 11 16 21 16c14 -2 26 -18 35 -29l84 -95c2 -3 13 -11 12 -18c-1 -3 -3 -6 -5 -6z" />
    <glyph glyph-name="ocircumflex" unicode="&#xf4;" horiz-adv-x="500" 
d="M404 232c0 97 -34 237 -159 237c-126 0 -156 -141 -156 -236c0 -97 34 -237 160 -237c125 0 155 140 155 236zM244 476c140 0 226 -108 226 -244c0 -134 -81 -242 -221 -242c-141 0 -226 109 -226 243s79 243 221 243zM239 715h22c14 0 18 -4 25 -11l94 -103
c6 -5 6 -8 6 -12c0 -3 -6 -3 -10 -3c-8 0 -15 3 -22 9l-103 80l-104 -80c-7 -6 -14 -9 -22 -9c-5 0 -11 0 -11 3c0 4 1 7 6 12l95 103c7 7 12 11 24 11z" />
    <glyph glyph-name="odieresis" unicode="&#xf6;" horiz-adv-x="500" 
d="M404 232c0 97 -34 237 -159 237c-126 0 -156 -141 -156 -236c0 -97 34 -237 160 -237c125 0 155 140 155 236zM244 476c140 0 226 -108 226 -244c0 -134 -81 -242 -221 -242c-141 0 -226 109 -226 243s79 243 221 243zM286 613c0 19 12 32 31 32s32 -16 32 -34
s-14 -33 -32 -33c-19 0 -31 17 -31 35zM151 613c0 19 12 32 32 32c18 0 31 -16 31 -34s-14 -33 -31 -33h-1c-19 0 -31 17 -31 35z" />
    <glyph glyph-name="otilde" unicode="&#xf5;" horiz-adv-x="500" 
d="M404 232c0 97 -34 237 -159 237c-126 0 -156 -141 -156 -236c0 -97 34 -237 160 -237c125 0 155 140 155 236zM244 476c140 0 226 -108 226 -244c0 -134 -81 -242 -221 -242c-141 0 -226 109 -226 243s79 243 221 243zM313 572c-57 0 -102 68 -148 68
c-42 0 -55 -59 -64 -59c-4 0 -9 3 -10 7c1 42 56 87 96 87c58 0 106 -68 148 -68s55 59 64 59c4 0 9 -3 10 -7c-1 -42 -56 -87 -96 -87z" />
    <glyph glyph-name="uacute" unicode="&#xfa;" horiz-adv-x="547" 
d="M62 425c-15 20 -29 39 -53 44h133l-6 -192l-1 -94c0 -61 18 -180 125 -179c70 1 117 49 144 91v88l2 81c1 107 7 123 -10 160c-15 20 -28 39 -53 44h130l-6 -203c-1 -107 -2 -189 14 -226c15 -20 33 -31 57 -36c-42 -4 -88 -8 -135 -8v78c-29 -41 -78 -82 -146 -82
c-115 0 -184 61 -183 178v107c1 107 4 112 -12 149zM212 553l-1 -1c-2 0 -4 3 -5 6c-1 7 10 15 12 18l84 95c9 11 21 27 35 29c10 0 19 -5 21 -16c4 -20 -17 -32 -30 -42l-96 -77c-4 -3 -15 -11 -20 -12z" />
    <glyph glyph-name="ugrave" unicode="&#xf9;" horiz-adv-x="547" 
d="M62 425c-15 20 -29 39 -53 44h133l-6 -192l-1 -94c0 -61 18 -180 125 -179c70 1 117 49 144 91v88l2 81c1 107 7 123 -10 160c-15 20 -28 39 -53 44h130l-6 -203c-1 -107 -2 -189 14 -226c15 -20 33 -31 57 -36c-42 -4 -88 -8 -135 -8v78c-29 -41 -78 -82 -146 -82
c-115 0 -184 61 -183 178v107c1 107 4 112 -12 149zM341 552l-1 1c-5 1 -16 9 -20 12l-96 77c-13 10 -34 22 -30 42c2 11 11 16 21 16c14 -2 26 -18 35 -29l84 -95c2 -3 13 -11 12 -18c-1 -3 -3 -6 -5 -6z" />
    <glyph glyph-name="ucircumflex" unicode="&#xfb;" horiz-adv-x="547" 
d="M62 425c-15 20 -29 39 -53 44h133l-6 -192l-1 -94c0 -61 18 -180 125 -179c70 1 117 49 144 91v88l2 81c1 107 7 123 -10 160c-15 20 -28 39 -53 44h130l-6 -203c-1 -107 -2 -189 14 -226c15 -20 33 -31 57 -36c-42 -4 -88 -8 -135 -8v78c-29 -41 -78 -82 -146 -82
c-115 0 -184 61 -183 178v107c1 107 4 112 -12 149zM263 715h22c14 0 18 -4 25 -11l94 -103c6 -5 6 -8 6 -12c0 -3 -6 -3 -10 -3c-8 0 -15 3 -22 9l-103 80l-104 -80c-7 -6 -14 -9 -22 -9c-5 0 -11 0 -11 3c0 4 1 7 6 12l95 103c7 7 12 11 24 11z" />
    <glyph glyph-name="udieresis" unicode="&#xfc;" horiz-adv-x="547" 
d="M62 425c-15 20 -29 39 -53 44h133l-6 -192l-1 -94c0 -61 18 -180 125 -179c70 1 117 49 144 91v88l2 81c1 107 7 123 -10 160c-15 20 -28 39 -53 44h130l-6 -203c-1 -107 -2 -189 14 -226c15 -20 33 -31 57 -36c-42 -4 -88 -8 -135 -8v78c-29 -41 -78 -82 -146 -82
c-115 0 -184 61 -183 178v107c1 107 4 112 -12 149zM310 613c0 19 12 32 31 32s32 -16 32 -34s-14 -33 -32 -33c-19 0 -31 17 -31 35zM175 613c0 19 12 32 32 32c18 0 31 -16 31 -34s-14 -33 -31 -33h-1c-19 0 -31 17 -31 35z" />
    <glyph glyph-name="Agrave" unicode="&#xc0;" horiz-adv-x="678" 
d="M-4 1c59 19 96 133 123 213c56 161 113 321 170 482h62l181 -482c22 -48 58 -167 97 -200c8 -7 20 -11 33 -14l-201 -2c107 3 30 136 8 203l-20 53c-39 -33 -88 -37 -138 -37c-13 0 -27 1 -40 1c-55 0 -107 -5 -147 -46l-27 -86c-16 -48 0 -78 21 -85h-122zM130 194
c88 72 226 -1 314 74l-148 398zM407 752l-1 1c-5 1 -16 9 -20 12l-96 77c-13 10 -34 22 -30 42c2 11 11 16 21 16c14 -2 26 -18 35 -29l84 -95c2 -3 13 -11 12 -18c-1 -3 -3 -6 -5 -6z" />
    <glyph glyph-name="Atilde" unicode="&#xc3;" horiz-adv-x="678" 
d="M-4 1c59 19 96 133 123 213c56 161 113 321 170 482h62l181 -482c22 -48 58 -167 97 -200c8 -7 20 -11 33 -14l-201 -2c107 3 30 136 8 203l-20 53c-39 -33 -88 -37 -138 -37c-13 0 -27 1 -40 1c-55 0 -107 -5 -147 -46l-27 -86c-16 -48 0 -78 21 -85h-122zM130 194
c88 72 226 -1 314 74l-148 398zM402 772c-57 0 -102 68 -148 68c-42 0 -55 -59 -64 -59c-4 0 -9 3 -10 7c1 42 56 87 96 87c58 0 106 -68 148 -68s55 59 64 59c4 0 9 -3 10 -7c-1 -42 -56 -87 -96 -87z" />
    <glyph glyph-name="Otilde" unicode="&#xd5;" horiz-adv-x="814" 
d="M706 347c0 174 -97 349 -302 349c-209 0 -298 -175 -298 -347c0 -175 98 -349 304 -349c207 0 296 176 296 347zM786 354c0 -209 -156 -364 -376 -364s-382 155 -382 365c0 211 156 351 376 351c217 0 382 -140 382 -352zM470 772c-57 0 -102 68 -148 68
c-42 0 -55 -59 -64 -59c-4 0 -9 3 -10 7c1 42 56 87 96 87c58 0 106 -68 148 -68s55 59 64 59c4 0 9 -3 10 -7c-1 -42 -56 -87 -96 -87z" />
    <glyph glyph-name="ydieresis" unicode="&#xff;" 
d="M72 330c-25 51 -38 118 -100 135h165c-25 -7 -37 -24 -34 -50c9 -72 143 -313 160 -352c22 73 139 284 147 348c5 41 -47 45 -77 54l163 -1c-48 -17 -70 -90 -119 -194l-114 -246c-47 -127 -111 -234 -150 -287c-11 -15 -24 -21 -36 -21c-13 0 -25 7 -34 17
c-15 16 -19 57 -7 57c1 0 2 -1 3 -1c8 -3 16 -5 24 -5c58 0 116 80 171 204zM267 613c0 19 12 32 31 32s32 -16 32 -34s-14 -33 -32 -33c-19 0 -31 17 -31 35zM132 613c0 19 12 32 32 32c18 0 31 -16 31 -34s-14 -33 -31 -33h-1c-19 0 -31 17 -31 35z" />
    <glyph glyph-name="Ydieresis" unicode="&#x178;" horiz-adv-x="666" 
d="M18 696h169c-13 -4 -23 -14 -23 -29c0 -48 170 -320 205 -378c37 86 162 307 162 369c0 19 -10 32 -29 38h142c-13 -3 -29 -7 -42 -13c-51 -23 -210 -381 -222 -404v-57c0 -66 -17 -207 72 -222h-204c66 16 67 108 67 162v106c-40 65 -84 149 -123 215
c-31 52 -113 196 -172 212h1zM398 778c-19 0 -31 17 -31 35c0 19 12 32 31 32s32 -16 32 -34s-14 -33 -32 -33zM232 813c0 19 12 32 32 32c18 0 31 -16 31 -34s-14 -33 -31 -33h-1c-19 0 -31 17 -31 35z" />
    <glyph glyph-name="Acircumflex" unicode="&#xc2;" horiz-adv-x="678" 
d="M-4 1c59 19 96 133 123 213c56 161 113 321 170 482h62l181 -482c22 -48 58 -167 97 -200c8 -7 20 -11 33 -14l-201 -2c107 3 30 136 8 203l-20 53c-39 -33 -88 -37 -138 -37c-13 0 -27 1 -40 1c-55 0 -107 -5 -147 -46l-27 -86c-16 -48 0 -78 21 -85h-122zM130 194
c88 72 226 -1 314 74l-148 398zM328 915h22c14 0 18 -4 25 -11l94 -103c6 -5 6 -8 6 -12c0 -3 -6 -3 -10 -3c-8 0 -15 3 -22 9l-103 80l-104 -80c-7 -6 -14 -9 -22 -9c-5 0 -11 0 -11 3c0 4 1 7 6 12l95 103c7 7 12 11 24 11z" />
    <glyph glyph-name="Ecircumflex" unicode="&#xca;" horiz-adv-x="558" 
d="M528 0h-505c14 3 25 8 37 17c28 22 29 167 29 205v285c0 39 -1 149 -29 173c-10 8 -21 13 -33 16h462v-104h-6c-10 34 -31 57 -66 70c-63 24 -204 24 -269 24v-364h117c78 0 104 8 112 97h5v-201h-5c-5 103 -54 94 -199 95h-30v-179c0 -48 7 -121 61 -123
c18 -1 39 -1 61 -1c101 0 234 12 251 99h7v-109zM154 786c-5 0 -11 0 -11 3c0 4 1 7 6 12l95 103c7 7 12 11 24 11h22c14 0 18 -4 25 -11l94 -103c6 -5 6 -8 6 -12c0 -3 -6 -3 -10 -3c-8 0 -15 3 -22 9l-103 80l-104 -80c-7 -6 -14 -9 -22 -9z" />
    <glyph glyph-name="Aacute" unicode="&#xc1;" horiz-adv-x="678" 
d="M-4 1c59 19 96 133 123 213c56 161 113 321 170 482h62l181 -482c22 -48 58 -167 97 -200c8 -7 20 -11 33 -14l-201 -2c107 3 30 136 8 203l-20 53c-39 -33 -88 -37 -138 -37c-13 0 -27 1 -40 1c-55 0 -107 -5 -147 -46l-27 -86c-16 -48 0 -78 21 -85h-122zM130 194
c88 72 226 -1 314 74l-148 398zM278 753l-1 -1c-2 0 -4 3 -5 6c-1 7 10 15 12 18l84 95c9 11 21 27 35 29c10 0 19 -5 21 -16c4 -20 -17 -32 -30 -42l-96 -77c-4 -3 -15 -11 -20 -12z" />
    <glyph glyph-name="Edieresis" unicode="&#xcb;" horiz-adv-x="558" 
d="M23 0c14 3 25 8 37 17c28 22 29 167 29 205v285c0 39 -1 149 -29 173c-10 8 -21 13 -33 16h462v-104h-6c-10 34 -31 57 -66 70c-63 24 -204 24 -269 24v-364h117c78 0 104 8 112 97h5v-201h-5c-5 103 -54 94 -199 95h-30v-179c0 -48 7 -121 61 -123c18 -1 39 -1 61 -1
c101 0 234 12 251 99h7v-109h-505zM346 778c-19 0 -31 17 -31 35c0 19 12 32 31 32s32 -16 32 -34s-14 -33 -32 -33zM180 813c0 19 12 32 32 32c18 0 31 -16 31 -34s-14 -33 -31 -33h-1c-19 0 -31 17 -31 35z" />
    <glyph glyph-name="Egrave" unicode="&#xc8;" horiz-adv-x="558" 
d="M23 0c14 3 25 8 37 17c28 22 29 167 29 205v285c0 39 -1 149 -29 173c-10 8 -21 13 -33 16h462v-104h-6c-10 34 -31 57 -66 70c-63 24 -204 24 -269 24v-364h117c78 0 104 8 112 97h5v-201h-5c-5 103 -54 94 -199 95h-30v-179c0 -48 7 -121 61 -123c18 -1 39 -1 61 -1
c101 0 234 12 251 99h7v-109h-505zM230 842c-13 10 -34 22 -30 42c2 11 11 16 21 16c14 -2 26 -18 35 -29l84 -95c2 -3 13 -11 12 -18c-1 -3 -3 -6 -5 -6l-1 1c-5 1 -16 9 -20 12z" />
    <glyph glyph-name="Iacute" unicode="&#xcd;" horiz-adv-x="288" 
d="M50 696h183c-11 -3 -25 -8 -32 -16c-16 -12 -24 -60 -27 -102c-2 -42 -2 -87 -2 -103v-264v-21c0 -40 1 -148 29 -173c8 -9 24 -14 37 -17h-186c7 2 15 5 20 10c10 5 17 13 22 25c10 17 13 57 14 93c1 37 1 75 1 94v264v21c0 38 -1 152 -26 173c-10 8 -22 13 -33 16z
M83 753l-1 -1c-2 0 -4 3 -5 6c-1 7 10 15 12 18l84 95c9 11 21 27 35 29c10 0 19 -5 21 -16c4 -20 -17 -32 -30 -42l-96 -77c-4 -3 -15 -11 -20 -12z" />
    <glyph glyph-name="Icircumflex" unicode="&#xce;" horiz-adv-x="288" 
d="M50 696h183c-11 -3 -25 -8 -32 -16c-16 -12 -24 -60 -27 -102c-2 -42 -2 -87 -2 -103v-264v-21c0 -40 1 -148 29 -173c8 -9 24 -14 37 -17h-186c7 2 15 5 20 10c10 5 17 13 22 25c10 17 13 57 14 93c1 37 1 75 1 94v264v21c0 38 -1 152 -26 173c-10 8 -22 13 -33 16z
M133 915h22c14 0 18 -4 25 -11l94 -103c6 -5 6 -8 6 -12c0 -3 -6 -3 -10 -3c-8 0 -15 3 -22 9l-103 80l-104 -80c-7 -6 -14 -9 -22 -9c-5 0 -11 0 -11 3c0 4 1 7 6 12l95 103c7 7 12 11 24 11z" />
    <glyph glyph-name="Idieresis" unicode="&#xcf;" horiz-adv-x="288" 
d="M50 696h183c-11 -3 -25 -8 -32 -16c-16 -12 -24 -60 -27 -102c-2 -42 -2 -87 -2 -103v-264v-21c0 -40 1 -148 29 -173c8 -9 24 -14 37 -17h-186c7 2 15 5 20 10c10 5 17 13 22 25c10 17 13 57 14 93c1 37 1 75 1 94v264v21c0 38 -1 152 -26 173c-10 8 -22 13 -33 16z
M180 813c0 19 12 32 31 32s32 -16 32 -34s-14 -33 -32 -33c-19 0 -31 17 -31 35zM45 813c0 19 12 32 32 32c18 0 31 -16 31 -34s-14 -33 -31 -33h-1c-19 0 -31 17 -31 35z" />
    <glyph glyph-name="Igrave" unicode="&#xcc;" horiz-adv-x="288" 
d="M50 696h183c-11 -3 -25 -8 -32 -16c-16 -12 -24 -60 -27 -102c-2 -42 -2 -87 -2 -103v-264v-21c0 -40 1 -148 29 -173c8 -9 24 -14 37 -17h-186c7 2 15 5 20 10c10 5 17 13 22 25c10 17 13 57 14 93c1 37 1 75 1 94v264v21c0 38 -1 152 -26 173c-10 8 -22 13 -33 16z
M212 752l-1 1c-5 1 -16 9 -20 12l-96 77c-13 10 -34 22 -30 42c2 11 11 16 21 16c14 -2 26 -18 35 -29l84 -95c2 -3 13 -11 12 -18c-1 -3 -3 -6 -5 -6z" />
    <glyph glyph-name="Oacute" unicode="&#xd3;" horiz-adv-x="814" 
d="M706 347c0 174 -97 349 -302 349c-209 0 -298 -175 -298 -347c0 -175 98 -349 304 -349c207 0 296 176 296 347zM786 354c0 -209 -156 -364 -376 -364s-382 155 -382 365c0 211 156 351 376 351c217 0 382 -140 382 -352zM346 753l-1 -1c-2 0 -4 3 -5 6c-1 7 10 15 12 18
l84 95c9 11 21 27 35 29c10 0 19 -5 21 -16c4 -20 -17 -32 -30 -42l-96 -77c-4 -3 -15 -11 -20 -12z" />
    <glyph glyph-name="Ocircumflex" unicode="&#xd4;" horiz-adv-x="814" 
d="M706 347c0 174 -97 349 -302 349c-209 0 -298 -175 -298 -347c0 -175 98 -349 304 -349c207 0 296 176 296 347zM786 354c0 -209 -156 -364 -376 -364s-382 155 -382 365c0 211 156 351 376 351c217 0 382 -140 382 -352zM396 915h22c14 0 18 -4 25 -11l94 -103
c6 -5 6 -8 6 -12c0 -3 -6 -3 -10 -3c-8 0 -15 3 -22 9l-103 80l-104 -80c-7 -6 -14 -9 -22 -9c-5 0 -11 0 -11 3c0 4 1 7 6 12l95 103c7 7 12 11 24 11z" />
    <glyph glyph-name="Ograve" unicode="&#xd2;" horiz-adv-x="814" 
d="M706 347c0 174 -97 349 -302 349c-209 0 -298 -175 -298 -347c0 -175 98 -349 304 -349c207 0 296 176 296 347zM786 354c0 -209 -156 -364 -376 -364s-382 155 -382 365c0 211 156 351 376 351c217 0 382 -140 382 -352zM475 752l-1 1c-5 1 -16 9 -20 12l-96 77
c-13 10 -34 22 -30 42c2 11 11 16 21 16c14 -2 26 -18 35 -29l84 -95c2 -3 13 -11 12 -18c-1 -3 -3 -6 -5 -6z" />
    <glyph glyph-name="Uacute" unicode="&#xda;" horiz-adv-x="707" 
d="M52 679c-11 9 -26 14 -37 17h183c-6 -2 -14 -5 -21 -11c-8 -5 -16 -12 -20 -23c-9 -16 -12 -57 -14 -94c-1 -37 -1 -75 -1 -93v-216c0 -147 61 -256 224 -256c168 0 239 119 239 269v226c0 24 0 55 -4 85c-5 47 -11 101 -66 113h157c-9 -2 -20 -6 -27 -11
c-43 -25 -44 -141 -44 -187v-224c0 -168 -84 -284 -265 -284c-189 0 -276 93 -276 274v243c0 39 -1 148 -28 172zM286 758c-1 7 10 15 12 18l84 95c9 11 21 27 35 29c10 0 19 -5 21 -16c4 -20 -17 -32 -30 -42l-96 -77c-4 -3 -15 -11 -20 -12l-1 -1c-2 0 -4 3 -5 6z" />
    <glyph glyph-name="Ucircumflex" unicode="&#xdb;" horiz-adv-x="707" 
d="M52 679c-11 9 -26 14 -37 17h183c-6 -2 -14 -5 -21 -11c-8 -5 -16 -12 -20 -23c-9 -16 -12 -57 -14 -94c-1 -37 -1 -75 -1 -93v-216c0 -147 61 -256 224 -256c168 0 239 119 239 269v226c0 24 0 55 -4 85c-5 47 -11 101 -66 113h157c-9 -2 -20 -6 -27 -11
c-43 -25 -44 -141 -44 -187v-224c0 -168 -84 -284 -265 -284c-189 0 -276 93 -276 274v243c0 39 -1 148 -28 172zM229 786c-5 0 -11 0 -11 3c0 4 1 7 6 12l95 103c7 7 12 11 24 11h22c14 0 18 -4 25 -11l94 -103c6 -5 6 -8 6 -12c0 -3 -6 -3 -10 -3c-8 0 -15 3 -22 9
l-103 80l-104 -80c-7 -6 -14 -9 -22 -9z" />
    <glyph glyph-name="Ugrave" unicode="&#xd9;" horiz-adv-x="707" 
d="M52 679c-11 9 -26 14 -37 17h183c-6 -2 -14 -5 -21 -11c-8 -5 -16 -12 -20 -23c-9 -16 -12 -57 -14 -94c-1 -37 -1 -75 -1 -93v-216c0 -147 61 -256 224 -256c168 0 239 119 239 269v226c0 24 0 55 -4 85c-5 47 -11 101 -66 113h157c-9 -2 -20 -6 -27 -11
c-43 -25 -44 -141 -44 -187v-224c0 -168 -84 -284 -265 -284c-189 0 -276 93 -276 274v243c0 39 -1 148 -28 172zM304 842c-13 10 -34 22 -30 42c2 11 11 16 21 16c14 -2 26 -18 35 -29l84 -95c2 -3 13 -11 12 -18c-1 -3 -3 -6 -5 -6l-1 1c-5 1 -16 9 -20 12z" />
    <glyph glyph-name="fi" unicode="&#xfb01;" horiz-adv-x="618" 
d="M21 435h92c0 163 8 307 160 307c79 0 137 -69 137 -125c0 -21 -20 -30 -39 -30c-54 0 15 147 -107 145c-102 -2 -91 -170 -91 -238v-59h136v-14h-136v-231c0 -38 -1 -148 29 -173c10 -9 23 -14 36 -17h-180c69 20 55 166 55 222v199h-92v14zM414 468c42 4 85 8 133 8
l1 -188l-1 -139c0 -29 0 -102 12 -125c7 -14 22 -21 36 -24h-162c16 3 29 10 37 25c15 28 15 104 15 137c0 132 4 227 -16 270c-13 20 -32 31 -55 36zM455 626c0 23 19 43 46 43c26 0 47 -20 47 -43c0 -24 -21 -44 -47 -44c-27 0 -46 20 -46 44z" />
    <glyph glyph-name="fl" unicode="&#xfb02;" horiz-adv-x="615" 
d="M21 435h92c0 163 8 307 160 307c79 0 137 -69 137 -125c0 -21 -20 -30 -39 -30c-54 0 15 147 -107 145c-102 -2 -91 -170 -91 -238v-59h136v-14h-136v-231c0 -38 -1 -148 29 -173c10 -9 23 -14 36 -17h-180c69 20 55 166 55 222v199h-92v14zM422 726h1c42 4 81 7 123 7
v-564c0 -33 0 -116 14 -143c9 -15 22 -22 36 -26h-162c14 4 30 11 37 25c14 26 14 111 14 144v389c0 28 0 122 -14 141c-3 9 -8 12 -16 16l-1 1c-10 6 -19 9 -32 10z" />
    <glyph glyph-name="dotlessi" unicode="&#x131;" horiz-adv-x="225" 
d="M76 432c-13 20 -32 31 -55 36c42 4 85 8 133 8l1 -188l-1 -139c0 -29 0 -102 12 -125c7 -14 22 -21 36 -24h-162c16 3 29 10 37 25c15 28 15 104 15 137c0 132 4 227 -16 270z" />
    <glyph glyph-name="quotedblleft" unicode="&#x201c;" horiz-adv-x="380" 
d="M62 521c0 80 74 159 92 159h1c3 0 7 -3 7 -7c0 -5 -16 -19 -32 -39c-18 -21 -37 -50 -37 -81c0 -20 12 -25 30 -25c22 0 35 -14 35 -37c0 -25 -16 -44 -41 -44c-39 0 -55 41 -55 74zM218 520c0 83 77 160 92 160h1c3 0 7 -4 7 -8c0 -5 -16 -19 -32 -38
c-18 -22 -37 -50 -37 -81c0 -20 12 -25 30 -25c22 -1 35 -14 35 -37c0 -25 -16 -44 -41 -44c-39 0 -55 41 -55 73z" />
    <glyph glyph-name="quotedblright" unicode="&#x201d;" horiz-adv-x="380" 
d="M66 596v1c0 24 16 42 41 42c38 0 55 -40 55 -73c0 -82 -77 -160 -92 -160c-4 0 -8 4 -8 9c0 4 16 18 32 38c18 22 37 50 37 81c0 20 -13 25 -30 25c-23 0 -35 14 -35 37zM222 595v1c0 25 16 43 41 43c38 0 55 -41 55 -73c0 -83 -77 -160 -92 -160c-4 0 -8 4 -8 8
c0 5 16 19 32 38c18 22 37 50 37 81c0 20 -13 25 -30 25c-23 1 -35 14 -35 37z" />
    <glyph glyph-name="quoteleft" unicode="&#x2018;" horiz-adv-x="220" 
d="M154 680h1c3 0 7 -4 7 -8c0 -5 -16 -19 -32 -38c-18 -22 -37 -50 -37 -81c0 -20 12 -25 30 -25c22 -1 35 -14 35 -37c0 -25 -16 -44 -41 -44c-39 0 -55 41 -55 73c0 83 77 160 92 160z" />
    <glyph glyph-name="quoteright" unicode="&#x2019;" horiz-adv-x="220" 
d="M64 596v1c0 24 16 42 41 42c38 0 55 -40 55 -73c0 -82 -76 -160 -92 -160c-4 0 -8 4 -8 9c0 4 16 18 32 38c18 22 37 50 37 81c0 20 -13 25 -30 25c-23 0 -35 14 -35 37z" />
    <glyph glyph-name="questiondown" unicode="&#xbf;" horiz-adv-x="371" 
d="M165 562v-34c0 -162 -151 -205 -151 -362c0 -60 22 -153 116 -153c35 0 100 12 100 58c0 27 -30 38 -30 69c0 29 17 44 47 44c35 0 48 -33 48 -62c0 -88 -91 -119 -169 -122c-101 0 -195 57 -195 168c0 156 195 209 211 339c2 18 1 37 1 55h22zM154 640
c-23 0 -41 19 -41 40c0 22 16 43 41 43c26 0 44 -19 44 -43c0 -23 -19 -40 -44 -40z" />
    <glyph glyph-name="exclamdown" unicode="&#xa1;" horiz-adv-x="258" 
d="M78 625c-28 0 -50 20 -50 45c0 27 22 46 50 46c29 0 49 -20 49 -46c0 -25 -21 -45 -49 -45zM78 0c-26 0 -41 17 -41 41c0 79 6 161 18 240c0 16 2 33 3 49c5 66 12 131 13 198h16c2 -82 7 -165 16 -247c1 -13 2 -26 4 -39c6 -67 13 -135 13 -201c0 -24 -15 -41 -42 -41z
" />
    <glyph glyph-name="ellipsis" unicode="&#x2026;" horiz-adv-x="555" 
d="M93 81c28 0 49 -20 49 -45c0 -27 -21 -46 -49 -46c-29 0 -49 20 -49 46c0 25 21 45 49 45zM278 81c28 0 49 -20 49 -45c0 -27 -21 -46 -49 -46c-29 0 -49 20 -49 46c0 25 21 45 49 45zM463 81c28 0 49 -20 49 -45c0 -27 -21 -46 -49 -46c-29 0 -49 20 -49 46
c0 25 21 45 49 45z" />
    <glyph glyph-name="quotesinglbase" unicode="&#x201a;" horiz-adv-x="220" 
d="M67 25v1c0 24 16 42 41 42c38 0 55 -40 55 -73c0 -80 -74 -159 -92 -159c-4 0 -8 4 -8 8s16 18 32 38c18 22 37 50 37 81c0 20 -13 25 -30 25c-23 0 -35 14 -35 37z" />
    <glyph glyph-name="quotedblbase" unicode="&#x201e;" horiz-adv-x="360" 
d="M67 25v1c0 24 16 42 41 42c38 0 55 -40 55 -73c0 -80 -74 -159 -92 -159c-4 0 -8 4 -8 8s16 18 32 38c18 22 37 50 37 81c0 20 -13 25 -30 25c-23 0 -35 14 -35 37zM210 25v1c0 24 16 42 42 42c38 0 55 -41 55 -73c0 -84 -79 -160 -93 -160c-4 0 -8 4 -8 8
c0 5 16 19 32 38c18 22 37 51 37 82c0 19 -12 24 -29 25c-23 0 -36 13 -36 37z" />
    <glyph glyph-name="endash" unicode="&#x2013;" horiz-adv-x="400" 
d="M400 252l-400 -3v52l400 3v-52z" />
    <glyph glyph-name="emdash" unicode="&#x2014;" horiz-adv-x="741" 
d="M742 252l-742 -3v52l742 3v-52z" />
    <glyph glyph-name="dagger" unicode="&#x2020;" horiz-adv-x="516" 
d="M268 -164h-18c0 110 4 242 -32 347c30 51 32 186 32 244c-92 0 -130 -30 -166 -30c-23 0 -39 14 -39 37s16 37 39 37c36 0 79 -31 166 -31c0 128 -33 141 -33 182c0 24 19 40 42 40s42 -16 42 -40c0 -41 -33 -54 -33 -182c82 0 132 31 166 31c23 0 39 -14 39 -37
s-16 -37 -39 -37c-44 0 -82 30 -166 30c0 -58 4 -193 34 -244c-36 -105 -34 -237 -34 -347z" />
    <glyph glyph-name="yen" unicode="&#xa5;" horiz-adv-x="620" 
d="M0 695l166 1c-13 -4 -23 -14 -23 -29c0 -49 154 -297 200 -369h9c6 13 13 28 21 44c4 8 8 17 13 26c51 102 124 243 124 290c0 19 -10 32 -29 38h142c-13 -3 -29 -7 -42 -13c-36 -16 -126 -201 -180 -315h97v-26h-110c-8 -18 -15 -33 -20 -44h130v-26h-139v-50
c0 -66 -17 -207 72 -222h-204c66 16 67 108 67 162v106c-1 1 -2 3 -2 4h-150v26h134c-8 14 -17 29 -25 44h-109v26h94c-22 40 -44 80 -65 115c-31 52 -112 196 -171 212z" />
    </font>
</defs>
</svg>
