<svg xmlns="http://www.w3.org/2000/svg" viewBox="0 0 461.8 186.8">
<style type="text/css">

.st0{fill:#2B525A;}

</style>
<path class="st0" d="M35.1 155c4.5 5.5 10.2 8 12 15.1 5-6.2 10.4-8 16.8-12.8"/>
<path class="st0" d="M108.1 90.6c-1.2-0.4-2.5-0.3-3.8 0 -9.6 2.8-22.1 0.5-41.1-4.2 -6.8-1.6-13.5-3.5-20.1-5.7 -3.4-1.1-6.7-2.3-10-3.5 -3-1.1-6-2.7-9.2-3.3 -3.3-0.6-6.5 1.3-7.6 4.4l-0.6 1.7c-0.1 0.2-0.1 0.4-0.2 0.6 -8.7 30.9-4.4 66 24.7 79.7 14.6 6.9 39.9-3.5 54.6-17.5 11.8-11.2 19.3-30.2 16.9-46.5C111.1 92.3 109.9 91.1 108.1 90.6z"/>
<path class="st0" d="M30.6 72c-25.9-6.7-22-38.2 1.6-39.9 16.2-1.2 26.8 6.9 35.2 8.4 8.4 1.4 19.6 4.5 28 4.2 17.4-0.7 31.3 19.2 23.6 30.5 -10.8 16.1-25.6 13.7-55.8 6.3C47.1 77.6 43.6 75.9 30.6 72"/>
<path class="st0" d="M75 38.9c1.5-9.2 7.5-20.9 13.7-27.4 4.5 3.6 4.3 5.2 9.2 9.3 -8.9 4.1-14.7 8.6-19.2 18.7"/>
<path class="st0" d="M110.5 88.8c10.7-5.8 21-17.8 13.4-29.9 -0.8-1.3-2.9-0.4-2.2 1 6.2 12.9-4.2 19.3-12 27.6C109.1 88.1 109.6 89.3 110.5 88.8L110.5 88.8z"/>
<path class="st0" d="M293.6 119.4c-0.6-0.6-0.9-1.3-0.9-2 0.1-0.7 0.3-1.4 0.6-2.1 0.5-1.3 1.2-2.7 2.1-4.1 0.9-1.4 1.9-2.7 3-4.1s2.2-2.5 3.4-3.7c1.2-1.1 2.4-2.2 3.5-3.1 2.4-1.8 4.9-3.7 7.3-5.4 2.5-1.8 4.9-3.6 7.4-5.4 0.5-0.2 0.9-0.6 1.4-1 0.1-0.1 0.2-0.3 0.3-0.8 -0.5-0.2-0.9-0.4-1.3-0.6 -0.4-0.2-0.9-0.5-1.4-0.7 -0.3-0.1-0.6-0.2-0.9-0.4 -0.3-0.1-0.6-0.3-0.9-0.5 -2.9-1.7-4.7-3.6-5.4-5.9s0-4.8 1.7-7.5c1.2-1.8 2.5-3.6 3.9-5.4 1.4-1.7 2.8-3.5 4.2-5.3 0.3-0.4 0.8-0.8 1.5-1.2 0.7-0.3 1.2-0.5 1.8-0.5 1.1 0 2 0.5 2.6 1.6 0.5 0.8 0.6 1.7 0.3 2.5 -0.3 0.8-0.8 1.4-1.8 1.7 -2.4 0.9-4.3 2.2-5.7 3.9 -1.4 1.7-2.7 3.6-3.9 5.5 -1 1.7-1.3 3-1 4.2 0.3 1.1 1.3 2.2 2.9 3.3 0.3 0.2 0.7 0.5 1.4 0.9 0.7 0.4 1.4 0.8 2.2 1.2 0.8 0.4 1.5 0.7 2.2 1 0.7 0.3 1.2 0.4 1.6 0.4 0.6 0 1.3-0.2 2.1-0.7 0.8-0.4 2-1.1 3.5-1.9 1.6-0.8 3.2-1.7 5-2.5 1.8-0.9 3.5-1.6 5.1-2.2 1.6-0.6 2.8-1 3.7-1 0.4 0.1 0.7 0.3 1 0.8 0.1 0.1 0.1 0.3 0 0.5 -0.1 0.2-0.2 0.3-0.3 0.4 -0.3 0.1-0.7 0.3-1 0.4 -0.3 0.1-0.7 0.3-1 0.4 -2.9 0.9-5.4 1.8-7.6 2.8 -2.2 1-4.6 2.3-7.1 3.9 -0.1 0.1-0.3 0.2-0.4 0.3 -0.1 0.1-0.3 0.3-0.5 0.4 0.3 0.3 0.5 0.6 0.8 1 0.3 0.3 0.5 0.6 0.7 1 0.9 1.6 1.1 3.3 0.6 5 -0.4 1.3-0.9 2.5-1.7 3.5 -0.7 1.1-1.5 2.1-2.5 3.2 -3.3 3.7-6.9 7.1-10.8 10.1 -3.8 3.1-8 5.7-12.6 7.8 -0.7 0.3-1.5 0.6-2.3 0.8 -0.8 0.2-1.6 0.5-2.3 0.7C296.2 120.8 294.8 120.5 293.6 119.4zM295.6 115.7c-0.3 0.8-0.3 1.5 0 1.9 0.3 0.4 0.9 0.5 1.8 0.1 3.2-1.1 6.1-2.4 8.6-3.8 2.5-1.4 4.9-2.9 7.1-4.6 2.2-1.7 4.3-3.6 6.3-5.8 2-2.1 4-4.5 6.1-7.1 0.4-0.5 0.7-1.1 0.9-1.8 0.2-0.7 0.5-1.3 0.7-1.9 -0.1-1.5-0.7-2.5-2-3.2 -0.5-0.3-1-0.4-1.5-0.2 -0.5 0.2-0.9 0.5-1.5 0.8 -3.3 2-6.4 4.2-9.5 6.5 -3.1 2.3-6 4.8-8.6 7.7 -1.6 1.7-3.2 3.5-4.8 5.4C297.8 111.6 296.5 113.6 295.6 115.7z"/>
<path class="st0" d="M162.1 100.2c-0.2-0.4-0.3-0.9-0.3-1.3 -0.2-3 0.1-5.6 0.8-8.1 1.2-3.9 2.9-7.4 4.3-10.4l0.2-0.5c0.2-0.4 0.4-0.9 0.7-1.2 0.9-1.3 0.7-2.6-0.5-3.6 -0.5-0.5-0.9-1-1.3-1.6 -0.2-0.3-0.3-0.7-0.4-1 0-0.6 0.1-1 0.5-1.1 0.3-0.2 0.5-0.3 0.8-0.3 0.3 0 0.5 0.1 0.8 0.3 0.2 0.1 0.4 0.3 0.6 0.5 0.5 0.6 1.1 1.2 1.8 1.2 0.9 0 1.5-0.9 2-1.6 5-8.3 11.1-16.8 18.4-26 2.8-3.4 6.5-7.9 10.7-11.9l0.3-0.3c0.5-0.5 1-1 1.6-1.2 0.3-0.1 0.5-0.2 0.8-0.2 0.4 0 0.8 0.2 1.1 0.6 0.4 0.6 0.3 1 0.2 1.2 -0.2 0.3-0.5 0.7-0.8 1 -5.2 4.8-9.5 10.2-14.2 16.2 -5.8 7.4-10.6 14.2-14.8 21 -0.4 0.9-0.9 1.6-1.3 2.4 -0.2 0.5-0.3 0.9-0.1 1.2 0.1 0.3 0.4 0.8 1 1 2.1 0.9 4.2 1.1 5.8 1.2h2.1c3.4 0 7.2-0.4 11.2-1.2 11.8-2.4 23.6-6.8 35-13 5.2-2.9 9.3-6.1 12.5-9.9 2.6-3.1 4.2-6.2 5.1-9.4 1.2-4.4 0.7-8.7-1.7-12.7 -1.6-2.6-3.7-5-6.6-7.2 -4.4-3.4-9.7-6-16.2-7.7 -4.9-1.3-9.9-2.2-15.6-2.7 -3.2-0.2-6.1-0.4-8.6-0.4 -1.3 0-2.5 0.1-3.6 0.1 -17.8 0.9-33.5 4-48.2 9.7 -4.6 1.8-8.6 3.7-12.4 6 -2.7 1.7-5 3.5-6.9 5.5 -1.2 1.2-2 2.5-2.5 3.8 -0.8 2-0.5 3.8 1 5.5 0.9 1.1 2 1.9 3.5 2.7 1.7 0.9 3.4 1.6 5.4 2.2l3.6 1.2c1.4 0.4 2.8 0.9 4.2 1.3 1.4 0.4 2.9 1 4.3 1.6 0.9 0.4 1.7 1 2.2 1.6 0.6 0.9 0.7 1.8 0.1 2.5 -0.3 0.4-0.7 0.6-1.1 0.6 -0.3 0-0.7-0.1-0.9-0.4 -0.1 0-0.3-0.2-0.4-0.4 -0.6-1.1-1.8-1.7-2.9-2.1 -2-0.7-3.7-1.2-5.4-1.7 -2.8-0.9-5.8-1.7-8.6-3 -2.2-1-3.8-2-5.3-3.1 -4.7-4.1-2.7-9.2-2-10.6 0.7-1.3 1.7-2.8 3.1-4.1 2.2-2.2 4.8-4.2 8.1-6.1 5.6-3.3 12.2-6.2 20.1-8.6 7.6-2.4 15.5-4.2 24.3-5.4 6.8-1 13.1-1.4 19.2-1.4h1.3 1.9c7.5 0 14.6 0.9 21.4 2.5 5.2 1.3 9.7 3.1 13.9 5.4 4.5 2.6 8.1 5.5 10.8 9.1 2.6 3.3 3.9 7 4.3 11 0.2 2.8-0.4 5.6-1.7 8.9 -1.5 3.6-3.8 7-7.2 10.3 -3 3.2-6.9 5.8-11.6 8.4 -11.5 6.2-22.8 10.4-34.5 12.8 -4.3 1-8.3 1.4-12.3 1.4 -1.4 0-2.7-0.1-4-0.2 -1.7-0.2-3.3-0.6-5-1l-0.5-0.1c-0.5-0.2-0.8-0.2-1.2-0.2 -0.9 0-1.3 0.6-1.7 1.2 -2.6 4.8-4.8 9.5-5.7 14.7 -0.2 1.2-0.2 2.5-0.2 3.7v0.3c0 0.5 0 0.9-0.1 1.2 -0.1 0.6-0.5 1.1-1.1 1.2h-0.1C162.8 101.1 162.3 100.7 162.1 100.2z"/>
<path class="st0" d="M219.9 98.1c-2.3-0.2-3.8-1.7-3.8-4.1V93.1c0.1-0.2 0.1-0.3 0.1-0.5v-0.1c0-0.4 0.1-1-0.4-1.6l-0.2-0.3h-0.6c-0.9 0-1.6 0.4-2.3 0.7l-0.6 0.3c-2 0.9-4.4 1.8-6.9 2.4l-0.5 0.1c-1.3 0.3-2.6 0.6-3.8 0.6h-0.1c-0.6 0-1.3 0-1.9-0.1 -1.6-0.5-2.4-1.5-2.4-3.2 0.1-0.8 0.3-1.5 0.8-2.4 0.8-1.3 1.8-2.6 3.2-3.7 1.6-1.4 3.4-2.6 5.4-3.4 2-1 3.9-1.3 6-1.3h0.9c2.5 0.1 4.2 1 5.3 2.7 0.5 0.7 1.1 1.3 2.2 1.3 0.3 0 0.7-0.1 1-0.2 0.1 0 0.2-0.1 0.2-0.1h0.2c0.1-0.1 0.3-0.1 0.4-0.1 0.5 0 0.8 0.2 1.1 0.6 0.2 0.3 0.5 0.8 0.1 1.6 -0.2 0.4-0.5 0.7-0.7 1l-0.3 0.4c-0.9 1.2-1.7 2.5-2.5 4.1 -0.2 0.4-0.4 0.8-0.5 1.2 -0.2 0.7-0.1 1.3 0.2 1.7 0.3 0.5 0.8 0.7 1.4 0.7h0.3c0.9-0.1 1.9-0.4 2.8-0.6 3.2-1 6.2-2.2 8.7-3.3l6.3-2.9 4.5-2 0.2-0.1 1.3-0.6c0.3 0 0.6-0.1 0.8-0.1 0.7 0 1.1 0.3 1.3 0.8 0.4 0.9-0.3 1.4-0.8 1.8 -0.2 0.2-0.5 0.3-0.8 0.4 -1.6 0.8-3.1 1.5-4.7 2.2 -4.2 2-8.4 4-12.9 5.6 -1.2 0.4-2.4 0.8-3.5 1.1 -0.4 0.1-0.8 0.3-1.2 0.4 -0.6 0.2-1.3 0.3-2.1 0.3C220.7 98.2 220.3 98.1 219.9 98.1zM203.3 91.4c0.1 0 0.3 0 0.4-0.1 3.6-0.8 7.2-2.3 10.3-3.8 0.3-0.2 0.7-0.4 1-0.7 0.5-0.4 0.7-1 0.6-1.5 0-0.7-0.4-1.1-1-1.4 -0.9-0.5-1.8-0.7-2.8-0.7h-0.5c-0.3 0.1-0.7 0.1-1.1 0.2 -3.1 0.7-5.9 2.2-8.3 4.7l-0.3 0.3c-0.5 0.5-1.4 1.3-0.9 2.4 0.3 0.6 0.8 0.9 1.5 0.9C202.5 91.6 202.9 91.5 203.3 91.4z"/>
<path class="st0" d="M243.7 97.1c-0.5-0.2-0.9-0.5-0.9-1.4v-0.7l0.2-1.4c0.1-1.1 0.3-2.4 0.5-3.5 0.3-2.5 0.7-4.6 1-6.7 0.1-0.5 0.2-0.9 0.4-1.2 0.2-0.5 0.5-0.7 1.1-0.7h0.1c0.6 0 0.9 0.2 1.2 0.8 0.3 0.4 0.3 1 0.3 1.6l-0.2 1.1c0 0.4 0 0.8-0.1 1.2 0 0.3 0.1 0.6 0.3 0.9 0.3 0.2 0.6 0.4 1 0.4 0.2 0 0.5-0.1 0.6-0.2l1.7-1.2c2.8-2.3 5.4-4 8.1-5.2 1.3-0.6 2.4-0.9 3.4-0.9 0.4 0 0.8 0 1.2 0.1 1.1 0.2 1.8 0.7 2.3 1.4 0.3 0.4 0.3 0.8 0.3 1.2 -0.1 0.4-0.4 0.7-0.7 0.9 -0.3 0.1-0.5 0.2-0.7 0.2 -0.1 0-0.3 0-0.4-0.1 -0.7-0.5-1.4-0.8-2.2-0.8 -1 0-1.9 0.5-2.6 0.9 -6.2 3.4-10.4 7.2-13.2 11.7v0.1c-0.3 0.5-0.6 0.9-0.9 1.2 -0.4 0.5-0.8 0.7-1.3 0.7C244 97.2 243.8 97.2 243.7 97.1z"/>
<path class="st0" d="M341.2 100.2c-1.8-0.5-2.5-1.4-2.5-3.1 0-0.9 0.2-1.6 0.4-2.4 1-2.7 2.6-5.2 4.6-7.9 0.3-0.3 0.6-0.6 1-0.9 0.2-0.1 0.6-0.2 0.9-0.2 0.4 0 0.7 0.1 0.9 0.3 0.5 0.4 0.7 1.2 0.3 1.7 -0.2 0.4-0.4 0.7-0.8 1.1l-0.1 0.2c-1.6 1.7-2.7 3.6-3.6 6 -0.3 0.9 0 1.3 0.1 1.5 0.3 0.4 0.8 0.7 1.3 0.7 0.2 0 0.3 0 0.4-0.1 1.6-0.2 3.1-0.7 4.7-1.3l5.9-2.3c3.6-1.4 7.3-2.9 10.8-4.5 0.4-0.2 0.7-0.3 1-0.3s0.5 0.1 0.8 0.3c0.7 0.6 0.7 1.3 0.2 2.1 -0.4 0.5-1 0.8-1.7 1.1l-17.5 6.9c-1.7 0.7-3.4 1.1-4.9 1.2 -0.3 0.1-0.6 0.1-0.9 0.1C342 100.3 341.6 100.3 341.2 100.2zM346.9 77.2c-0.5-0.4-0.6-0.9-0.5-1.3 0.2-0.4 0.3-0.7 0.5-1 0.4-0.4 0.7-0.9 1-1.3 1.5-1.9 3-3.8 4.6-5.6 0.8-0.8 1.7-1.5 2.3-2 0.3-0.2 0.6-0.4 1-0.4 0.1 0 0.3 0.1 0.5 0.1 0.5 0.2 0.9 0.7 1 1.2 0 0.4-0.2 0.8-0.6 1.1 -2.2 2-3.9 4.3-5.6 6.5l-1.5 1.8c-0.3 0.4-0.7 0.9-1.2 1.1 -0.2 0.2-0.5 0.2-0.7 0.2C347.4 77.5 347.2 77.4 346.9 77.2z"/>
<path class="st0" d="M359.2 101.7c-1.3-0.5-1.8-1.2-1.8-2.5 0.1-0.8 0.3-1.5 0.7-2.3 0.6-1 1.4-2.1 2.4-3.1 3.3-3.7 7.3-6.6 11.5-8.5 1.9-0.9 4.1-1.8 6.9-1.8h0.6c0.5 0 1.4 0.1 2.2 0.6 0.5 0.3 0.9 0.4 1.3 0.4 0.9 0 1.4-0.8 1.7-1.2 0.5-0.7 0.9-1.4 1.4-2.1 4.7-7.6 10.4-14.9 17.1-21.4 2.6-2.5 5.5-4.8 8.9-6.9 0.7-0.5 1.5-0.9 2.4-1.2 0.4-0.3 0.9-0.4 1.4-0.5h0.8c1.2 0 2.1 0.4 2.8 1.1 0.6 0.8 0.9 1.9 0.6 3.3 -0.2 1.2-0.7 2.5-1.5 3.8 -0.8 1.3-1.9 2.8-3.2 4.3 -5.5 6.2-11.7 12.1-18.4 17.6 -4 3.3-7.7 6.1-11.3 8.6 -0.8 0.6-1.8 1.3-2 2.9 -0.2 1.6 0.8 2.8 2.4 3.1h0.9c0.7 0 1.5-0.1 2.4-0.3 3.9-1.1 7.3-2.5 10.3-4l6-3.2c0.9-0.5 1.8-1 2.7-1.5l0.6-0.3 1.1-0.6c0.3-0.1 0.5-0.2 0.8-0.2 0.4 0 0.7 0.2 1 0.6 0.4 0.5 0.3 1.2-0.2 1.7 -0.3 0.3-0.6 0.6-1 0.9 -5.4 3.3-11.3 6.6-17.8 8.7 -1.3 0.4-2.6 0.9-4.2 1.2 -0.6 0.1-1.3 0.2-1.8 0.2 -2.4 0-4.2-1-5.6-3.1l-0.1-0.2c-0.1-0.1-0.2-0.3-0.3-0.5 -0.4-0.4-0.8-0.6-1.3-0.6 -0.3 0-0.6 0-0.8 0.2 -0.9 0.5-1.8 1-2.6 1.5 -2.3 1.3-4.8 2.9-7.5 4 -2.1 1-3.9 1.5-6 1.9 -0.5 0.1-1 0.2-1.4 0.2C360.3 102.1 359.7 102 359.2 101.7zM363.7 98.5c0.2-0.1 0.5-0.2 0.7-0.2 0.9-0.3 1.8-0.6 2.7-1 3.5-1.6 6.9-3.7 10.1-5.7 1.4-1 1.9-2.3 2.3-3.3 0.2-0.5 0.2-0.9-0.1-1.2 -0.3-0.4-0.7-0.6-1.2-0.6 -1.4 0-2.6 0.4-3.8 0.9 -4.3 1.8-8.2 4.6-11.8 8.4 -0.1 0.2-0.2 0.4-0.3 0.5l-0.1 0.1c-0.2 0.3-0.8 1.1-0.2 1.8 0.2 0.4 0.6 0.6 1 0.6C363.2 98.7 363.5 98.6 363.7 98.5zM392 81c0.3-0.2 0.6-0.3 0.8-0.5 7.6-5.9 14.6-12.5 20.9-19.9 1.1-1.2 1.9-2.4 2.5-3.5 0.1-0.4 0.2-0.7 0.3-0.9 0-0.1 0-0.2 0.1-0.3v-0.5c-0.3-0.8-0.9-1-1.2-1h-0.4c-0.6 0.2-1.1 0.5-1.5 0.7 -2 1.2-3.6 2.4-5.1 3.6 -6.2 5.3-11.9 11.8-17.4 19.8l-0.6 1.1c-0.1 0.4 0 1 0.4 1.2 0.2 0.1 0.4 0.2 0.7 0.2C391.7 81.1 391.9 81.1 392 81z"/>
<path class="st0" d="M412.6 95.9c-2.4-0.8-4-2.1-4.9-3.7 -0.8-1.7-0.8-3.8 0.1-6 1.3-3 3.3-5.4 6.3-7.4 1-0.7 2.1-1 3.3-1 0.3 0 0.7 0 1 0.1 1.8 0.2 2.9 1.4 3.1 3.1 0.2 1.2 0 2.2-0.5 3.2 -1.5 2.9-3.6 4.6-6.8 5.5 -0.3 0.1-0.7 0.2-1.1 0.2 -0.3 0-0.7-0.1-1.1-0.1h-0.2c-0.6 0-1.1 0.4-1.2 1.1 0 0.4 0.2 0.8 0.5 1.2 0.8 0.9 1.8 1.2 2.7 1.4 1.4 0.5 2.8 0.7 4.4 0.7 0.3 0 0.5 0 0.8-0.1 3.7 0 7.2-0.8 11.1-1.7 4.1-1 8.1-2.3 12.7-3.8 1.9-0.7 3.8-1.2 5.8-1.9l0.9-0.3 1-0.3h0.1c0.6 0 1.2 0.3 1.4 0.8 0.2 0.5 0.1 1.2-0.3 1.6 -0.4 0.3-0.8 0.6-1.5 0.8 -2.2 0.7-4.3 1.3-6.4 2.1 -4.6 1.5-9.3 3.1-14.1 4.1 -3.8 0.9-6.9 1.3-9.6 1.6h-1.7C416.3 96.6 414.3 96.4 412.6 95.9zM413.5 86.4c2.3-0.5 3.8-1.8 4.6-3.9 0.1-0.3 0.1-0.5 0.1-0.7v-0.1l-0.1-0.2c-0.3-0.8-0.9-1-1.2-1 -0.2 0-0.4 0.1-0.6 0.2 -2 0.8-3.1 2.3-4.2 3.8 -0.2 0.3-0.3 1 0.1 1.3 0.2 0.2 0.6 0.5 1.1 0.5H413.5z"/>
  <path class="st0" d="M317.8 17.9c1.4-0.1 2.5 0.2 3.3 0.9 0.8 0.7 1.2 1.8 1 3.1 -0.2 2-0.7 3.9-1.7 5.8 -1 2.4-2.2 4.6-3.6 6.6 -1.4 2-2.9 4.1-4.5 6.1 -3.3 4.4-6.9 8.6-10.6 12.7 -3.7 4.1-7.6 8-11.6 11.7 -1.7 1.7-3.4 3.3-5.2 4.8 -1.8 1.6-3.5 3.2-5.3 4.7 -0.5 0.4-1.1 0.7-1.6 1 -0.6 0.3-1.1 0.5-1.6 0.9 -0.4 0.3-0.8 0.5-1.2 0.8 -0.4 0.3-0.7 0.5-0.8 0.9 -1.1 2.6-2.1 5.1-3.1 7.7 -0.9 2.6-1.7 5.3-2.2 8.1 0.9-1.2 1.7-2.4 2.5-3.7 0.8-1.2 1.7-2.4 2.7-3.5 1.4-1.5 2.8-3 4.3-4.5 1.5-1.4 3-2.9 4.5-4.4 0.6-0.6 1.3-1.1 2.1-1.5s1.6-0.8 2.4-1.2c0.8-0.4 1.7-0.6 2.7-0.6 1.1 0 1.8 0.3 2.3 1 0.5 0.7 0.6 1.5 0.3 2.4 -0.4 1-1 2-1.9 2.8 -1.1 1-2.2 1.9-3.3 2.8 -1.1 0.9-2.2 1.8-3.3 2.7 -0.3 0.3-0.5 0.5-0.8 0.7 -0.3 0.2-0.6 0.5-0.9 0.8 1.1 0.7 2.2 1.3 3.3 1.6 1.1 0.3 2.2 0.6 3.4 0.7 4.2 0.4 8.3-0.3 12.2-2.1 0.5-0.2 1.3-0.7 2.4-1.4 1.1-0.7 2.2-1.4 3.3-2.2 1.2-0.8 2.3-1.5 3.3-2.2 1-0.7 1.8-1.2 2.3-1.5 0.3-0.1 0.6-0.3 0.9-0.5 0.3-0.2 0.6-0.4 0.9-0.5 0.4-0.2 0.8-0.3 1.2-0.3 0.4 0 0.7 0.2 0.9 0.6 0.1 0.3 0.1 0.6 0 1 -0.2 0.4-0.3 0.6-0.5 0.8 -0.5 0.4-1.3 1-2.3 1.7 -1 0.8-2.1 1.6-3.3 2.4 -1.2 0.8-2.3 1.6-3.3 2.4 -1 0.8-1.8 1.3-2.4 1.5 -2.1 1.1-4.2 2-6.4 2.7 -2.2 0.7-4.5 1.1-6.9 1.1 -1.7-0.1-3.3-0.3-4.9-0.7 -1.5-0.4-3.1-0.9-4.6-1.6 -3.6-1.5-6.3-0.5-8.2 2.8 -0.8 1.7-1.7 3.3-2.4 4.9 -0.7 1.6-1.6 3.2-2.5 4.8 -0.8 1.5-1.6 2.7-2.5 3.6 -1 1-2.1 1.1-3.2 0.4 -0.5-0.4-0.9-0.9-1.1-1.5 -0.2-0.6-0.1-1.2 0.2-1.9 0.1-0.3 0.3-0.6 0.5-0.9 0.2-0.2 0.4-0.5 0.5-0.9 0.1-0.3 0.3-0.6 0.5-1 0.2-0.3 0.2-0.6 0.1-1 -0.2-0.9-0.2-1.7 0.1-2.5 0.2-0.8 0.5-1.6 0.8-2.3 1.8-5.3 3.8-10.7 5.9-16 2.5-6.2 5.3-12.2 8.6-18 3.2-5.8 6.8-11.4 10.7-16.9 2.8-3.9 5.7-7.6 8.8-11.3 3.1-3.6 6.4-7.1 9.9-10.3 0.9-0.8 1.9-1.6 2.9-2.2 1-0.7 2-1.3 3.1-2C315.6 18.2 316.6 17.9 317.8 17.9zM318.8 23c0.2-0.8 0.1-1.3-0.3-1.6 -0.4-0.3-0.9-0.3-1.7 0.1 -1.4 0.5-2.6 1.2-3.6 2 -2.3 1.7-4.4 3.5-6.2 5.4 -1.9 1.9-3.7 3.9-5.6 6 -4 4.5-7.7 9.2-11 14 -3.3 4.8-6.4 9.9-9.2 15.1 -0.3 0.5-0.6 1.1-0.8 1.7 -0.2 0.6-0.4 1.2-0.6 1.7 0.9 0 1.7-0.2 2.3-0.7 0.6-0.5 1.2-1 1.8-1.5 5.5-4 10.5-8.4 15.1-13.1 4.6-4.7 8.8-9.8 12.7-15.2 1.1-1.5 2.1-2.9 3-4.4 0.9-1.5 1.8-3 2.6-4.5 0.5-0.7 0.8-1.5 1.1-2.3C318.5 24.6 318.7 23.8 318.8 23zM280.9 84.5c-0.1 0.1-0.1 0.1-0.1 0.2 0-0.1 0-0.1 0.1-0.1C280.9 84.6 280.9 84.6 280.9 84.5zM287.8 78.5c-1.4 0.8-2.6 1.6-3.7 2.5 -1.1 0.9-2 2-2.9 3.3 1.3-0.6 2.6-1.4 3.9-2.5C286.3 80.7 287.2 79.6 287.8 78.5z"/>
<line class="st0" x1="134.8" y1="110.7" x2="441.7" y2="110.7"/>
<rect x="134.8" y="110.4" class="st0" width="307" height="0.5"/>
  <path class="st0" d="M134.9 152c0-15.6 11.7-27.5 27.7-27.5 18 0 27 13 27 26.7 0 15.7-12 27.2-27 27.2C145.4 178.4 134.9 166 134.9 152zM181.9 153.6c0-12.8-5.7-26.7-20.6-26.7 -8.1 0-18.6 5.5-18.6 22.6 0 11.5 5.6 26.5 21 26.5C173 176 181.9 169 181.9 153.6z"/>
  <path class="st0" d="M205.2 135.8c0-5.8-0.3-7.2-3.8-7.6l-2.5-0.2c-0.6-0.5-0.5-1.6 0.1-1.9 4.2-0.4 9.5-0.6 16.8-0.6 4.9 0 9.6 0.4 13.1 2.2 3.4 1.6 5.9 4.8 5.9 9.7 0 5.6-3.3 8.5-7.9 10.7 0 0.8 0.6 1 1.5 1.2 4.2 0.8 10.4 4.7 10.4 13 0 9-6.7 15.1-20.7 15.1 -2.3 0-6.1-0.2-9.3-0.2 -3.4 0-6.1 0.2-9 0.2 -0.5-0.2-0.6-1.5-0.1-1.9l1.4-0.2c4.1-0.7 4.3-1.6 4.3-9.7V135.8zM211.6 146.2c0 2.2 0.1 2.3 4.1 2.2 8-0.3 12.2-2.6 12.2-10 0-7.6-5.7-10.5-11.6-10.5 -1.7 0-2.9 0.2-3.6 0.5 -0.8 0.2-1.1 0.6-1.1 2V146.2zM211.6 164.3c0 2.8 0.2 6.8 1.6 8.5 1.5 1.8 3.8 2.2 6.2 2.2 6.9 0 12.2-3.1 12.2-10.9 0-6.1-3.1-13.3-15.5-13.3 -4.2 0-4.5 0.5-4.5 2V164.3z"/>
  <path class="st0" d="M265.6 157.9c0.9 0.6 1.2 1.5 1.2 2.5 0 0.8-0.2 1.5-0.6 2l-18.1 1.7c-0.9-0.7-1.2-1.7-1.2-2.5s0.2-1.5 0.6-1.9L265.6 157.9z"/>
  <path class="st0" d="M321.7 169.2c0 3.1 0.5 5 1.9 5.5 0.2 0.2 0.2 0.7-0.1 0.9 -0.9 0-2.3 0.3-3.8 0.7 -4.1 1.1-9.7 2-13.9 2 -9.3 0-17.8-2.6-23.8-8.6 -4.7-4.7-7.2-10.8-7.2-17.7 0-6.6 2.2-13.3 7-18.5 5.2-5.4 12.9-9.1 24.7-9.1 4.4 0 8.6 0.9 9.9 1.2 1.5 0.3 3.9 0.9 4.8 0.7 0 2.6 0.5 6.6 1.2 11.3 -0.2 0.6-1.6 0.7-2.1 0.2 -2.2-8.4-8-11.1-16-11.1 -15.1 0-21.7 10.8-21.7 22.4 0 15 7.7 26.7 23.4 26.7 4.8 0 7.7-1 8.6-2.3 0.4-0.5 0.8-1.9 0.8-4.4v-3.1c0-6.5-0.2-7-5.1-7.6l-3.4-0.4c-0.6-0.3-0.5-1.7 0-1.9 2.3 0.2 6.5 0.2 11.1 0.2 3 0 5.7-0.1 8.3-0.2 0.5 0.3 0.6 1.5 0.1 2l-1.2 0.2c-3.3 0.4-3.3 2.6-3.3 6.5V169.2z"/>
  <path class="st0" d="M357.5 165.3c0 8.3 0.5 9.6 4.7 9.9l3 0.2c0.5 0.5 0.3 1.7-0.1 2 -4.8-0.2-7.5-0.2-10.6-0.2 -3.3 0-6.1 0.1-10.2 0.2 -0.5-0.2-0.6-1.5-0.1-1.9l2.4-0.2c4.5-0.5 4.7-1.6 4.7-9.9v-4c0-4.3-0.2-5.3-2.5-9.7l-9.2-17.9c-2.6-5.1-3.8-5.5-6.1-5.9l-2.2-0.4c-0.5-0.5-0.4-1.6 0.2-1.9 2.5 0.2 5.3 0.2 9 0.2 3.6 0 6.4-0.1 8.3-0.2 0.7 0.2 0.7 1.5 0.2 2l-1 0.2c-2.7 0.4-3.3 0.8-3.3 1.4 0 0.8 2 5.2 2.4 6 2.9 5.8 5.8 11.9 8.8 17.3 2.4-4.1 5-8.6 7.3-13.2 2.2-4 5.1-9.3 5.1-10.3 0-0.5-1.4-1-3.3-1.2l-1.4-0.2c-0.5-0.5-0.5-1.6 0.2-1.9 2.8 0.2 5.1 0.2 7.5 0.2s4.6-0.1 7.2-0.2c0.6 0.4 0.7 1.5 0.2 2l-2.2 0.4c-4 0.7-6.4 5.6-10.3 12.3l-4.9 8.5c-3.4 5.9-3.7 6.6-3.7 12.6V165.3z"/>
  <path class="st0" d="M434.6 163.9c0 2.3 0 11.6 0.2 13.6 -0.1 0.5-0.6 0.9-1.5 0.9 -0.9-1.3-3.2-4-10-11.8l-18.1-20.6c-2.1-2.4-7.4-8.8-9-10.5h-0.2c-0.3 0.9-0.4 2.7-0.4 5.1v17c0 3.7 0.1 13.8 1.4 16.1 0.5 0.9 2 1.3 4 1.5l2.4 0.2c0.5 0.6 0.4 1.6-0.2 2 -3.5-0.2-6.2-0.2-9.1-0.2 -3.3 0-5.4 0.1-8.1 0.2 -0.5-0.4-0.6-1.5-0.2-1.9l2.1-0.2c1.8-0.2 3-0.7 3.4-1.6 1.1-2.8 1-12.3 1-16v-22.5c0-2.2-0.1-3.8-1.7-5.6 -1.1-1.1-3-1.6-4.8-1.9l-1.3-0.2c-0.5-0.5-0.5-1.6 0.2-1.9 3.3 0.2 7.4 0.2 8.8 0.2 1.3 0 2.6-0.1 3.6-0.2 1.6 4 10.8 14.3 13.3 17.1l7.6 8.5c5.4 6 9.2 10.4 12.9 14.1h0.2c0.3-0.4 0.3-1.6 0.3-3.3v-16.7c0-3.7-0.1-13.8-1.6-16.1 -0.5-0.7-1.7-1.2-4.8-1.6l-1.3-0.2c-0.5-0.5-0.5-1.7 0.2-1.9 3.6 0.2 6.2 0.2 9.2 0.2 3.4 0 5.4-0.1 8-0.2 0.6 0.4 0.6 1.5 0.2 2l-1.1 0.2c-2.5 0.4-4 1-4.4 1.6 -1.3 2.8-1.2 12.5-1.2 16.1V163.9z"/>
</svg>
