<?xml version="1.0" encoding="utf-8"?>
<!-- Generator: Adobe Illustrator 25.0.0, SVG Export Plug-In . SVG Version: 6.00 Build 0)  -->
<svg version="1.1" id="Layer_1" xmlns="http://www.w3.org/2000/svg" xmlns:xlink="http://www.w3.org/1999/xlink" x="0px" y="0px"
	 viewBox="0 0 461.84 186.81" style="enable-background:new 0 0 461.84 186.81;" xml:space="preserve">
<style type="text/css">
	.st0{fill:#2B525A;}
</style>
<g>
	<g>
		<path class="st0" d="M35.12,154.96c4.5,5.47,10.15,7.96,12.04,15.08c5.02-6.17,10.35-8.01,16.84-12.85"/>
	</g>
	<path class="st0" d="M108.13,90.58c-1.23-0.38-2.54-0.32-3.78,0.04c-9.62,2.76-22.06,0.45-41.12-4.2
		c-6.77-1.65-13.48-3.54-20.1-5.7c-3.37-1.1-6.72-2.27-10.04-3.52c-3-1.13-6.02-2.74-9.17-3.32c-3.26-0.59-6.47,1.27-7.65,4.37
		l-0.63,1.65c-0.08,0.2-0.15,0.41-0.21,0.62c-8.72,30.86-4.45,66.03,24.66,79.74c14.57,6.87,39.92-3.5,54.64-17.51
		c11.81-11.24,19.31-30.19,16.92-46.51C111.08,92.27,109.87,91.11,108.13,90.58z"/>
	<g>
		<path class="st0" d="M30.6,72.03c-25.87-6.73-22.05-38.21,1.6-39.9c16.15-1.16,26.82,6.93,35.22,8.36
			c8.4,1.42,19.59,4.53,28.02,4.2c17.41-0.68,31.25,19.16,23.63,30.49c-10.82,16.09-25.65,13.69-55.82,6.33
			C47.06,77.56,43.59,75.89,30.6,72.03"/>
	</g>
	<g>
		<path class="st0" d="M75.01,38.85c1.49-9.21,7.53-20.94,13.69-27.44c4.49,3.55,4.3,5.15,9.21,9.28
			c-8.9,4.09-14.68,8.62-19.17,18.67"/>
	</g>
	<path class="st0" d="M110.48,88.83c10.68-5.84,20.98-17.83,13.36-29.95c-0.8-1.27-2.87-0.4-2.17,1.03
		c6.22,12.9-4.16,19.26-12.03,27.6C109.07,88.12,109.63,89.3,110.48,88.83L110.48,88.83z"/>
</g>
<g>
	<g>
		<path class="st0" d="M293.55,119.37c-0.65-0.64-0.95-1.31-0.88-2.01c0.07-0.7,0.26-1.4,0.59-2.1c0.52-1.34,1.23-2.71,2.11-4.11
			c0.88-1.4,1.87-2.75,2.95-4.06s2.23-2.53,3.44-3.68c1.21-1.15,2.38-2.16,3.49-3.06c2.42-1.85,4.87-3.66,7.32-5.45
			c2.46-1.78,4.93-3.6,7.42-5.45c0.46-0.25,0.92-0.6,1.38-1.05c0.06-0.06,0.16-0.32,0.29-0.76c-0.46-0.19-0.9-0.4-1.33-0.62
			c-0.43-0.22-0.9-0.46-1.42-0.72c-0.33-0.13-0.64-0.25-0.93-0.38c-0.29-0.13-0.61-0.29-0.93-0.48c-2.95-1.66-4.73-3.63-5.36-5.92
			s-0.05-4.81,1.72-7.55c1.18-1.85,2.47-3.65,3.88-5.4c1.41-1.75,2.8-3.52,4.18-5.3c0.33-0.44,0.82-0.84,1.47-1.19
			c0.65-0.35,1.24-0.53,1.77-0.53c1.11,0,1.97,0.54,2.56,1.62c0.46,0.83,0.56,1.66,0.29,2.48c-0.26,0.83-0.85,1.4-1.77,1.72
			c-2.42,0.89-4.34,2.2-5.75,3.92c-1.41,1.72-2.7,3.57-3.88,5.54c-0.98,1.66-1.33,3.04-1.03,4.16c0.29,1.12,1.26,2.21,2.9,3.3
			c0.26,0.19,0.74,0.48,1.42,0.86c0.69,0.38,1.42,0.76,2.21,1.15c0.79,0.38,1.52,0.72,2.21,1c0.69,0.29,1.23,0.43,1.62,0.43
			c0.59,0,1.28-0.22,2.06-0.67c0.79-0.45,1.96-1.08,3.54-1.91c1.57-0.83,3.24-1.67,5.01-2.53c1.77-0.86,3.46-1.61,5.06-2.25
			c1.6-0.64,2.83-0.96,3.69-0.96c0.39,0.06,0.72,0.32,0.98,0.76c0.06,0.13,0.05,0.29-0.05,0.48c-0.1,0.19-0.21,0.32-0.34,0.38
			c-0.33,0.13-0.66,0.25-0.98,0.38c-0.33,0.13-0.66,0.25-0.98,0.38c-2.88,0.89-5.42,1.83-7.62,2.82c-2.2,0.99-4.57,2.28-7.12,3.87
			c-0.13,0.06-0.26,0.16-0.39,0.29c-0.13,0.13-0.29,0.25-0.49,0.38c0.26,0.32,0.52,0.64,0.79,0.96c0.26,0.32,0.49,0.64,0.69,0.96
			c0.85,1.59,1.05,3.25,0.59,4.97c-0.39,1.27-0.95,2.45-1.67,3.54c-0.72,1.08-1.54,2.13-2.46,3.15c-3.34,3.69-6.93,7.07-10.76,10.13
			c-3.83,3.06-8.04,5.67-12.63,7.83c-0.72,0.32-1.49,0.59-2.31,0.81c-0.82,0.22-1.59,0.46-2.31,0.72
			C296.21,120.81,294.8,120.52,293.55,119.37z M295.62,115.74c-0.33,0.83-0.33,1.45,0,1.86c0.33,0.41,0.92,0.46,1.77,0.14
			c3.21-1.15,6.08-2.41,8.6-3.77c2.52-1.37,4.9-2.91,7.12-4.63c2.23-1.72,4.34-3.65,6.34-5.78c2-2.13,4.04-4.5,6.14-7.12
			c0.39-0.51,0.7-1.1,0.93-1.77c0.23-0.67,0.47-1.29,0.74-1.86c-0.07-1.46-0.72-2.55-1.97-3.25c-0.53-0.32-1.02-0.38-1.47-0.19
			c-0.46,0.19-0.95,0.45-1.47,0.76c-3.28,2.04-6.45,4.19-9.53,6.45c-3.08,2.26-5.96,4.83-8.65,7.69c-1.57,1.66-3.16,3.45-4.77,5.4
			C297.8,111.62,296.54,113.64,295.62,115.74z"/>
	</g>
	<g>
		<path class="st0" d="M162.06,100.21c-0.2-0.38-0.29-0.86-0.29-1.34c-0.2-2.96,0.1-5.64,0.79-8.12c1.18-3.92,2.85-7.45,4.32-10.41
			l0.2-0.48c0.2-0.38,0.39-0.86,0.69-1.24c0.88-1.34,0.69-2.58-0.49-3.63c-0.49-0.48-0.88-1.05-1.28-1.62
			c-0.2-0.29-0.29-0.67-0.39-1.05c0-0.57,0.1-0.96,0.49-1.15c0.29-0.19,0.49-0.29,0.79-0.29c0.29,0,0.49,0.1,0.79,0.29
			c0.2,0.09,0.39,0.29,0.59,0.48c0.49,0.57,1.08,1.15,1.77,1.15c0.88,0,1.47-0.86,1.97-1.62c5.01-8.31,11.11-16.81,18.38-25.99
			c2.75-3.44,6.49-7.93,10.71-11.94l0.29-0.29c0.49-0.48,0.98-0.96,1.57-1.24c0.29-0.1,0.49-0.19,0.79-0.19
			c0.39,0,0.79,0.19,1.08,0.57c0.39,0.57,0.29,0.96,0.2,1.24c-0.2,0.29-0.49,0.67-0.79,0.96c-5.21,4.78-9.53,10.22-14.25,16.24
			c-5.8,7.36-10.61,14.23-14.84,21.02c-0.39,0.86-0.88,1.62-1.28,2.39c-0.2,0.48-0.29,0.86-0.1,1.24c0.1,0.29,0.39,0.76,0.98,0.96
			c2.06,0.86,4.23,1.05,5.8,1.15h2.06c3.44,0,7.17-0.38,11.2-1.24c11.79-2.39,23.59-6.78,34.99-12.99
			c5.21-2.87,9.34-6.11,12.48-9.94c2.56-3.15,4.23-6.21,5.11-9.36c1.18-4.39,0.69-8.69-1.67-12.71c-1.57-2.58-3.74-4.97-6.58-7.17
			c-4.42-3.44-9.73-6.02-16.22-7.74c-4.91-1.34-9.93-2.2-15.63-2.68c-3.24-0.19-6.09-0.38-8.65-0.38c-1.28,0-2.46,0.1-3.64,0.1
			c-17.79,0.86-33.51,4.01-48.16,9.74c-4.62,1.82-8.65,3.73-12.38,6.02c-2.75,1.72-5.01,3.54-6.88,5.54
			c-1.18,1.24-1.97,2.48-2.46,3.82c-0.79,2.01-0.49,3.82,0.98,5.45c0.88,1.05,1.97,1.91,3.54,2.67c1.67,0.86,3.44,1.62,5.41,2.2
			l3.64,1.15c1.38,0.38,2.75,0.86,4.23,1.34c1.38,0.38,2.85,0.96,4.32,1.62c0.88,0.38,1.67,0.96,2.16,1.62
			c0.59,0.86,0.69,1.82,0.1,2.48c-0.29,0.38-0.69,0.57-1.08,0.57c-0.29,0-0.69-0.1-0.88-0.38c-0.1,0-0.29-0.19-0.39-0.38
			c-0.59-1.15-1.77-1.72-2.95-2.1c-1.97-0.67-3.73-1.24-5.41-1.72c-2.85-0.86-5.8-1.72-8.65-2.96c-2.16-0.96-3.83-2.01-5.31-3.15
			c-4.72-4.11-2.75-9.17-1.97-10.6c0.69-1.34,1.67-2.77,3.05-4.11c2.16-2.2,4.82-4.2,8.06-6.11c5.6-3.34,12.19-6.21,20.05-8.6
			c7.57-2.39,15.53-4.2,24.28-5.45c6.78-0.96,13.07-1.43,19.17-1.43h1.28h1.87c7.47,0,14.64,0.86,21.42,2.48
			c5.21,1.34,9.73,3.06,13.86,5.35c4.52,2.58,8.06,5.54,10.81,9.08c2.56,3.34,3.93,6.97,4.32,10.99c0.2,2.77-0.39,5.64-1.67,8.88
			c-1.47,3.63-3.83,6.97-7.17,10.32c-3.05,3.15-6.88,5.83-11.6,8.41c-11.5,6.21-22.8,10.41-34.5,12.8
			c-4.32,0.96-8.35,1.43-12.29,1.43c-1.38,0-2.75-0.09-4.03-0.19c-1.67-0.19-3.34-0.57-5.01-0.96l-0.49-0.09
			c-0.49-0.19-0.79-0.19-1.18-0.19c-0.88,0-1.28,0.57-1.67,1.24c-2.56,4.78-4.82,9.46-5.7,14.71c-0.2,1.24-0.2,2.48-0.2,3.73v0.29
			c0,0.48,0,0.86-0.1,1.24c-0.1,0.57-0.49,1.05-1.08,1.15h-0.1C162.75,101.07,162.26,100.68,162.06,100.21z"/>
		<path class="st0" d="M219.86,98.06c-2.26-0.19-3.83-1.72-3.83-4.11V93.1c0.1-0.19,0.1-0.29,0.1-0.48v-0.1
			c0-0.38,0.1-1.05-0.39-1.62l-0.2-0.29h-0.59c-0.88,0-1.57,0.38-2.26,0.67l-0.59,0.29c-1.97,0.86-4.42,1.82-6.88,2.39l-0.49,0.1
			c-1.28,0.29-2.56,0.57-3.83,0.57h-0.1c-0.59,0-1.28,0-1.87-0.1c-1.57-0.48-2.36-1.53-2.36-3.25c0.1-0.76,0.29-1.53,0.79-2.39
			c0.79-1.34,1.77-2.58,3.15-3.73c1.57-1.43,3.44-2.58,5.41-3.44c1.97-0.96,3.93-1.34,6-1.34h0.88c2.46,0.1,4.23,0.96,5.31,2.67
			c0.49,0.67,1.08,1.34,2.16,1.34c0.29,0,0.69-0.1,0.98-0.19c0.1,0,0.2-0.1,0.2-0.1h0.2c0.1-0.09,0.29-0.09,0.39-0.09
			c0.49,0,0.79,0.19,1.08,0.57c0.2,0.29,0.49,0.76,0.1,1.62c-0.2,0.38-0.49,0.67-0.69,0.96l-0.29,0.38
			c-0.88,1.15-1.67,2.48-2.46,4.11c-0.2,0.38-0.39,0.76-0.49,1.15c-0.2,0.67-0.1,1.34,0.2,1.72c0.29,0.48,0.79,0.67,1.38,0.67h0.29
			c0.88-0.09,1.87-0.38,2.75-0.57c3.24-0.96,6.19-2.2,8.65-3.34l6.29-2.87l4.52-2.01l0.2-0.1l1.28-0.57c0.29,0,0.59-0.1,0.79-0.1
			c0.69,0,1.08,0.29,1.28,0.76c0.39,0.86-0.29,1.43-0.79,1.82c-0.2,0.19-0.49,0.29-0.79,0.38c-1.57,0.76-3.15,1.53-4.72,2.2
			c-4.23,2.01-8.45,4.01-12.88,5.64c-1.18,0.38-2.36,0.76-3.54,1.05c-0.39,0.1-0.79,0.29-1.18,0.38c-0.59,0.19-1.28,0.29-2.06,0.29
			C220.65,98.16,220.25,98.06,219.86,98.06z M203.25,91.38c0.1,0,0.29,0,0.39-0.09c3.64-0.76,7.17-2.29,10.32-3.82
			c0.29-0.19,0.69-0.38,0.98-0.67c0.49-0.38,0.69-0.96,0.59-1.53c0-0.67-0.39-1.15-0.98-1.43c-0.88-0.48-1.77-0.67-2.85-0.67h-0.49
			c-0.29,0.1-0.69,0.1-1.08,0.19c-3.14,0.67-5.9,2.2-8.35,4.68l-0.29,0.29c-0.49,0.48-1.38,1.34-0.88,2.39
			c0.29,0.57,0.79,0.86,1.47,0.86C202.47,91.57,202.86,91.47,203.25,91.38z"/>
		<path class="st0" d="M243.74,97.11c-0.49-0.19-0.88-0.48-0.88-1.43v-0.67l0.2-1.43c0.1-1.15,0.29-2.39,0.49-3.53
			c0.29-2.48,0.69-4.59,0.98-6.69c0.1-0.48,0.2-0.86,0.39-1.24c0.2-0.48,0.49-0.67,1.08-0.67h0.1c0.59,0,0.88,0.19,1.18,0.76
			c0.29,0.38,0.29,0.96,0.29,1.62l-0.2,1.05c0,0.38,0,0.76-0.1,1.15c0,0.29,0.1,0.57,0.29,0.86c0.29,0.19,0.59,0.38,0.98,0.38
			c0.2,0,0.49-0.1,0.59-0.19l1.67-1.24c2.75-2.29,5.41-4.01,8.06-5.16c1.28-0.57,2.36-0.86,3.44-0.86c0.39,0,0.79,0,1.18,0.1
			c1.08,0.19,1.77,0.67,2.26,1.43c0.29,0.38,0.29,0.76,0.29,1.15c-0.1,0.38-0.39,0.67-0.69,0.86c-0.29,0.1-0.49,0.19-0.69,0.19
			c-0.1,0-0.29,0-0.39-0.09c-0.69-0.48-1.38-0.76-2.16-0.76c-0.98,0-1.87,0.48-2.56,0.86c-6.19,3.44-10.42,7.17-13.17,11.66v0.1
			c-0.29,0.48-0.59,0.86-0.88,1.24c-0.39,0.48-0.79,0.67-1.28,0.67C244.04,97.21,243.84,97.21,243.74,97.11z"/>
		<path class="st0" d="M341.2,100.17c-1.77-0.48-2.55-1.43-2.55-3.15c0-0.86,0.2-1.62,0.39-2.39c0.98-2.68,2.56-5.25,4.62-7.93
			c0.29-0.29,0.59-0.57,0.98-0.86c0.2-0.09,0.59-0.19,0.88-0.19c0.39,0,0.69,0.1,0.88,0.29c0.49,0.38,0.69,1.15,0.29,1.72
			c-0.2,0.38-0.39,0.67-0.79,1.05l-0.1,0.19c-1.57,1.72-2.75,3.63-3.64,6.02c-0.29,0.86,0,1.34,0.1,1.53
			c0.29,0.38,0.79,0.67,1.28,0.67c0.2,0,0.29,0,0.39-0.1c1.57-0.19,3.05-0.67,4.72-1.34l5.9-2.29c3.64-1.43,7.27-2.87,10.81-4.49
			c0.39-0.19,0.69-0.29,0.98-0.29s0.49,0.1,0.79,0.29c0.69,0.57,0.69,1.34,0.2,2.1c-0.39,0.48-0.98,0.76-1.67,1.05l-17.49,6.88
			c-1.67,0.67-3.44,1.05-4.91,1.24c-0.29,0.09-0.59,0.09-0.88,0.09C341.99,100.26,341.59,100.26,341.2,100.17z M346.9,77.24
			c-0.49-0.38-0.59-0.86-0.49-1.34c0.2-0.38,0.29-0.67,0.49-0.96c0.39-0.38,0.69-0.86,0.98-1.34c1.47-1.91,2.95-3.82,4.62-5.64
			c0.79-0.76,1.67-1.53,2.26-2.01c0.29-0.19,0.59-0.38,0.98-0.38c0.1,0,0.29,0.1,0.49,0.1c0.49,0.19,0.88,0.67,0.98,1.24
			c0,0.38-0.2,0.76-0.59,1.05c-2.16,2.01-3.93,4.3-5.6,6.5l-1.47,1.82c-0.29,0.38-0.69,0.86-1.18,1.05
			c-0.2,0.19-0.49,0.19-0.69,0.19C347.39,77.52,347.19,77.43,346.9,77.24z"/>
		<path class="st0" d="M359.18,101.7c-1.28-0.48-1.77-1.24-1.77-2.48c0.1-0.76,0.29-1.53,0.69-2.29c0.59-1.05,1.38-2.1,2.36-3.15
			c3.34-3.73,7.27-6.59,11.5-8.5c1.87-0.86,4.13-1.81,6.88-1.81h0.59c0.49,0,1.38,0.09,2.16,0.57c0.49,0.29,0.88,0.38,1.28,0.38
			c0.88,0,1.38-0.76,1.67-1.24c0.49-0.67,0.88-1.43,1.38-2.1c4.72-7.64,10.42-14.9,17.1-21.4c2.55-2.48,5.5-4.78,8.94-6.88
			c0.69-0.48,1.47-0.86,2.36-1.24c0.39-0.29,0.88-0.38,1.38-0.48h0.79c1.18,0,2.06,0.38,2.75,1.05c0.59,0.76,0.88,1.91,0.59,3.25
			c-0.2,1.24-0.69,2.48-1.47,3.82c-0.79,1.34-1.87,2.77-3.24,4.3c-5.5,6.21-11.7,12.13-18.38,17.58c-4.03,3.25-7.67,6.11-11.3,8.6
			c-0.79,0.57-1.77,1.34-1.97,2.87c-0.2,1.62,0.79,2.77,2.36,3.06h0.88c0.69,0,1.47-0.1,2.36-0.29c3.93-1.15,7.27-2.48,10.32-4.01
			l6-3.25c0.88-0.48,1.77-0.96,2.65-1.53l0.59-0.29l1.08-0.57c0.29-0.1,0.49-0.19,0.79-0.19c0.39,0,0.69,0.19,0.98,0.57
			c0.39,0.48,0.29,1.24-0.2,1.72c-0.29,0.29-0.59,0.57-0.98,0.86c-5.41,3.25-11.3,6.59-17.79,8.69c-1.28,0.38-2.65,0.86-4.23,1.15
			c-0.59,0.09-1.28,0.19-1.77,0.19c-2.36,0-4.23-1.05-5.6-3.15l-0.1-0.19c-0.1-0.1-0.2-0.29-0.29-0.48
			c-0.39-0.38-0.79-0.57-1.28-0.57c-0.29,0-0.59,0-0.79,0.19c-0.88,0.48-1.77,0.96-2.65,1.53c-2.26,1.34-4.82,2.87-7.47,4.01
			c-2.06,0.96-3.93,1.53-6,1.91c-0.49,0.1-0.98,0.19-1.38,0.19C360.26,102.08,359.67,101.98,359.18,101.7z M363.7,98.54
			c0.2-0.09,0.49-0.19,0.69-0.19c0.88-0.29,1.77-0.57,2.65-0.96c3.54-1.62,6.88-3.73,10.12-5.73c1.38-0.96,1.87-2.29,2.26-3.34
			c0.2-0.48,0.2-0.86-0.1-1.24c-0.29-0.38-0.69-0.57-1.18-0.57c-1.38,0-2.65,0.38-3.83,0.86c-4.32,1.81-8.16,4.58-11.79,8.41
			c-0.1,0.19-0.2,0.38-0.29,0.48l-0.1,0.09c-0.2,0.29-0.79,1.05-0.2,1.82c0.2,0.38,0.59,0.57,0.98,0.57
			C363.21,98.73,363.51,98.64,363.7,98.54z M392.01,80.96c0.29-0.19,0.59-0.29,0.79-0.48c7.57-5.92,14.55-12.52,20.93-19.87
			c1.08-1.24,1.87-2.39,2.46-3.54c0.1-0.38,0.2-0.67,0.29-0.86c0-0.1,0-0.19,0.1-0.29v-0.48c-0.29-0.76-0.88-0.96-1.18-0.96h-0.39
			c-0.59,0.19-1.08,0.48-1.47,0.67c-1.96,1.24-3.64,2.39-5.11,3.63c-6.19,5.25-11.89,11.75-17.4,19.78l-0.59,1.05
			c-0.1,0.38,0,0.96,0.39,1.24c0.2,0.1,0.39,0.19,0.69,0.19C391.71,81.06,391.91,81.06,392.01,80.96z"/>
		<path class="st0" d="M412.55,95.87c-2.36-0.76-4.03-2.1-4.91-3.73c-0.79-1.72-0.79-3.82,0.1-6.02c1.28-2.96,3.34-5.45,6.29-7.45
			c0.98-0.67,2.06-1.05,3.34-1.05c0.29,0,0.69,0,0.98,0.1c1.77,0.19,2.85,1.43,3.05,3.06c0.2,1.15,0,2.2-0.49,3.15
			c-1.47,2.87-3.64,4.59-6.78,5.45c-0.29,0.1-0.69,0.19-1.08,0.19c-0.29,0-0.69-0.1-1.08-0.1h-0.2c-0.59,0-1.08,0.38-1.18,1.05
			c0,0.38,0.2,0.76,0.49,1.15c0.79,0.86,1.77,1.24,2.65,1.43c1.38,0.48,2.75,0.67,4.42,0.67c0.29,0,0.49,0,0.79-0.1
			c3.73,0,7.17-0.76,11.11-1.72c4.13-0.96,8.06-2.29,12.68-3.82c1.87-0.67,3.83-1.24,5.8-1.91l0.88-0.29l0.98-0.29h0.1
			c0.59,0,1.18,0.29,1.38,0.76c0.2,0.48,0.1,1.24-0.29,1.62c-0.39,0.29-0.79,0.57-1.47,0.76c-2.16,0.67-4.32,1.34-6.39,2.1
			c-4.62,1.53-9.34,3.06-14.15,4.11c-3.83,0.86-6.88,1.34-9.63,1.62h-1.67C416.28,96.63,414.32,96.35,412.55,95.87z M413.53,86.41
			c2.26-0.48,3.83-1.81,4.62-3.92c0.1-0.29,0.1-0.48,0.1-0.67v-0.1l-0.1-0.19c-0.29-0.76-0.88-0.96-1.18-0.96
			c-0.2,0-0.39,0.1-0.59,0.19c-1.96,0.76-3.14,2.29-4.23,3.82c-0.2,0.29-0.29,0.96,0.1,1.34c0.2,0.19,0.59,0.48,1.08,0.48H413.53z"
			/>
		<g>
			<path class="st0" d="M317.82,17.9c1.38-0.13,2.47,0.18,3.29,0.91c0.82,0.73,1.16,1.77,1.03,3.11c-0.2,1.98-0.75,3.93-1.67,5.84
				c-0.98,2.36-2.18,4.57-3.59,6.61c-1.41,2.04-2.9,4.09-4.47,6.13c-3.34,4.41-6.86,8.64-10.57,12.69
				c-3.7,4.06-7.58,7.97-11.65,11.73c-1.7,1.66-3.44,3.27-5.21,4.84c-1.77,1.56-3.54,3.15-5.31,4.74c-0.53,0.38-1.07,0.7-1.62,0.96
				c-0.56,0.25-1.1,0.54-1.62,0.86c-0.39,0.26-0.8,0.51-1.23,0.77c-0.43,0.26-0.71,0.54-0.83,0.86c-1.12,2.56-2.15,5.12-3.1,7.71
				c-0.95,2.58-1.69,5.28-2.21,8.08c0.85-1.21,1.67-2.44,2.46-3.68c0.79-1.24,1.67-2.4,2.65-3.49c1.38-1.53,2.82-3.02,4.32-4.46
				c1.51-1.44,3.01-2.89,4.52-4.36c0.59-0.58,1.28-1.07,2.06-1.49s1.57-0.81,2.36-1.2c0.79-0.38,1.67-0.58,2.65-0.58
				c1.05,0,1.82,0.34,2.31,1.01c0.49,0.67,0.57,1.48,0.25,2.44c-0.39,1.02-1.02,1.95-1.87,2.78c-1.12,0.96-2.21,1.9-3.29,2.83
				c-1.08,0.93-2.18,1.84-3.29,2.73c-0.26,0.26-0.54,0.48-0.83,0.67c-0.29,0.19-0.61,0.45-0.93,0.77c1.11,0.73,2.21,1.27,3.29,1.6
				c1.08,0.34,2.21,0.57,3.39,0.69c4.19,0.43,8.26-0.27,12.19-2.1c0.52-0.25,1.31-0.73,2.36-1.43c1.05-0.7,2.16-1.45,3.34-2.25
				c1.18-0.8,2.28-1.54,3.29-2.25c1.02-0.7,1.78-1.21,2.31-1.53c0.33-0.13,0.62-0.3,0.88-0.53c0.26-0.22,0.56-0.4,0.88-0.53
				c0.39-0.19,0.8-0.3,1.23-0.33c0.42-0.03,0.74,0.18,0.93,0.62c0.13,0.25,0.11,0.57-0.05,0.96c-0.16,0.38-0.34,0.64-0.54,0.76
				c-0.53,0.38-1.29,0.96-2.31,1.72c-1.02,0.76-2.11,1.56-3.29,2.39c-1.18,0.83-2.29,1.62-3.34,2.39c-1.05,0.76-1.83,1.28-2.36,1.53
				c-2.1,1.06-4.23,1.95-6.39,2.66c-2.16,0.71-4.46,1.07-6.88,1.07c-1.71-0.06-3.33-0.29-4.87-0.67c-1.54-0.38-3.06-0.92-4.57-1.62
				c-3.6-1.46-6.32-0.54-8.16,2.77c-0.85,1.66-1.66,3.3-2.41,4.92c-0.75,1.62-1.59,3.23-2.51,4.83c-0.79,1.47-1.6,2.67-2.46,3.63
				c-0.98,0.96-2.06,1.08-3.24,0.38c-0.52-0.38-0.88-0.87-1.08-1.48c-0.2-0.6-0.13-1.23,0.2-1.86c0.13-0.32,0.31-0.6,0.54-0.86
				c0.23-0.25,0.41-0.54,0.54-0.86c0.13-0.32,0.29-0.64,0.49-0.96c0.2-0.32,0.23-0.64,0.1-0.96c-0.2-0.89-0.18-1.73,0.05-2.53
				c0.23-0.79,0.51-1.58,0.83-2.34c1.83-5.35,3.8-10.7,5.9-16.05c2.49-6.18,5.34-12.16,8.55-17.96c3.21-5.79,6.78-11.43,10.71-16.91
				c2.75-3.88,5.67-7.64,8.75-11.27c3.08-3.63,6.39-7.07,9.93-10.32c0.92-0.83,1.87-1.58,2.85-2.25c0.98-0.67,2-1.32,3.05-1.96
				C315.56,18.22,316.64,17.9,317.82,17.9z M318.8,22.96c0.2-0.76,0.1-1.29-0.29-1.58c-0.39-0.29-0.95-0.27-1.67,0.05
				c-1.38,0.51-2.59,1.18-3.64,2.01c-2.29,1.66-4.37,3.46-6.24,5.4c-1.87,1.94-3.75,3.93-5.65,5.97c-4,4.52-7.67,9.2-11.01,14.04
				c-3.34,4.84-6.42,9.87-9.24,15.09c-0.33,0.51-0.59,1.07-0.79,1.67c-0.2,0.61-0.39,1.16-0.59,1.67c0.92,0,1.67-0.24,2.26-0.72
				c0.59-0.48,1.18-0.97,1.77-1.48c5.5-4.01,10.53-8.39,15.09-13.14c4.55-4.74,8.8-9.82,12.73-15.24c1.11-1.46,2.11-2.95,3-4.44
				c0.88-1.5,1.75-3.01,2.6-4.54c0.46-0.7,0.82-1.46,1.08-2.29C318.47,24.62,318.67,23.79,318.8,22.96z M280.87,84.49
				c-0.07,0.06-0.1,0.13-0.1,0.19c0-0.06,0.02-0.1,0.05-0.1C280.85,84.58,280.87,84.55,280.87,84.49z M287.75,78.47
				c-1.38,0.76-2.6,1.61-3.69,2.53c-1.08,0.92-2.05,2.02-2.9,3.3c1.31-0.57,2.6-1.42,3.88-2.53
				C286.32,80.65,287.22,79.55,287.75,78.47z"/>
		</g>
	</g>
</g>
<g>
	<g>
		<line class="st0" x1="134.78" y1="110.66" x2="441.73" y2="110.66"/>
		<rect x="134.78" y="110.41" class="st0" width="306.95" height="0.5"/>
	</g>
	<g>
		<g>
			<path class="st0" d="M134.92,151.97c0-15.58,11.68-27.5,27.73-27.5c17.99,0,27.03,13.01,27.03,26.72
				c0,15.73-11.99,27.19-27.03,27.19C145.36,178.38,134.92,165.99,134.92,151.97z M181.89,153.6c0-12.85-5.69-26.72-20.56-26.72
				c-8.1,0-18.62,5.53-18.62,22.59c0,11.53,5.61,26.48,20.96,26.48C173.02,175.96,181.89,168.95,181.89,153.6z"/>
			<path class="st0" d="M205.2,135.84c0-5.76-0.31-7.24-3.82-7.56l-2.49-0.23c-0.62-0.47-0.55-1.64,0.08-1.95
				c4.21-0.39,9.5-0.62,16.75-0.62c4.91,0,9.58,0.39,13.09,2.18c3.35,1.64,5.92,4.75,5.92,9.74c0,5.61-3.27,8.49-7.95,10.67
				c0,0.78,0.62,1.01,1.48,1.17c4.21,0.78,10.44,4.67,10.44,13.01c0,9.04-6.7,15.11-20.72,15.11c-2.26,0-6.08-0.23-9.35-0.23
				c-3.43,0-6.08,0.16-8.96,0.23c-0.47-0.23-0.62-1.48-0.15-1.95l1.4-0.23c4.13-0.7,4.28-1.56,4.28-9.74V135.84z M211.59,146.21
				c0,2.18,0.08,2.34,4.05,2.18c7.95-0.31,12.23-2.65,12.23-9.97c0-7.63-5.69-10.52-11.61-10.52c-1.71,0-2.88,0.16-3.58,0.47
				c-0.78,0.23-1.09,0.62-1.09,2.03V146.21z M211.59,164.28c0,2.8,0.15,6.78,1.64,8.49c1.48,1.79,3.82,2.18,6.15,2.18
				c6.93,0,12.23-3.12,12.23-10.91c0-6.15-3.12-13.32-15.5-13.32c-4.21,0-4.52,0.47-4.52,2.03V164.28z"/>
			<path class="st0" d="M265.58,157.89c0.86,0.55,1.17,1.48,1.17,2.49c0,0.78-0.23,1.48-0.62,1.95l-18.15,1.71
				c-0.86-0.7-1.17-1.71-1.17-2.49s0.23-1.48,0.62-1.95L265.58,157.89z"/>
			<path class="st0" d="M321.67,169.18c0,3.12,0.47,4.99,1.87,5.53c0.23,0.23,0.23,0.7-0.08,0.93c-0.93,0-2.34,0.31-3.82,0.7
				c-4.13,1.09-9.74,2.03-13.94,2.03c-9.27,0-17.76-2.57-23.76-8.65c-4.68-4.67-7.17-10.83-7.17-17.68c0-6.62,2.18-13.32,7.01-18.46
				c5.22-5.45,12.93-9.11,24.69-9.11c4.44,0,8.57,0.86,9.89,1.17c1.48,0.31,3.89,0.86,4.83,0.7c0,2.57,0.47,6.62,1.17,11.29
				c-0.23,0.62-1.64,0.7-2.1,0.23c-2.18-8.41-8.02-11.06-15.97-11.06c-15.11,0-21.73,10.75-21.73,22.43
				c0,14.96,7.71,26.72,23.37,26.72c4.83,0,7.71-1.01,8.57-2.34c0.39-0.55,0.78-1.95,0.78-4.44v-3.12c0-6.54-0.23-7.01-5.06-7.56
				l-3.43-0.39c-0.62-0.31-0.54-1.71,0-1.95c2.26,0.15,6.54,0.23,11.14,0.23c3.04,0,5.69-0.08,8.26-0.23
				c0.54,0.31,0.62,1.48,0.08,1.95l-1.25,0.16c-3.27,0.39-3.35,2.57-3.35,6.54V169.18z"/>
			<path class="st0" d="M357.51,165.29c0,8.34,0.47,9.58,4.67,9.89l2.96,0.23c0.47,0.47,0.31,1.71-0.15,1.95
				c-4.83-0.16-7.48-0.23-10.59-0.23c-3.27,0-6.08,0.08-10.2,0.23c-0.47-0.23-0.62-1.48-0.15-1.95l2.41-0.23
				c4.52-0.47,4.68-1.56,4.68-9.89v-3.97c0-4.28-0.23-5.3-2.49-9.66l-9.19-17.91c-2.65-5.14-3.82-5.53-6.15-5.92l-2.18-0.39
				c-0.47-0.54-0.39-1.64,0.16-1.95c2.49,0.16,5.3,0.23,9.04,0.23c3.58,0,6.39-0.08,8.34-0.23c0.7,0.23,0.7,1.48,0.23,1.95
				l-1.01,0.16c-2.73,0.39-3.27,0.78-3.27,1.4c0,0.78,2.03,5.22,2.42,6c2.88,5.76,5.77,11.92,8.8,17.29
				c2.42-4.13,4.99-8.65,7.32-13.16c2.18-4.05,5.06-9.35,5.06-10.28c0-0.47-1.4-1.01-3.27-1.25l-1.4-0.16
				c-0.54-0.54-0.47-1.64,0.16-1.95c2.8,0.16,5.06,0.23,7.48,0.23s4.59-0.08,7.24-0.23c0.62,0.39,0.7,1.48,0.16,1.95l-2.18,0.39
				c-4.05,0.7-6.39,5.61-10.28,12.31l-4.91,8.49c-3.43,5.92-3.66,6.62-3.66,12.62V165.29z"/>
			<path class="st0" d="M434.63,163.89c0,2.34,0,11.61,0.23,13.63c-0.15,0.47-0.62,0.86-1.48,0.86c-0.93-1.32-3.19-4.05-9.97-11.76
				l-18.07-20.56c-2.1-2.41-7.4-8.8-9.03-10.52h-0.16c-0.31,0.93-0.39,2.73-0.39,5.06v16.98c0,3.66,0.08,13.79,1.4,16.13
				c0.47,0.86,2.03,1.32,3.97,1.48l2.42,0.23c0.47,0.62,0.39,1.56-0.16,1.95c-3.5-0.16-6.23-0.23-9.11-0.23
				c-3.27,0-5.37,0.08-8.1,0.23c-0.55-0.39-0.62-1.48-0.16-1.95l2.1-0.23c1.79-0.23,3.04-0.7,3.43-1.56
				c1.09-2.8,1.01-12.31,1.01-16.05v-22.51c0-2.18-0.08-3.82-1.71-5.61c-1.09-1.09-2.96-1.64-4.83-1.87l-1.32-0.16
				c-0.47-0.47-0.47-1.64,0.16-1.95c3.27,0.23,7.4,0.23,8.8,0.23c1.25,0,2.57-0.08,3.58-0.23c1.56,3.97,10.75,14.26,13.32,17.14
				l7.56,8.49c5.37,6,9.19,10.36,12.85,14.1h0.15c0.31-0.39,0.31-1.64,0.31-3.27v-16.67c0-3.66-0.08-13.79-1.56-16.13
				c-0.47-0.7-1.71-1.17-4.83-1.56l-1.32-0.16c-0.55-0.47-0.47-1.71,0.15-1.95c3.58,0.16,6.23,0.23,9.19,0.23
				c3.35,0,5.37-0.08,8.02-0.23c0.62,0.39,0.62,1.48,0.16,1.95l-1.09,0.16c-2.49,0.39-4.05,1.01-4.36,1.64
				c-1.32,2.8-1.17,12.46-1.17,16.05V163.89z"/>
		</g>
	</g>
</g>
</svg>
